<svg width="37" height="40" viewBox="0 0 37 40" fill="none" xmlns="http://www.w3.org/2000/svg">
<path d="M26.2107 8.38888C26.6033 8.00031 27.2329 8.00031 27.6234 8.38888C28.012 8.77943 28.012 9.41116 27.6234 9.79773L8.38883 29.0327C7.7512 29.6744 7.67356 30.4035 7.91865 30.9913C8.01828 31.2284 8.17173 31.4495 8.35904 31.6408C8.55232 31.8321 8.7755 31.9838 9.01262 32.0835C9.60043 32.3286 10.3297 32.2487 10.9653 31.6111L32.1945 10.3835C34.0317 8.54625 34.3405 6.53169 33.7467 4.94555C33.5195 4.3378 33.155 3.78596 32.6907 3.32168C32.2284 2.85939 31.6744 2.49264 31.0687 2.26747C29.4806 1.67367 27.4641 1.98268 25.6289 3.81789C19.398 10.0469 13.1911 16.3174 6.92831 22.5105C5.22265 24.1843 1.99461 27.3569 1.99461 31.0273C1.99461 32.9522 2.77571 34.6994 4.03902 35.9607C5.29834 37.2261 7.04389 38.0054 8.97272 38.0054C12.661 38.0054 15.8253 34.7633 16.9949 33.5677C22.6719 27.7951 28.4603 22.094 34.189 16.3672C34.5756 15.9746 35.2093 15.9746 35.5979 16.3672C35.9884 16.7557 35.9884 17.3855 35.5979 17.776L18.4176 34.9547C17.0906 36.3137 13.4919 40 8.97272 40C6.49991 40 4.25622 38.9937 2.63225 37.3657C1.00629 35.7457 0 33.5022 0 31.0273C0 26.53 3.62256 22.9709 5.53347 21.0919L24.2201 2.40709C26.6869 -0.0597865 29.4985 -0.438246 31.7601 0.408622C32.6507 0.739399 33.4499 1.26123 34.1015 1.91282C34.751 2.56442 35.273 3.36157 35.6058 4.25426C36.4526 6.51391 36.0741 9.32343 33.6053 11.7923L12.378 33.0219C11.0769 34.3231 9.52672 34.4545 8.24946 33.9204C7.76127 33.7192 7.31692 33.4162 6.95227 33.0516C6.58563 32.6849 6.28473 32.2409 6.08148 31.7527C5.54747 30.4734 5.67896 28.927 6.98012 27.6258L26.2107 8.38888Z" fill="#BDBDBD"/>
</svg>
