<svg width="44" height="48" viewBox="0 0 44 48" fill="none" xmlns="http://www.w3.org/2000/svg">
<path fill-rule="evenodd" clip-rule="evenodd" d="M44 46C44 47.1 43.06 48 41.88 48H10.12C8.94 48 8 47.1 8 46V2C8 0.899994 8.94 0 10.12 0H32L44 12V46Z" fill="#E0E0E0"/>
<path d="M44 12L32 0V11C32 11.5523 32.4477 12 33 12H44Z" fill="#C40000"/>
<path d="M0 24C0 22.8954 0.895431 22 2 22H18C19.1046 22 20 22.8954 20 24V38C20 39.1046 19.1046 40 18 40H2C0.895432 40 0 39.1046 0 38V24Z" fill="#C40000"/>
<path fill-rule="evenodd" clip-rule="evenodd" d="M6 26H11C12.6569 26 14 27.3431 14 29C14 30.6569 12.6569 32 11 32H8V36H6V26ZM8 30H11C11.5523 30 12 29.5523 12 29C12 28.4477 11.5523 28 11 28H8V30Z" fill="white"/>
<path fill-rule="evenodd" clip-rule="evenodd" d="M39.9451 26C39.4476 30.5 35.6326 34 31 34C26.0294 34 22 29.9706 22 25C22 20.3674 25.5 16.5524 30 16.0549V26H39.9451Z" fill="#828282"/>
<path d="M39.9451 24H32V16.0547C36.1716 16.5156 39.4839 19.8281 39.9451 24Z" fill="#C40000"/>
<rect x="22" y="36" width="18" height="2" fill="#C40000"/>
<rect x="22" y="40" width="18" height="2" fill="#C40000"/>
</svg>
