<svg width="36" height="48" viewBox="0 0 36 48" fill="none" xmlns="http://www.w3.org/2000/svg">
<path fill-rule="evenodd" clip-rule="evenodd" d="M36 46C36 47.1 35.06 48 33.88 48H2.12C0.940002 48 0 47.1 0 46V2C0 0.899994 0.940002 0 2.12 0H24L36 12V46Z" fill="#E0E0E0"/>
<path d="M7 32C6.44772 32 6 32.4477 6 33C6 33.5523 6.44772 34 7 34H11C11.5523 34 12 33.5523 12 33C12 32.4477 11.5523 32 11 32H7Z" fill="#4F4F4F"/>
<path d="M7 40C6.44772 40 6 40.4477 6 41C6 41.5523 6.44772 42 7 42H11C11.5523 42 12 41.5523 12 41C12 40.4477 11.5523 40 11 40H7Z" fill="#4F4F4F"/>
<path d="M30 37C30 36.4477 29.5523 36 29 36H25C24.4477 36 24 36.4477 24 37C24 37.5523 24.4477 38 25 38H29C29.5523 38 30 37.5523 30 37Z" fill="#4F4F4F"/>
<path d="M15.125 32C14.5037 32 14 32.4477 14 33C14 33.5523 14.5037 34 15.125 34H28.875C29.4963 34 30 33.5523 30 33C30 32.4477 29.4963 32 28.875 32H15.125Z" fill="#4F4F4F"/>
<path d="M14 41C14 40.4477 14.5037 40 15.125 40H28.875C29.4963 40 30 40.4477 30 41C30 41.5523 29.4963 42 28.875 42H15.125C14.5037 42 14 41.5523 14 41Z" fill="#4F4F4F"/>
<path d="M20.875 36C21.4963 36 22 36.4477 22 37C22 37.5523 21.4963 38 20.875 38H7.125C6.50368 38 6 37.5523 6 37C6 36.4477 6.50368 36 7.125 36H20.875Z" fill="#4F4F4F"/>
<path d="M36 12L24 0V11C24 11.5523 24.4477 12 25 12H36Z" fill="#FF4930"/>
<path fill-rule="evenodd" clip-rule="evenodd" d="M15 16C16.6569 16 18 14.6569 18 13C18 11.3431 16.6569 10 15 10C13.3431 10 12 11.3431 12 13C12 14.6569 13.3431 16 15 16ZM6.24508 26.2345L11.1257 20.2371C11.5168 19.7566 12.2292 19.7053 12.6844 20.1248L16.5378 23.6761L22.5189 14.489C22.9801 13.7805 24.0358 13.8561 24.3925 14.6232L29.8975 26.4612C30.2308 27.1779 29.7105 28 28.9235 28H7.07724C6.17017 28 5.67069 26.9403 6.24508 26.2345Z" fill="#828282"/>
</svg>
