<svg width="36" height="48" viewBox="0 0 36 48" fill="none" xmlns="http://www.w3.org/2000/svg">
<path fill-rule="evenodd" clip-rule="evenodd" d="M36 46C36 47.1 35.06 48 33.88 48H2.12C0.940002 48 0 47.1 0 46V2C0 0.899994 0.940002 0 2.12 0H24L36 12V46Z" fill="#E0E0E0"/>
<path d="M36 12L24 0V11C24 11.5523 24.4477 12 25 12H36Z" fill="#FF4930"/>
<path fill-rule="evenodd" clip-rule="evenodd" d="M4 17C4 16.4477 4.44772 16 5 16H7C7.55228 16 8 16.4477 8 17C8 17.5523 7.55228 18 7 18H5C4.44772 18 4 17.5523 4 17ZM4 21C4 20.4477 4.44772 20 5 20H13H23H31C31.5523 20 32 20.4477 32 21C32 21.5523 31.5523 22 31 22H24V26H31C31.5523 26 32 26.4477 32 27C32 27.5523 31.5523 28 31 28H24V32H31C31.5523 32 32 32.4477 32 33C32 33.5523 31.5523 34 31 34H24V38H31C31.5523 38 32 38.4477 32 39C32 39.5523 31.5523 40 31 40H23H13H5C4.44771 40 4 39.5523 4 39C4 38.4477 4.44772 38 5 38H12L12 34H5C4.44771 34 4 33.5523 4 33C4 32.4477 4.44772 32 5 32H12V28H5C4.44771 28 4 27.5523 4 27C4 26.4477 4.44772 26 5 26H12L12 22H5C4.44771 22 4 21.5523 4 21ZM22 38V34H14V38H22ZM22 32L22 28H14L14 32H22ZM22 26V22H14V26H22ZM15 16C14.4477 16 14 16.4477 14 17C14 17.5523 14.4477 18 15 18H17C17.5523 18 18 17.5523 18 17C18 16.4477 17.5523 16 17 16H15ZM24 17C24 16.4477 24.4477 16 25 16H27C27.5523 16 28 16.4477 28 17C28 17.5523 27.5523 18 27 18H25C24.4477 18 24 17.5523 24 17Z" fill="#828282"/>
</svg>
