<svg width="44" height="48" viewBox="0 0 44 48" fill="none" xmlns="http://www.w3.org/2000/svg">
<path fill-rule="evenodd" clip-rule="evenodd" d="M36 46C36 47.1 35.06 48 33.88 48H2.12C0.940002 48 0 47.1 0 46V2C0 0.899994 0.940002 0 2.12 0H24L36 12V46Z" fill="#E0E0E0"/>
<path d="M36 12L24 0V11C24 11.5523 24.4477 12 25 12H36Z" fill="#FF3030"/>
<path fill-rule="evenodd" clip-rule="evenodd" d="M4 21H9C10.6569 21 12 22.3431 12 24C12 25.6569 10.6569 27 9 27H6V31H4V21ZM6 25H9C9.55228 25 10 24.5523 10 24C10 23.4477 9.55228 23 9 23H6V25ZM14 21H18C20.2091 21 22 22.7909 22 25V27C22 29.2091 20.2091 31 18 31H14V21ZM16 23V29H18C19.1046 29 20 28.1046 20 27V25C20 23.8954 19.1046 23 18 23H16ZM24 21H32V23H26V25H30V27H26V31H24V21Z" fill="#FF3030"/>
<path d="M39.712 22C40.5053 22 41.588 22.3536 42.6171 23.3821C43.6463 24.4107 44 25.4822 44 26.2857C44 26.575 43.8821 26.8429 43.6891 27.0464L35.1132 35.6179C34.9738 35.7572 34.8023 35.8536 34.6201 35.8965L30.3321 36.9679C29.5496 37.1608 28.8313 36.4536 29.035 35.6715L30.107 31.3857C30.1499 31.1929 30.2464 31.0215 30.3857 30.8929L38.9616 22.3214C39.1546 22.1179 39.4333 22 39.712 22Z" fill="#E0E0E0"/>
<path d="M37.5692 24.1436C38.3625 24.1436 39.4452 24.4971 40.4743 25.5257C41.5034 26.5543 41.8571 27.6257 41.8571 28.4293C41.8571 28.7186 41.7392 28.9864 41.5463 29.19L26.1132 44.6186C25.9738 44.7579 25.8023 44.8543 25.6201 44.8972L21.3321 45.9686C20.5496 46.1615 19.8313 45.4543 20.035 44.6722L21.107 40.3864C21.1499 40.1936 21.2464 40.0222 21.3857 39.8936L36.8188 24.465C37.0117 24.2614 37.2905 24.1436 37.5692 24.1436Z" fill="#FF3030"/>
<path d="M25.7143 44.8772L21.3544 45.9678C20.5588 46.164 19.8285 45.4443 20.0356 44.6482L21.1255 40.2861C23.8129 40.9113 25.0838 42.1836 25.7143 44.8772Z" fill="white"/>
<path d="M20.3651 43.1436L20.039 44.4816C19.8121 45.3759 20.6123 46.1845 21.4841 45.964L22.8571 45.6119C22.6043 45.0588 22.3092 44.6175 21.9479 44.2437C21.5458 43.8278 21.0388 43.4716 20.3651 43.1436Z" fill="#4F4F4F"/>
</svg>
