<svg width="44" height="48" viewBox="0 0 44 48" fill="none" xmlns="http://www.w3.org/2000/svg">
<path fill-rule="evenodd" clip-rule="evenodd" d="M44 46C44 47.1 43.06 48 41.88 48H10.12C8.94 48 8 47.1 8 46V2C8 0.899994 8.94 0 10.12 0H32L44 12V46Z" fill="#E0E0E0"/>
<path d="M44 12L32 0V11C32 11.5523 32.4477 12 33 12H44Z" fill="#FFC530"/>
<path d="M0 24C0 22.8954 0.895431 22 2 22H36C37.1046 22 38 22.8954 38 24V38C38 39.1046 37.1046 40 36 40H2C0.895432 40 0 39.1046 0 38V24Z" fill="#FFC530"/>
<path fill-rule="evenodd" clip-rule="evenodd" d="M4 26H8C10.2091 26 12 27.7909 12 30V32C12 34.2091 10.2091 36 8 36H4V26ZM6 28V34H8C9.10457 34 10 33.1046 10 32V30C10 28.8954 9.10457 28 8 28H6Z" fill="black"/>
<path d="M14 26H12L15 36H17L19 29.3333L21 36H23L26 26H24L22 32.6667L20 26H18L16 32.6667L14 26Z" fill="black"/>
<path d="M26 29C26 27.3431 27.3431 26 29 26H31C32.6569 26 34 27.3431 34 29H32C32 28.4477 31.5523 28 31 28H29C28.4477 28 28 28.4477 28 29V33C28 33.5523 28.4477 34 29 34H31C31.5523 34 32 33.5523 32 33V32H34V36H32V35.8293C31.6872 35.9398 31.3506 36 31 36H29C27.3431 36 26 34.6569 26 33V29Z" fill="black"/>
</svg>
