<svg width="44" height="48" viewBox="0 0 44 48" fill="none" xmlns="http://www.w3.org/2000/svg">
<path fill-rule="evenodd" clip-rule="evenodd" d="M44 46C44 47.1 43.06 48 41.88 48H10.12C8.94 48 8 47.1 8 46V2C8 0.899994 8.94 0 10.12 0H32L44 12V46Z" fill="#E0E0E0"/>
<path d="M44 12L32 0V11C32 11.5523 32.4477 12 33 12H44Z" fill="#FF306E"/>
<path d="M0 24C0 22.8954 0.895431 22 2 22H38C39.1046 22 40 22.8954 40 24V38C40 39.1046 39.1046 40 38 40H2C0.895432 40 0 39.1046 0 38V24Z" fill="#FF306E"/>
<path fill-rule="evenodd" clip-rule="evenodd" d="M6 26H4V36H6V26ZM9.9999 26H10V26.0002L14 32.2859V26H16V36H14V35.9999L13.9999 36L10 29.7144V36H8V26H9.9999ZM22 26H18V36H22C24.2091 36 26 34.2091 26 32V30C26 27.7909 24.2091 26 22 26ZM20 34V28H22C23.1046 28 24 28.8954 24 30V32C24 33.1046 23.1046 34 22 34H20ZM32 26H28V36H32C34.2091 36 36 34.2091 36 32V30C36 27.7909 34.2091 26 32 26ZM30 34V28H32C33.1046 28 34 28.8954 34 30V32C34 33.1046 33.1046 34 32 34H30Z" fill="white"/>
</svg>
