<svg width="36" height="48" viewBox="0 0 36 48" fill="none" xmlns="http://www.w3.org/2000/svg">
<path fill-rule="evenodd" clip-rule="evenodd" d="M36 46C36 47.1 35.06 48 33.88 48H2.12C0.940002 48 0 47.1 0 46V2C0 0.899994 0.940002 0 2.12 0H24L36 12V46Z" fill="#E0E0E0"/>
<path d="M36 12L24 0V11C24 11.5523 24.4477 12 25 12H36Z" fill="#FF306E"/>
<path fill-rule="evenodd" clip-rule="evenodd" d="M15 16C16.6569 16 18 14.6569 18 13C18 11.3431 16.6569 10 15 10C13.3431 10 12 11.3431 12 13C12 14.6569 13.3431 16 15 16ZM6.24508 26.2345L11.1257 20.2371C11.5168 19.7566 12.2292 19.7053 12.6844 20.1248L16.5378 23.6761L22.5189 14.489C22.9801 13.7805 24.0358 13.8561 24.3925 14.6232L29.8975 26.4612C30.2308 27.1779 29.7105 28 28.9235 28H7.07724C6.17017 28 5.67069 26.9403 6.24508 26.2345Z" fill="#828282"/>
<path fill-rule="evenodd" clip-rule="evenodd" d="M4 32H2V42H4V32ZM6 32H8V32L8.00002 32L12 38.2857V32H14V42H12H12V42L8 35.7142V42H6V32ZM20 32H16V42H20C22.2091 42 24 40.2091 24 38V36C24 33.7909 22.2091 32 20 32ZM18 40V34H20C21.1046 34 22 34.8954 22 36V38C22 39.1046 21.1046 40 20 40H18ZM30 32H26V42H30C32.2091 42 34 40.2091 34 38V36C34 33.7909 32.2091 32 30 32ZM28 40V34H30C31.1046 34 32 34.8954 32 36V38C32 39.1046 31.1046 40 30 40H28Z" fill="#FF306E"/>
</svg>
