<svg style="display:none;" xmlns="http://www.w3.org/2000/svg">

  <symbol id="icons-01" viewBox="0 0 48 48">
    <path
      fill-rule="evenodd"
      clip-rule="evenodd"
      d="M48 46C48 47.1 47.06 48 45.88 48H14.12C12.94 48 12 47.1 12 46V2C12 0.899994 12.94 0 14.12 0H36L48 12V46Z"
      fill="#E0E0E0"
    />
    <path
      d="M48 12L36 0V11C36 11.5523 36.4477 12 37 12H48Z"
      fill="#2F80ED"
    />
    <path
      d="M0 24C0 22.8954 1.04467 22 2.33333 22H39.6667C40.9553 22 42 22.8954 42 24V38C42 39.1046 40.9553 40 39.6667 40H2.33333C1.04467 40 0 39.1046 0 38V24Z"
      fill="#2F80ED"
    />
    <path
      fill-rule="evenodd"
      clip-rule="evenodd"
      d="M6 26H2V36H6C8.20914 36 10 34.2091 10 32V30C10 27.7909 8.20914 26 6 26ZM4 34V28H6C7.10457 28 8 28.8954 8 30V32C8 33.1046 7.10457 34 6 34H4Z"
      fill="white"
    />
    <path
      fill-rule="evenodd"
      clip-rule="evenodd"
      d="M12 29C12 27.3431 13.3431 26 15 26H17C18.6569 26 20 27.3431 20 29V33C20 34.6569 18.6569 36 17 36H15C13.3431 36 12 34.6569 12 33V29ZM15 28H17C17.5523 28 18 28.4477 18 29V33C18 33.5523 17.5523 34 17 34H15C14.4477 34 14 33.5523 14 33V29C14 28.4477 14.4477 28 15 28Z"
      fill="white"
    />
    <path
      d="M22 29C22 27.3431 23.3431 26 25 26H27C28.6569 26 30 27.3431 30 29H28C28 28.4477 27.5523 28 27 28H25C24.4477 28 24 28.4477 24 29V33C24 33.5523 24.4477 34 25 34H27C27.5523 34 28 33.5523 28 33H30C30 34.6569 28.6569 36 27 36H25C23.3431 36 22 34.6569 22 33V29Z"
      fill="white"
    />
    <path
      d="M32 26H34L36 29.3333L38 26H40L37 31L40 36H38L36 32.6667L34 36H32L35 31L32 26Z"
      fill="white"
    />
  </symbol>

  <symbol id="icons-02">
    <path
      fill-rule="evenodd"
      clip-rule="evenodd"
      d="M44 46C44 47.1 43.06 48 41.88 48H10.12C8.94 48 8 47.1 8 46V2C8 0.899994 8.94 0 10.12 0H32L44 12V46Z"
      fill="#E0E0E0"
    />
    <path
      d="M44 12L32 0V11C32 11.5523 32.4477 12 33 12H44Z"
      fill="#C40000"
    />
    <path
      d="M0 24C0 22.8954 0.895431 22 2 22H18C19.1046 22 20 22.8954 20 24V38C20 39.1046 19.1046 40 18 40H2C0.895432 40 0 39.1046 0 38V24Z"
      fill="#C40000"
    />
    <path
      fill-rule="evenodd"
      clip-rule="evenodd"
      d="M6 26H11C12.6569 26 14 27.3431 14 29C14 30.6569 12.6569 32 11 32H8V36H6V26ZM8 30H11C11.5523 30 12 29.5523 12 29C12 28.4477 11.5523 28 11 28H8V30Z"
      fill="white"
    />
    <path
      fill-rule="evenodd"
      clip-rule="evenodd"
      d="M39.9451 26C39.4476 30.5 35.6326 34 31 34C26.0294 34 22 29.9706 22 25C22 20.3674 25.5 16.5524 30 16.0549V26H39.9451Z"
      fill="#828282"
    />
    <path
      d="M39.9451 24H32V16.0547C36.1716 16.5156 39.4839 19.8281 39.9451 24Z"
      fill="#C40000"
    />
    <rect x="22" y="36" width="18" height="2" fill="#C40000" />
    <rect x="22" y="40" width="18" height="2" fill="#C40000" />
  </symbol>
</svg>