<svg width="60" height="60" viewBox="0 0 60 60" fill="none" xmlns="http://www.w3.org/2000/svg">
<path d="M18.0881 9.99109C18.0617 10.0651 18.0412 10.1412 18.0266 10.2196C18.009 10.3104 18.0002 10.4042 18.0002 10.5001C18.0002 11.3285 18.6711 12.0001 19.5002 12.0001H40.5005C41.3296 12.0001 42.0005 11.3285 42.0005 10.5001C42.0005 9.67175 41.3296 9.00011 40.5005 9.00011H19.5002C19.2161 9.00011 18.9524 9.07848 18.7268 9.21471C18.4338 9.39123 18.2053 9.66516 18.0881 9.99109Z" fill="black"/>
<path d="M18.0881 9.99109C18.0617 10.0651 18.0412 10.1412 18.0266 10.2196C18.009 10.3104 18.0002 10.4042 18.0002 10.5001C18.0002 11.3285 18.6711 12.0001 19.5002 12.0001H40.5005C41.3296 12.0001 42.0005 11.3285 42.0005 10.5001C42.0005 9.67175 41.3296 9.00011 40.5005 9.00011H19.5002C19.2161 9.00011 18.9524 9.07848 18.7268 9.21471C18.4338 9.39123 18.2053 9.66516 18.0881 9.99109Z" fill="url(#paint0_linear_168_2)"/>
<path d="M18.0002 16.5002C18.0002 15.6718 18.6711 15.0002 19.5002 15.0002H40.5005C41.3296 15.0002 42.0005 15.6718 42.0005 16.5002C42.0005 16.8789 41.8599 17.2246 41.6284 17.489C41.353 17.8025 40.9517 18.0002 40.5005 18.0002H19.5002C18.6711 18.0002 18.0002 17.3286 18.0002 16.5002Z" fill="black"/>
<path d="M18.0002 16.5002C18.0002 15.6718 18.6711 15.0002 19.5002 15.0002H40.5005C41.3296 15.0002 42.0005 15.6718 42.0005 16.5002C42.0005 16.8789 41.8599 17.2246 41.6284 17.489C41.353 17.8025 40.9517 18.0002 40.5005 18.0002H19.5002C18.6711 18.0002 18.0002 17.3286 18.0002 16.5002Z" fill="url(#paint1_linear_168_2)"/>
<path d="M19.5002 21.0003C18.6711 21.0003 18.0002 21.6719 18.0002 22.5003C18.0002 23.3287 18.6711 24.0003 19.5002 24.0003H28.5003C29.3295 24.0003 30.0004 23.3287 30.0004 22.5003C30.0004 21.6719 29.3295 21.0003 28.5003 21.0003H19.5002Z" fill="black"/>
<path d="M19.5002 21.0003C18.6711 21.0003 18.0002 21.6719 18.0002 22.5003C18.0002 23.3287 18.6711 24.0003 19.5002 24.0003H28.5003C29.3295 24.0003 30.0004 23.3287 30.0004 22.5003C30.0004 21.6719 29.3295 21.0003 28.5003 21.0003H19.5002Z" fill="url(#paint2_linear_168_2)"/>
<path fill-rule="evenodd" clip-rule="evenodd" d="M9.00011 7.50009V10.9161L5.97371 12.5209C2.49319 13.7638 0 17.0905 0 20.9995V50.9999C0 55.9702 4.02837 60 9.00011 60H51.0006C55.9724 60 60.0007 55.9702 60.0007 50.9999V20.9995C60.0007 17.0832 57.4987 13.7514 54.0065 12.5143L51.0006 10.9249V7.50009C51.0006 3.3582 47.6432 0 43.5005 0H16.5002C12.3576 0 9.00011 3.3582 9.00011 7.50009ZM16.5002 3.00004C14.0158 3.00004 12.0001 5.01495 12.0001 7.50009V21.8784L26.8187 36.6963C27.7064 37.5854 28.8754 38.0249 30.0385 38.0146C31.1781 38.0044 32.3119 37.5649 33.182 36.6963L48.0006 21.8784V7.50009C48.0006 5.01495 45.9849 3.00004 43.5005 3.00004H16.5002ZM6.01472 15.8937L9.00011 14.3139V18.8791L6.01472 15.8937ZM51.0006 18.8791V14.3139L53.986 15.8937L51.0006 18.8791ZM3.83208 17.9511C3.3018 18.8447 3.00004 19.887 3.00004 20.9995V50.9999C3.00004 51.2782 3.02054 51.5521 3.05863 51.8202C3.09965 52.1168 3.16117 52.4062 3.2432 52.6881L3.32524 52.9474C3.45707 53.3334 3.627 53.7018 3.83208 54.0475L21.8792 35.9997L3.83208 17.9511ZM9.00011 57C8.38487 57 7.79013 56.9069 7.23056 56.7348L6.93466 56.6345C6.59188 56.5085 6.26375 56.3525 5.9532 56.1694L24.0003 38.1208L24.6976 38.8181C27.6273 41.7471 32.3734 41.7471 35.3032 38.8181L36.0004 38.1208L54.0475 56.1694C53.1569 56.6967 52.1139 57 51.0006 57H9.00011ZM56.1687 54.0475L38.1216 35.9997L56.1687 17.9519C56.6989 18.8447 57.0007 19.887 57.0007 20.9995V50.9999C57.0007 51.2936 56.9802 51.5822 56.9392 51.8642C56.8952 52.1784 56.8249 52.4845 56.7312 52.7812C56.5935 53.2279 56.403 53.652 56.1687 54.0475Z" fill="black"/>
<path fill-rule="evenodd" clip-rule="evenodd" d="M9.00011 7.50009V10.9161L5.97371 12.5209C2.49319 13.7638 0 17.0905 0 20.9995V50.9999C0 55.9702 4.02837 60 9.00011 60H51.0006C55.9724 60 60.0007 55.9702 60.0007 50.9999V20.9995C60.0007 17.0832 57.4987 13.7514 54.0065 12.5143L51.0006 10.9249V7.50009C51.0006 3.3582 47.6432 0 43.5005 0H16.5002C12.3576 0 9.00011 3.3582 9.00011 7.50009ZM16.5002 3.00004C14.0158 3.00004 12.0001 5.01495 12.0001 7.50009V21.8784L26.8187 36.6963C27.7064 37.5854 28.8754 38.0249 30.0385 38.0146C31.1781 38.0044 32.3119 37.5649 33.182 36.6963L48.0006 21.8784V7.50009C48.0006 5.01495 45.9849 3.00004 43.5005 3.00004H16.5002ZM6.01472 15.8937L9.00011 14.3139V18.8791L6.01472 15.8937ZM51.0006 18.8791V14.3139L53.986 15.8937L51.0006 18.8791ZM3.83208 17.9511C3.3018 18.8447 3.00004 19.887 3.00004 20.9995V50.9999C3.00004 51.2782 3.02054 51.5521 3.05863 51.8202C3.09965 52.1168 3.16117 52.4062 3.2432 52.6881L3.32524 52.9474C3.45707 53.3334 3.627 53.7018 3.83208 54.0475L21.8792 35.9997L3.83208 17.9511ZM9.00011 57C8.38487 57 7.79013 56.9069 7.23056 56.7348L6.93466 56.6345C6.59188 56.5085 6.26375 56.3525 5.9532 56.1694L24.0003 38.1208L24.6976 38.8181C27.6273 41.7471 32.3734 41.7471 35.3032 38.8181L36.0004 38.1208L54.0475 56.1694C53.1569 56.6967 52.1139 57 51.0006 57H9.00011ZM56.1687 54.0475L38.1216 35.9997L56.1687 17.9519C56.6989 18.8447 57.0007 19.887 57.0007 20.9995V50.9999C57.0007 51.2936 56.9802 51.5822 56.9392 51.8642C56.8952 52.1784 56.8249 52.4845 56.7312 52.7812C56.5935 53.2279 56.403 53.652 56.1687 54.0475Z" fill="url(#paint3_linear_168_2)"/>
<defs>
<linearGradient id="paint0_linear_168_2" x1="31.429" y1="28.5714" x2="0.000384706" y2="60.0004" gradientUnits="userSpaceOnUse">
<stop stop-color="#FF4930"/>
<stop offset="1" stop-color="#FF3030"/>
</linearGradient>
<linearGradient id="paint1_linear_168_2" x1="31.429" y1="28.5714" x2="0.000384706" y2="60.0004" gradientUnits="userSpaceOnUse">
<stop stop-color="#FF4930"/>
<stop offset="1" stop-color="#FF3030"/>
</linearGradient>
<linearGradient id="paint2_linear_168_2" x1="31.429" y1="28.5714" x2="0.000384706" y2="60.0004" gradientUnits="userSpaceOnUse">
<stop stop-color="#FF4930"/>
<stop offset="1" stop-color="#FF3030"/>
</linearGradient>
<linearGradient id="paint3_linear_168_2" x1="31.429" y1="28.5714" x2="0.000384706" y2="60.0004" gradientUnits="userSpaceOnUse">
<stop stop-color="#FF4930"/>
<stop offset="1" stop-color="#FF3030"/>
</linearGradient>
</defs>
</svg>
