<svg width="60" height="60" viewBox="0 0 60 60" fill="none" xmlns="http://www.w3.org/2000/svg">
<path d="M11.6937 0.591665C11.192 -0.0675654 10.2509 -0.195266 9.59167 0.306438C5.38829 3.5054 3.32545 5.56726 0.300195 9.59994C-0.19694 10.2626 -0.062737 11.2028 0.599945 11.7C1.26263 12.1971 2.20285 12.0629 2.69998 11.4002C5.5508 7.60007 7.41453 5.73332 11.4085 2.69372C12.0677 2.19202 12.1954 1.2509 11.6937 0.591665Z" fill="black"/>
<path d="M11.6937 0.591665C11.192 -0.0675654 10.2509 -0.195266 9.59167 0.306438C5.38829 3.5054 3.32545 5.56726 0.300195 9.59994C-0.19694 10.2626 -0.062737 11.2028 0.599945 11.7C1.26263 12.1971 2.20285 12.0629 2.69998 11.4002C5.5508 7.60007 7.41453 5.73332 11.4085 2.69372C12.0677 2.19202 12.1954 1.2509 11.6937 0.591665Z" fill="url(#paint0_linear_168_5)"/>
<path d="M50.4087 0.306438C49.7494 -0.195266 48.8083 -0.0675654 48.3066 0.591665C47.8049 1.2509 47.9326 2.19202 48.5918 2.69372C52.5858 5.73332 54.4495 7.60007 57.3004 11.4002C57.7975 12.0629 58.7377 12.1971 59.4004 11.7C60.0631 11.2028 60.1973 10.2626 59.7001 9.59994C56.6749 5.56726 54.612 3.5054 50.4087 0.306438Z" fill="black"/>
<path d="M50.4087 0.306438C49.7494 -0.195266 48.8083 -0.0675654 48.3066 0.591665C47.8049 1.2509 47.9326 2.19202 48.5918 2.69372C52.5858 5.73332 54.4495 7.60007 57.3004 11.4002C57.7975 12.0629 58.7377 12.1971 59.4004 11.7C60.0631 11.2028 60.1973 10.2626 59.7001 9.59994C56.6749 5.56726 54.612 3.5054 50.4087 0.306438Z" fill="url(#paint1_linear_168_5)"/>
<path fill-rule="evenodd" clip-rule="evenodd" d="M30 36C33.3137 36 36 33.3137 36 30C36 28.8873 35.6971 27.8453 35.1693 26.952L41.5607 20.5607C42.1464 19.9749 42.1464 19.0251 41.5607 18.4393C40.9749 17.8536 40.0251 17.8536 39.4393 18.4393L33.048 24.8307C32.1547 24.3029 31.1127 24 30 24C28.8873 24 27.8453 24.3029 26.952 24.8307L14.5607 12.4393C13.9749 11.8536 13.0251 11.8536 12.4393 12.4393C11.8536 13.0251 11.8536 13.9749 12.4393 14.5607L24.8307 26.952C24.3029 27.8453 24 28.8873 24 30C24 33.3137 26.6863 36 30 36ZM30 33C31.6569 33 33 31.6569 33 30C33 28.3431 31.6569 27 30 27C28.3431 27 27 28.3431 27 30C27 31.6569 28.3431 33 30 33Z" fill="black"/>
<path fill-rule="evenodd" clip-rule="evenodd" d="M30 36C33.3137 36 36 33.3137 36 30C36 28.8873 35.6971 27.8453 35.1693 26.952L41.5607 20.5607C42.1464 19.9749 42.1464 19.0251 41.5607 18.4393C40.9749 17.8536 40.0251 17.8536 39.4393 18.4393L33.048 24.8307C32.1547 24.3029 31.1127 24 30 24C28.8873 24 27.8453 24.3029 26.952 24.8307L14.5607 12.4393C13.9749 11.8536 13.0251 11.8536 12.4393 12.4393C11.8536 13.0251 11.8536 13.9749 12.4393 14.5607L24.8307 26.952C24.3029 27.8453 24 28.8873 24 30C24 33.3137 26.6863 36 30 36ZM30 33C31.6569 33 33 31.6569 33 30C33 28.3431 31.6569 27 30 27C28.3431 27 27 28.3431 27 30C27 31.6569 28.3431 33 30 33Z" fill="url(#paint2_linear_168_5)"/>
<path d="M54.0024 48C57.7685 42.986 60.0002 36.7536 60.0002 30C60.0002 13.4315 46.5687 1.14028e-08 30.0002 1.14028e-08C13.4316 1.14028e-08 0.000168794 13.4315 0.000168794 30C0.000168794 37.7446 2.93478 44.8038 7.75267 50.1262C8.42415 50.868 9.13212 51.5761 9.87391 52.2476C15.1963 57.0655 22.2556 60 30.0002 60C32.696 60 35.3088 59.6444 37.7942 58.9776C38.5792 58.767 39.0125 57.9426 38.7832 57.1628C38.5451 56.3532 37.6864 55.9041 36.8701 56.1182C34.6766 56.6936 32.3742 57 30.0002 57C15.0885 57 3.00017 44.9117 3.00017 30C3.00017 15.0883 15.0885 3 30.0002 3C44.9119 3 57.0002 15.0883 57.0002 30C57.0002 39.3613 52.236 47.6099 45 52.4535V43.5C45 42.6716 44.3284 42 43.5 42C42.6716 42 42 42.6716 42 43.5V55.5C42 56.3284 42.6716 57 43.5 57H55.5C56.3284 57 57 56.3284 57 55.5C57 54.6716 56.3284 54 55.5 54H48.0031C50.2745 52.2934 52.296 50.2717 54.0024 48Z" fill="black"/>
<path d="M54.0024 48C57.7685 42.986 60.0002 36.7536 60.0002 30C60.0002 13.4315 46.5687 1.14028e-08 30.0002 1.14028e-08C13.4316 1.14028e-08 0.000168794 13.4315 0.000168794 30C0.000168794 37.7446 2.93478 44.8038 7.75267 50.1262C8.42415 50.868 9.13212 51.5761 9.87391 52.2476C15.1963 57.0655 22.2556 60 30.0002 60C32.696 60 35.3088 59.6444 37.7942 58.9776C38.5792 58.767 39.0125 57.9426 38.7832 57.1628C38.5451 56.3532 37.6864 55.9041 36.8701 56.1182C34.6766 56.6936 32.3742 57 30.0002 57C15.0885 57 3.00017 44.9117 3.00017 30C3.00017 15.0883 15.0885 3 30.0002 3C44.9119 3 57.0002 15.0883 57.0002 30C57.0002 39.3613 52.236 47.6099 45 52.4535V43.5C45 42.6716 44.3284 42 43.5 42C42.6716 42 42 42.6716 42 43.5V55.5C42 56.3284 42.6716 57 43.5 57H55.5C56.3284 57 57 56.3284 57 55.5C57 54.6716 56.3284 54 55.5 54H48.0031C50.2745 52.2934 52.296 50.2717 54.0024 48Z" fill="url(#paint3_linear_168_5)"/>
<defs>
<linearGradient id="paint0_linear_168_5" x1="31.4287" y1="28.5714" x2="0.000174895" y2="60.0002" gradientUnits="userSpaceOnUse">
<stop stop-color="#FF4930"/>
<stop offset="1" stop-color="#FF3030"/>
</linearGradient>
<linearGradient id="paint1_linear_168_5" x1="31.4287" y1="28.5714" x2="0.000174895" y2="60.0002" gradientUnits="userSpaceOnUse">
<stop stop-color="#FF4930"/>
<stop offset="1" stop-color="#FF3030"/>
</linearGradient>
<linearGradient id="paint2_linear_168_5" x1="31.4287" y1="28.5714" x2="0.000174895" y2="60.0002" gradientUnits="userSpaceOnUse">
<stop stop-color="#FF4930"/>
<stop offset="1" stop-color="#FF3030"/>
</linearGradient>
<linearGradient id="paint3_linear_168_5" x1="31.4287" y1="28.5714" x2="0.000174895" y2="60.0002" gradientUnits="userSpaceOnUse">
<stop stop-color="#FF4930"/>
<stop offset="1" stop-color="#FF3030"/>
</linearGradient>
</defs>
</svg>
