<svg width="39" height="60" viewBox="0 0 39 60" fill="none" xmlns="http://www.w3.org/2000/svg">
<path fill-rule="evenodd" clip-rule="evenodd" d="M19.1711 21.7112L29.0237 2.99125H14.5776L6.57202 27.0006H17.3181C18.1457 27.0006 18.8173 27.6723 18.8173 28.4999C18.8173 28.7877 18.7364 29.0576 18.5924 29.2885L7.44154 50.4372L33.8781 23.999H20.4454C19.6179 23.999 18.9462 23.3244 18.9462 22.4998C18.9462 22.2089 19.0272 21.939 19.1711 21.7112ZM32.8256 2.19363L22.9281 21.0005H37.5001C37.8839 21.0005 38.2706 21.1444 38.5615 21.4383C39.1462 22.023 39.1462 22.9735 38.5615 23.5583L2.55722 59.5648C2.10447 60.0116 1.39385 60.1405 0.80018 59.8286C0.0685805 59.4448 -0.213265 58.5363 0.173523 57.8076L14.8355 29.9991H4.49715C4.34424 29.9931 4.18533 29.9691 4.02941 29.9152C3.24684 29.6573 2.82107 28.8117 3.08193 28.0291L12.065 1.07818C12.2449 0.457477 12.8206 0.00169822 13.5012 0.00169822H31.4284C31.6863 -0.010296 31.9531 0.0406793 32.199 0.172615C32.9306 0.556429 33.2094 1.46199 32.8256 2.19363Z" fill="black"/>
<path fill-rule="evenodd" clip-rule="evenodd" d="M19.1711 21.7112L29.0237 2.99125H14.5776L6.57202 27.0006H17.3181C18.1457 27.0006 18.8173 27.6723 18.8173 28.4999C18.8173 28.7877 18.7364 29.0576 18.5924 29.2885L7.44154 50.4372L33.8781 23.999H20.4454C19.6179 23.999 18.9462 23.3244 18.9462 22.4998C18.9462 22.2089 19.0272 21.939 19.1711 21.7112ZM32.8256 2.19363L22.9281 21.0005H37.5001C37.8839 21.0005 38.2706 21.1444 38.5615 21.4383C39.1462 22.023 39.1462 22.9735 38.5615 23.5583L2.55722 59.5648C2.10447 60.0116 1.39385 60.1405 0.80018 59.8286C0.0685805 59.4448 -0.213265 58.5363 0.173523 57.8076L14.8355 29.9991H4.49715C4.34424 29.9931 4.18533 29.9691 4.02941 29.9152C3.24684 29.6573 2.82107 28.8117 3.08193 28.0291L12.065 1.07818C12.2449 0.457477 12.8206 0.00169822 13.5012 0.00169822H31.4284C31.6863 -0.010296 31.9531 0.0406793 32.199 0.172615C32.9306 0.556429 33.2094 1.46199 32.8256 2.19363Z" fill="url(#paint0_linear_168_6)"/>
<defs>
<linearGradient id="paint0_linear_168_6" x1="20.4286" y1="28.5714" x2="-8.2935" y2="47.2408" gradientUnits="userSpaceOnUse">
<stop stop-color="#FF4930"/>
<stop offset="1" stop-color="#FF3030"/>
</linearGradient>
</defs>
</svg>
