<svg width="60" height="60" viewBox="0 0 60 60" fill="none" xmlns="http://www.w3.org/2000/svg">
<path fill-rule="evenodd" clip-rule="evenodd" d="M24.7688 2.16007L23.7608 5.07161e-05C19.93 0.792657 16.3608 2.30055 13.1992 4.37788L14.013 6.61556C14.7792 8.72327 14.2557 11.0842 12.6697 12.6698C11.084 14.2558 8.72313 14.7794 6.61505 14.0131L4.37774 13.1994C2.30045 16.361 0.79258 19.9302 0 23.761L2.15992 24.7689C4.19208 25.7177 5.49126 27.7573 5.49126 30C5.49126 32.2427 4.19208 34.2823 2.15992 35.2311L0 36.239C0.792584 40.0698 2.30046 43.639 4.37777 46.8006L6.61542 45.9869C8.72313 45.2206 11.084 45.7442 12.6697 47.3302C14.2557 48.9159 14.7792 51.2767 14.013 53.3848L13.1993 55.6222C16.3609 57.6995 19.93 59.2073 23.7608 60L24.7688 57.8399C25.7175 55.8078 27.7572 54.5086 29.9999 54.5086C32.2426 54.5086 34.2822 55.8078 35.231 57.8399L36.239 60C40.0698 59.2074 43.6389 57.6996 46.8005 55.6223L45.9868 53.3848C45.2205 51.2767 45.7441 48.9159 47.3301 47.3302C48.9157 45.7442 51.2766 45.2206 53.3843 45.9869L55.6222 46.8007C57.6995 43.6391 59.2074 40.0699 60 36.2391L57.8398 35.2311C55.8077 34.2823 54.5085 32.2427 54.5085 30C54.5085 27.7573 55.8077 25.7177 57.8398 24.7689L60 23.7609C59.2074 19.9301 57.6995 16.361 55.6222 13.1994L53.3847 14.0131C51.2766 14.7794 48.9157 14.2558 47.3301 12.6698C45.7441 11.0842 45.2205 8.72327 45.9868 6.61556L46.8006 4.37773C43.639 2.30044 40.0698 0.792574 36.239 0L35.231 2.16007C34.2822 4.19223 32.2426 5.49141 29.9999 5.49141C27.7572 5.49141 25.7175 4.19223 24.7688 2.16007ZM37.9438 3.58853C36.4657 6.62255 33.3841 8.55498 29.9999 8.55498C26.6157 8.55498 23.5341 6.62258 22.056 3.5886C20.2686 4.1254 18.5571 4.83897 16.9419 5.70931C18.0413 8.89904 17.2287 12.4434 14.8362 14.8358C14.8361 14.8359 14.836 14.836 14.8359 14.8361C14.8358 14.8361 14.8358 14.8362 14.8357 14.8363C12.4433 17.2289 8.899 18.0413 5.70916 16.9422C4.83885 18.5574 4.12532 20.2688 3.58854 22.0562C6.62247 23.5342 8.55484 26.6158 8.55484 30C8.55484 33.3842 6.62247 36.4658 3.58854 37.9438C4.12533 39.7313 4.83889 41.4427 5.70922 43.0579C8.89894 41.9585 12.4433 42.7712 14.8357 45.1637C14.8358 45.1638 14.8358 45.1639 14.8359 45.1639C14.836 45.164 14.8361 45.1641 14.8362 45.1642C17.2288 47.5566 18.0412 51.1009 16.942 54.2908C18.5572 55.1611 20.2686 55.8746 22.056 56.4114C23.5341 53.3774 26.6157 51.445 29.9999 51.445C33.3841 51.445 36.4657 53.3775 37.9438 56.4115C39.7312 55.8747 41.4426 55.1612 43.0578 54.2909C41.9584 51.1008 42.7711 47.5561 45.1641 45.1637C47.5565 42.7711 51.101 41.9585 54.2908 43.058C55.1611 41.4428 55.8747 39.7314 56.4115 37.9439C53.3774 36.4659 51.4449 33.3843 51.4449 30C51.4449 26.6157 53.3774 23.5341 56.4114 22.0561C55.8747 20.2687 55.1611 18.5573 54.2908 16.9421C51.1009 18.0414 47.5565 17.229 45.1641 14.8363C42.7711 12.4439 41.9583 8.89918 43.0579 5.70919C41.4427 4.83886 39.7312 4.12532 37.9438 3.58853ZM42.2543 30C42.2543 36.7679 36.7679 42.2543 30 42.2543C23.2321 42.2543 17.7457 36.7679 17.7457 30C17.7457 23.2321 23.2321 17.7457 30 17.7457C36.7679 17.7457 42.2543 23.2321 42.2543 30ZM30 39.1907C35.0759 39.1907 39.1907 35.0759 39.1907 30C39.1907 24.9241 35.0759 20.8093 30 20.8093C24.9241 20.8093 20.8093 24.9241 20.8093 30C20.8093 35.0759 24.9241 39.1907 30 39.1907Z" fill="black"/>
<path fill-rule="evenodd" clip-rule="evenodd" d="M24.7688 2.16007L23.7608 5.07161e-05C19.93 0.792657 16.3608 2.30055 13.1992 4.37788L14.013 6.61556C14.7792 8.72327 14.2557 11.0842 12.6697 12.6698C11.084 14.2558 8.72313 14.7794 6.61505 14.0131L4.37774 13.1994C2.30045 16.361 0.79258 19.9302 0 23.761L2.15992 24.7689C4.19208 25.7177 5.49126 27.7573 5.49126 30C5.49126 32.2427 4.19208 34.2823 2.15992 35.2311L0 36.239C0.792584 40.0698 2.30046 43.639 4.37777 46.8006L6.61542 45.9869C8.72313 45.2206 11.084 45.7442 12.6697 47.3302C14.2557 48.9159 14.7792 51.2767 14.013 53.3848L13.1993 55.6222C16.3609 57.6995 19.93 59.2073 23.7608 60L24.7688 57.8399C25.7175 55.8078 27.7572 54.5086 29.9999 54.5086C32.2426 54.5086 34.2822 55.8078 35.231 57.8399L36.239 60C40.0698 59.2074 43.6389 57.6996 46.8005 55.6223L45.9868 53.3848C45.2205 51.2767 45.7441 48.9159 47.3301 47.3302C48.9157 45.7442 51.2766 45.2206 53.3843 45.9869L55.6222 46.8007C57.6995 43.6391 59.2074 40.0699 60 36.2391L57.8398 35.2311C55.8077 34.2823 54.5085 32.2427 54.5085 30C54.5085 27.7573 55.8077 25.7177 57.8398 24.7689L60 23.7609C59.2074 19.9301 57.6995 16.361 55.6222 13.1994L53.3847 14.0131C51.2766 14.7794 48.9157 14.2558 47.3301 12.6698C45.7441 11.0842 45.2205 8.72327 45.9868 6.61556L46.8006 4.37773C43.639 2.30044 40.0698 0.792574 36.239 0L35.231 2.16007C34.2822 4.19223 32.2426 5.49141 29.9999 5.49141C27.7572 5.49141 25.7175 4.19223 24.7688 2.16007ZM37.9438 3.58853C36.4657 6.62255 33.3841 8.55498 29.9999 8.55498C26.6157 8.55498 23.5341 6.62258 22.056 3.5886C20.2686 4.1254 18.5571 4.83897 16.9419 5.70931C18.0413 8.89904 17.2287 12.4434 14.8362 14.8358C14.8361 14.8359 14.836 14.836 14.8359 14.8361C14.8358 14.8361 14.8358 14.8362 14.8357 14.8363C12.4433 17.2289 8.899 18.0413 5.70916 16.9422C4.83885 18.5574 4.12532 20.2688 3.58854 22.0562C6.62247 23.5342 8.55484 26.6158 8.55484 30C8.55484 33.3842 6.62247 36.4658 3.58854 37.9438C4.12533 39.7313 4.83889 41.4427 5.70922 43.0579C8.89894 41.9585 12.4433 42.7712 14.8357 45.1637C14.8358 45.1638 14.8358 45.1639 14.8359 45.1639C14.836 45.164 14.8361 45.1641 14.8362 45.1642C17.2288 47.5566 18.0412 51.1009 16.942 54.2908C18.5572 55.1611 20.2686 55.8746 22.056 56.4114C23.5341 53.3774 26.6157 51.445 29.9999 51.445C33.3841 51.445 36.4657 53.3775 37.9438 56.4115C39.7312 55.8747 41.4426 55.1612 43.0578 54.2909C41.9584 51.1008 42.7711 47.5561 45.1641 45.1637C47.5565 42.7711 51.101 41.9585 54.2908 43.058C55.1611 41.4428 55.8747 39.7314 56.4115 37.9439C53.3774 36.4659 51.4449 33.3843 51.4449 30C51.4449 26.6157 53.3774 23.5341 56.4114 22.0561C55.8747 20.2687 55.1611 18.5573 54.2908 16.9421C51.1009 18.0414 47.5565 17.229 45.1641 14.8363C42.7711 12.4439 41.9583 8.89918 43.0579 5.70919C41.4427 4.83886 39.7312 4.12532 37.9438 3.58853ZM42.2543 30C42.2543 36.7679 36.7679 42.2543 30 42.2543C23.2321 42.2543 17.7457 36.7679 17.7457 30C17.7457 23.2321 23.2321 17.7457 30 17.7457C36.7679 17.7457 42.2543 23.2321 42.2543 30ZM30 39.1907C35.0759 39.1907 39.1907 35.0759 39.1907 30C39.1907 24.9241 35.0759 20.8093 30 20.8093C24.9241 20.8093 20.8093 24.9241 20.8093 30C20.8093 35.0759 24.9241 39.1907 30 39.1907Z" fill="url(#paint0_linear_168_7)"/>
<defs>
<linearGradient id="paint0_linear_168_7" x1="31.4286" y1="28.5714" x2="1.05372e-06" y2="60" gradientUnits="userSpaceOnUse">
<stop stop-color="#FF4930"/>
<stop offset="1" stop-color="#FF3030"/>
</linearGradient>
</defs>
</svg>
