<?xml version="1.0" standalone="no"?>
<!DOCTYPE svg PUBLIC "-//W3C//DTD SVG 1.1//EN" "http://www.w3.org/Graphics/SVG/1.1/DTD/svg11.dtd" >
<svg>
<metadata>
Created by FontForge 20090914 at Tue Dec  7 18:30:13 2021
 By www-data
Copyright 2019 The Manrope Project Authors (https://github.com/sharanda/manrope)
</metadata>
<defs>
<font id="Manrope-SemiBold" horiz-adv-x="1230" >
  <font-face 
    font-family="Manrope SemiBold"
    font-weight="600"
    font-stretch="normal"
    units-per-em="2000"
    panose-1="0 0 0 0 0 0 0 0 0 0"
    ascent="1600"
    descent="-400"
    x-height="1080"
    cap-height="1440"
    bbox="-324 -590.002 2508 2340.56"
    underline-thickness="50"
    underline-position="-75"
    unicode-range="U+000D-U+FB02"
  />
<missing-glyph horiz-adv-x="1480" 
d="M200 1414v26h1080v-26h-1080zM200 1298v32h1080v-32h-1080zM200 1184v36h1080v-36h-1080zM200 1066v42h1080v-42h-1080zM200 952v44h1080v-44h-1080zM200 838v48h1080v-48h-1080zM200 720v56h1080v-56h-1080zM200 606v60h1080v-60h-1080zM200 490v66h1080v-66h-1080z
M200 374v70h1080v-70h-1080zM200 260v74h1080v-74h-1080zM200 144v80h1080v-80h-1080zM200 0v114h1080v-114h-1080z" />
    <glyph glyph-name="parenleft_c_parenright.liga" unicode="&#x28;c&#x29;" horiz-adv-x="1917" 
d="M959 -97c-110.667 0 -214.167 20.667 -310.5 62s-181.166 98.666 -254.499 171.999s-130.666 158.333 -171.999 255s-62 200 -62 310s20.667 213.333 62 310s98.666 181.667 171.999 255s158.166 130.666 254.499 171.999s199.833 62 310.5 62
c110 0 213.333 -20.667 310 -62s181.5 -98.666 254.5 -171.999s130.167 -158.333 171.5 -255s62 -200 62 -310s-20.667 -213.333 -62 -310s-98.5 -181.667 -171.5 -255s-157.833 -130.666 -254.5 -171.999s-200 -62 -310 -62zM959 102c82.667 0 160.167 15.5 232.5 46.5
s136 74 191 129s98 118.833 129 191.5s46.5 150.667 46.5 234c0 82.667 -15.5 160.167 -46.5 232.5s-74 136 -129 191s-118.667 98 -191 129s-149.833 46.5 -232.5 46.5c-83.333 0 -161.333 -15.5 -234 -46.5s-136.5 -74 -191.5 -129s-98 -118.667 -129 -191
s-46.5 -149.833 -46.5 -232.5c0 -83.333 15.5 -161.333 46.5 -234s74 -136.5 129 -191.5s118.833 -98 191.5 -129s150.667 -46.5 234 -46.5zM972 277c-126.667 0 -225.667 43.999 -297 131.999c-34.667 44 -59.167 90.833 -73.5 140.5s-21.5 100.834 -21.5 153.501
c0.666992 54.667 8.5 106.834 23.5 156.501s38.833 94.834 71.5 135.501c36.667 44.667 79.667 78 129 100s108 33 176 33c37.333 0 71.666 -3.83301 102.999 -11.5s63.333 -21.5 96 -41.5c35.333 -21.333 65.833 -48.5 91.5 -81.5s43.834 -71.5 54.501 -115.5l-163 -45
c-14 41.333 -38.333 75.333 -73 102c-32.667 26 -72 39 -118 39c-67.333 0 -122 -26.333 -164 -79c-20 -26 -33.667 -55.833 -41 -89.5s-11 -67.5 -11 -101.5c0 -36 4 -70.667 12 -104s21.333 -63 40 -89c38.667 -52 94 -78 166 -78c50 0 90 12 120 36
c16 13.333 29 27.666 39 42.999s19 32.666 27 51.999l166 -38c-26 -78.667 -69 -139.667 -129 -183c-30 -22 -62.833 -38.5 -98.5 -49.5s-77.5 -16.5 -125.5 -16.5z" />
    <glyph glyph-name="space_less_three_space.liga" unicode="&#x20;&#x3c;&#x33;&#x20;" horiz-adv-x="2326" 
d="M1163 -30c-48 0 -88.6641 17.665 -121.997 52.998l-370 390c-48 52 -80.333 109.333 -97 172s-19.5 124.834 -8.5 186.501s33.667 118 68 169s78.166 92 131.499 123s113.666 46.5 180.999 46.5c74 0 146.333 -23.333 217 -70c38 25.333 75.5 43.333 112.5 54
s71.5 16 103.5 16c68.667 0 129.667 -15.667 183 -47s97 -72.666 131 -123.999s56.333 -108 67 -170s7.66699 -124 -9 -186s-49 -118.667 -97 -170l-369 -390c-32.667 -35.333 -73.334 -53 -122.001 -53zM1163 138.998l370 389c35.333 38 56.333 80.5 63 127.5
s1.5 92.333 -15.5 136s-43 79.667 -78 108s-76.167 42.5 -123.5 42.5c-72.667 0 -144.667 -39.333 -216 -118c-74.667 78.667 -147 118 -217 118c-48 0 -89.5 -14.5 -124.5 -43.5s-60.5 -65.5 -76.5 -109.5s-20.5 -89.5 -13.5 -136.5s28.167 -88.5 63.5 -124.5z" />
    <glyph glyph-name="prnleft_grtr_prnright.liga" unicode="&#x28;&#x3e;&#x29;" horiz-adv-x="2300" 
d="M1150 -270c-136.667 0 -264.834 25.667 -384.501 77s-224.834 122.333 -315.501 213s-161.667 195.834 -213 315.501s-77 247.834 -77 384.501s25.667 264.834 77 384.501s122.333 224.834 213 315.501s195.834 161.667 315.501 213s247.834 77 384.501 77
s264.834 -25.667 384.501 -77s224.834 -122.333 315.501 -213s161.667 -195.834 213 -315.501s77 -247.834 77 -384.501s-25.667 -264.834 -77 -384.501s-122.333 -224.834 -213 -315.501s-195.834 -161.667 -315.501 -213s-247.834 -77 -384.501 -77zM1151 -71
c109.333 0 211.833 20.333 307.5 61s179.667 97.334 252 170.001s128.833 156.834 169.5 252.501s61 198.5 61 308.5c0 109.333 -20.333 211.833 -61 307.5s-97.167 179.667 -169.5 252s-156.333 128.833 -252 169.5s-198.167 61 -307.5 61
c-110 0 -212.833 -20.333 -308.5 -61s-179.834 -97.167 -252.501 -169.5s-129.334 -156.333 -170.001 -252s-61 -198.167 -61 -307.5c0 -110 20.333 -212.833 61 -308.5s97.334 -179.834 170.001 -252.501s156.834 -129.334 252.501 -170.001s198.5 -61 308.5 -61z
M1013 1060l408 -340l-408 -340v680z" />
    <glyph glyph-name="f_f" unicode="ff" horiz-adv-x="1395" 
d="M239 0l0.000976562 912.001h-179v168h179v38c0 41.333 3 86 9 134s26 91 60 129c27.333 30 57.333 51.167 90 63.5s65.167 19.666 97.5 21.999s62.166 3.5 89.499 3.5h136v-172h-126c-50 0 -87 -12.167 -111 -36.5s-36 -58.833 -36 -103.5v-78h273v-168h-273v-912h-209z
M893.001 0.000976562l0.000976562 912.001h-179v168h179v38c0 41.333 3 86 9 134s26 91 60 129c27.333 30 57.333 51.167 90 63.5s65.167 19.666 97.5 21.999s62.166 3.5 89.499 3.5h136v-172h-126c-50 0 -87 -12.167 -111 -36.5s-36 -58.833 -36 -103.5v-78h273v-168h-273
v-912h-209z" />
    <glyph glyph-name="f_f_l" unicode="ffl" horiz-adv-x="1989" 
d="M893 0l0.000976562 912.001h-179v168h179v38c0 41.333 3 86 9 134s26 91 60 129c27.333 30 57.333 51.167 90 63.5s65.167 19.666 97.5 21.999s62.166 3.5 89.499 3.5h136v-172h-126c-50 0 -87 -12.167 -111 -36.5s-36 -58.833 -36 -103.5v-78h518v390h209v-1470h-209
v912h-518v-912h-209zM239.001 0.000976562l0.000976562 912.001h-179v168h179v38c0 41.333 3 86 9 134s26 91 60 129c27.333 30 57.333 51.167 90 63.5s65.167 19.666 97.5 21.999s62.166 3.5 89.499 3.5h136v-172h-126c-50 0 -87 -12.167 -111 -36.5
s-36 -58.833 -36 -103.5v-78h273v-168h-273v-912h-209z" />
    <glyph glyph-name="t_t.liga" unicode="tt" horiz-adv-x="1569" 
d="M758 0c-68 -13.333 -134.5 -19 -199.5 -17s-123.333 14.667 -175 38s-90.5 60 -116.5 110c-23.333 44.667 -35.833 90 -37.5 136s-2.5 98.667 -2.5 158v487h-207v168h207v300h210v-300h321v-168h-321v-477c0 -43.333 0.333008 -81 1 -113s7.66699 -59 21 -81
c24 -41.333 62.167 -65 114.5 -71s113.833 -3.66699 184.5 7v-177zM1483 0c-68 -13.333 -134.5 -19 -199.5 -17s-123.333 14.667 -175 38s-90.5 60 -116.5 110c-23.333 44.667 -35.833 90 -37.5 136s-2.5 98.667 -2.5 158v487h-207v168h207v300h210v-300h321v-168h-321v-477
c0 -43.333 0.333008 -81 1 -113s7.66699 -59 21 -81c24 -41.333 62.167 -65 114.5 -71s113.833 -3.66699 184.5 7v-177z" />
    <glyph glyph-name="fi" unicode="fi" horiz-adv-x="1300" 
d="M239 0l0.000976562 912.001h-179v168h179v38c0 41.333 3 86 9 134s26 91 60 129c27.333 30 57.333 51.167 90 63.5s65.167 19.666 97.5 21.999s62.166 3.5 89.499 3.5h136v-172h-126c-50 0 -87 -12.167 -111 -36.5s-36 -58.833 -36 -103.5v-78h273v-168h-273v-912h-209z
M931.001 1257v203h209v-203h-209zM931.001 0.000976562v1080h209v-1080h-209z" />
    <glyph glyph-name="fl" unicode="fl" horiz-adv-x="1335" 
d="M239 0l0.000976562 912.001h-179v168h179v38c0 41.333 3 86 9 134s26 91 60 129c27.333 30 57.333 51.167 90 63.5s65.167 19.666 97.5 21.999s62.166 3.5 89.499 3.5h136v-172h-126c-50 0 -87 -12.167 -111 -36.5s-36 -58.833 -36 -103.5v-78h518v390h209v-1470h-209
v912h-518v-912h-209z" />
    <glyph glyph-name="hyphen_hyphen.liga" unicode="&#x2d;&#x2d;" horiz-adv-x="1080" 
d="M120 547v168h840v-168h-840z" />
    <glyph glyph-name="hyphen_greater.liga" unicode="&#x2d;&#x3e;" horiz-adv-x="2016" 
d="M280 547v168h1165l-288 288l102 104l477 -477l-477 -477l-102 104l290 290h-1167z" />
    <glyph glyph-name="less_hyphen.liga" unicode="&#x3c;&#x2d;" horiz-adv-x="2016" 
d="M1736 547h-1167l290 -290l-102 -104l-477 477l477 477l102 -104l-288 -288h1165v-168z" />
    <glyph glyph-name=".notdef" horiz-adv-x="1480" 
d="M200 1414v26h1080v-26h-1080zM200 1298v32h1080v-32h-1080zM200 1184v36h1080v-36h-1080zM200 1066v42h1080v-42h-1080zM200 952v44h1080v-44h-1080zM200 838v48h1080v-48h-1080zM200 720v56h1080v-56h-1080zM200 606v60h1080v-60h-1080zM200 490v66h1080v-66h-1080z
M200 374v70h1080v-70h-1080zM200 260v74h1080v-74h-1080zM200 144v80h1080v-80h-1080zM200 0v114h1080v-114h-1080z" />
    <glyph glyph-name="CR" unicode="&#xd;" horiz-adv-x="1200" 
 />
    <glyph glyph-name="space" unicode=" " horiz-adv-x="400" 
 />
    <glyph glyph-name="exclam" unicode="!" horiz-adv-x="689" 
d="M240 360v1080h209v-1080h-209zM240 0v203h209v-203h-209z" />
    <glyph glyph-name="quotedbl" unicode="&#x22;" horiz-adv-x="884" 
d="M120 1080v360h209v-360h-209zM475 1080v360h209v-360h-209z" />
    <glyph glyph-name="numbersign" unicode="#" horiz-adv-x="1855" 
d="M389 1l108 405h-377l53 199h378l69 263h-377l54 197h376l101 375h205l-101 -375h275l101 375h205l-101 -375h377l-52 -197h-378l-71 -263h377l-52 -199h-378l-108 -405h-204l107 405h-275l-108 -405h-204zM755 605h274l71 263h-275z" />
    <glyph glyph-name="dollar" unicode="$" 
d="M518 -199l-0.000976562 178.001c-119.333 19.333 -218.5 67 -297.5 143s-128.167 173 -147.5 291l207 33c20 -85.333 62.667 -153.166 128 -203.499s143.666 -75.5 234.999 -75.5c90 0 163.667 21.667 221 65s86 98.666 86 165.999c0 48 -14.5 87 -43.5 117
s-76.167 55.333 -141.5 76l-338 104c-200 62 -300 182 -300 360c0 111.333 35.167 203.166 105.5 275.499s165.5 116.5 285.5 132.5v176h209v-180c110.667 -19.333 202.334 -64.5 275.001 -135.5s121.334 -163.167 146.001 -276.5l-213 -38c-14 77.333 -50.333 140 -109 188
s-129.667 72.667 -213 74c-78.667 1.33301 -144.5 -17.667 -197.5 -57s-79.5 -89 -79.5 -149c0 -44 17 -81.333 51 -112s87.667 -57 161 -79l265 -77c121.333 -36 209 -84.5 263 -145.5s81 -141.5 81 -241.5c0 -118 -39 -215.833 -117 -293.5s-182.333 -124.5 -313 -140.5
v-175h-209z" />
    <glyph glyph-name="percent" unicode="%" horiz-adv-x="1801" 
d="M480 750c-66 0 -126.167 16.165 -180.5 48.498s-97.833 75.666 -130.5 129.999s-49 114.833 -49 181.5c0 65.333 16.667 125.333 50 180s77.333 98.334 132 131.001s114 49 178 49c66 0 126.167 -16.167 180.5 -48.5s97.833 -75.666 130.5 -129.999
s49 -114.833 49 -181.5s-16.333 -127.167 -49 -181.5s-76.167 -97.666 -130.5 -129.999s-114.5 -48.5 -180.5 -48.5zM320 -0.00195312l-140 140l1301 1300l140 -141zM480 930.998c48 0 89.833 17.833 125.5 53.5s53.5 77.5 53.5 125.5c0 48.667 -17.833 90.667 -53.5 126
s-77.5 53 -125.5 53c-48.667 0 -90.667 -17.667 -126 -53s-53 -77.333 -53 -126c0 -48 17.667 -89.833 53 -125.5s77.333 -53.5 126 -53.5zM1321 -30.002c-66 0 -126.167 16.165 -180.5 48.498s-97.833 75.666 -130.5 129.999s-49 114.833 -49 181.5
c0 65.333 16.667 125.333 50 180s77.333 98.334 132 131.001s114 49 178 49c66 0 126.333 -16.167 181 -48.5s98.167 -75.666 130.5 -129.999s48.5 -114.833 48.5 -181.5s-16.167 -127.167 -48.5 -181.5s-75.833 -97.666 -130.5 -129.999s-115 -48.5 -181 -48.5z
M1321 150.996c48.667 0 90.667 17.833 126 53.5s53 77.5 53 125.5c0 48.667 -17.667 90.667 -53 126s-77.333 53 -126 53c-48 0 -89.667 -17.667 -125 -53s-53 -77.333 -53 -126c0 -48 17.667 -89.833 53 -125.5s77 -53.5 125 -53.5z" />
    <glyph glyph-name="ampersand" unicode="&#x26;" horiz-adv-x="1325" 
d="M613 -30c-80.667 0 -155.998 11.8291 -225.998 35.4961s-128.667 60.834 -176 111.501c-37.333 40.667 -64.666 85.5 -81.999 134.5s-27 101.167 -29 156.5c-0.666992 54 7 106.5 23 157.5s41 96.5 75 136.5c15.333 18 32.166 34 50.499 48s37.166 26.333 56.499 37
c-42.667 46 -75 90.167 -97 132.5s-33 92.833 -33 151.5c0 80.667 21.167 153.5 63.5 218.5s100.833 112.167 175.5 141.5c34 14 68.5 23.5 103.5 28.5s69.5 7.5 103.5 7.5c60 0 118 -8.66699 174 -26s104 -45.666 144 -84.999c25.333 -23.333 46.833 -49.666 64.5 -78.999
s31.167 -59.333 40.5 -90l-206 -48c-11.333 32 -30 59 -56 81c-22 19.333 -47.5 32.5 -76.5 39.5s-57.833 10.5 -86.5 10.5c-47.333 0 -90 -9 -128 -27c-69.333 -33.333 -104 -91 -104 -173c0 -36 6.33301 -65 19 -87s29.667 -45 51 -69c12.667 -14 27.667 -29.167 45 -45.5
l55 -49.5l392 -365c1.33301 14.667 2.33301 30.334 3 47.001s1 32.667 1 48l-1 187h187v-247c0 -42 -1.33301 -79.833 -4 -113.5s-6.66699 -61.167 -12 -82.5l180 -167l-135 -145l-145 138c-30.667 -30.667 -65 -56.5 -103 -77.5s-76.333 -36.5 -115 -46.5
c-32.667 -10 -64.834 -16.667 -96.501 -20s-63.5 -5 -95.5 -5zM619.002 169.996c26.667 0 51.333 1.5 74 4.5s44.334 8.83301 65.001 17.5c28 11.333 50.833 23 68.5 35s32.5 23.667 44.5 35l-410 376c-42.667 -15.333 -77 -38.333 -103 -69
c-30.667 -40 -45.667 -90 -45 -150c0 -32.667 5 -62 15 -88s23.667 -49.333 41 -70c26.667 -32 63.667 -55.167 111 -69.5s93.666 -21.5 138.999 -21.5z" />
    <glyph glyph-name="quotesingle" unicode="'" horiz-adv-x="489" 
d="M120 1080v360h209v-360h-209z" />
    <glyph glyph-name="parenleft" unicode="(" horiz-adv-x="888" 
d="M649 -373c-77.333 90 -144.003 191.501 -200.003 304.501s-98.667 231.667 -128 356s-43 248.5 -41 372.5c-2 124 11.667 248.167 41 372.5s72 243 128 356s122.667 214.5 200 304.5l156 -116c-119.333 -142.667 -204.666 -290.334 -255.999 -443.001
s-77.333 -310.667 -78 -474c0.666992 -162 26.834 -320.167 78.501 -474.5s136.834 -301.833 255.501 -442.5z" />
    <glyph glyph-name="parenright" unicode=")" horiz-adv-x="888" 
d="M239 -373l-156.003 115.999c118.667 140.667 203.834 288.167 255.501 442.5s77.834 312.5 78.501 474.5c-0.666992 163.333 -26.667 321.333 -78 474s-136.666 300.334 -255.999 443.001l156 116c77.333 -90 144 -191.5 200 -304.5s98.667 -231.667 128 -356
s43 -248.5 41 -372.5c2 -124 -11.667 -248.167 -41 -372.5s-72 -243 -128 -356s-122.667 -214.5 -200 -304.5z" />
    <glyph glyph-name="asterisk" unicode="*" horiz-adv-x="911" 
d="M293 745l-152 110l152 186l-233 65l58 179l225 -88l-12 243h188l-12 -243l226 88l58 -179l-234 -65l152 -186l-152 -110l-132 200z" />
    <glyph glyph-name="plus" unicode="+" horiz-adv-x="1147" 
d="M490 267v370h-370v168h370v368h168v-368h369v-168h-369v-370h-168z" />
    <glyph glyph-name="comma" unicode="," horiz-adv-x="581" 
d="M120 -239l13 93c43.333 -3.33301 72.333 9.5 87 38.5s19.667 64.833 15 107.5h-115v241h221v-261c0 -78.667 -18.833 -138 -56.5 -178s-92.5 -53.667 -164.5 -41z" />
    <glyph glyph-name="hyphen" unicode="-" horiz-adv-x="840" 
d="M120 547v168h600v-168h-600z" />
    <glyph glyph-name="period" unicode="." horiz-adv-x="573" 
d="M176 0v221h221v-221h-221z" />
    <glyph glyph-name="slash" unicode="/" horiz-adv-x="835" 
d="M504 1440h211l-384 -1440h-211z" />
    <glyph glyph-name="zero" unicode="0" horiz-adv-x="1284" 
d="M642 -30c-98 0 -184.667 21.5 -260 64.5s-134.5 102.167 -177.5 177.5s-64.5 162 -64.5 260v496c0 98 21.5 184.667 64.5 260s102.167 134.5 177.5 177.5s162 64.5 260 64.5s184.667 -21.5 260 -64.5s134.5 -102.167 177.5 -177.5s64.5 -162 64.5 -260v-496
c0 -98 -21.5 -184.667 -64.5 -260s-102.167 -134.5 -177.5 -177.5s-162 -64.5 -260 -64.5zM642 170c53.333 0 101.833 12.833 145.5 38.5s78.5 60.334 104.5 104.001s39 92.5 39 146.5v524c0 53.333 -13 101.833 -39 145.5s-60.833 78.334 -104.5 104.001
s-92.167 38.5 -145.5 38.5s-101.833 -12.833 -145.5 -38.5s-78.5 -60.334 -104.5 -104.001s-39 -92.167 -39 -145.5v-524c0 -54 13 -102.833 39 -146.5s60.833 -78.334 104.5 -104.001s92.167 -38.5 145.5 -38.5z" />
    <glyph glyph-name="one" unicode="1" horiz-adv-x="844" 
d="M391 0v1210l-271 -165v233l271 162h213v-1440h-213z" />
    <glyph glyph-name="two" unicode="2" horiz-adv-x="1174" 
d="M100 1l1 185.998l627 562c50 44.667 84.333 87.334 103 128.001s28 81.334 28 122.001c0 77.333 -25 142 -75 194s-113.667 78 -191 78c-53.333 0 -100.833 -12.5 -142.5 -37.5s-74.167 -58.167 -97.5 -99.5s-34.666 -86 -33.999 -134h-214
c0 93.333 21 175.166 63 245.499s100.167 125.333 174.5 165s159.166 59.5 254.499 59.5c90.667 0 172 -20.5 244 -61.5s128.833 -97.167 170.5 -168.5s62.5 -152.666 62.5 -243.999c0 -66 -8.66699 -122 -26 -168s-43.333 -88.667 -78 -128s-78 -82 -130 -128l-417 -372
h651v-199h-974z" />
    <glyph glyph-name="three" unicode="3" horiz-adv-x="1144" 
d="M543 -27c-71.333 0 -138.331 13.502 -200.998 40.502s-116.834 65.5 -162.501 115.5s-78.834 109 -99.501 177l202 56c19.333 -62.667 53 -110.334 101 -143.001s101.333 -48.667 160 -48c78.667 1.33301 142.834 27.833 192.501 79.5s74.5 117.167 74.5 196.5
c0 80 -24.833 146 -74.5 198s-114.5 78 -194.5 78c-46 0 -91.333 -12 -136 -36l-98 165l441 389h-611v199h866v-199l-357 -343c78 -10 145.333 -35.833 202 -77.5s100.167 -94.834 130.5 -159.501s45.5 -136 45.5 -214c0 -92 -21.333 -173.667 -64 -245
s-100.334 -127.333 -173.001 -168s-154 -61 -244 -61z" />
    <glyph glyph-name="four" unicode="4" horiz-adv-x="1205" 
d="M750 0v251h-650v198l468 991h239l-468 -991h411v390h212v-390h143v-198h-143v-251h-212z" />
    <glyph glyph-name="five" unicode="5" horiz-adv-x="1167" 
d="M567 -30c-74 0 -142.668 15.168 -206.001 45.501s-117.833 72.333 -163.5 126s-78.167 115.5 -97.5 185.5l201 54c16.667 -64 51.167 -114.833 103.5 -152.5s108.5 -56.5 168.5 -56.5c52.667 0 100.334 12.833 143.001 38.5s76.667 59.667 102 102s38 89.166 38 140.499
c0 52.667 -12.833 100.334 -38.5 143.001s-60 76.5 -103 101.5s-90.167 37.5 -141.5 37.5c-59.333 0 -109.166 -11.833 -149.499 -35.5s-71.833 -50.5 -94.5 -80.5l-182 64l44 757h777v-197h-590l-24 -396c35.333 25.333 74.5 44.666 117.5 57.999s85.833 20 128.5 20
c89.333 0 169.166 -20.5 239.499 -61.5s125.833 -97.167 166.5 -168.5s61 -152 61 -242c0 -89.333 -23 -170.5 -69 -243.5s-107 -131.167 -183 -174.5s-158.667 -65 -248 -65z" />
    <glyph glyph-name="six" unicode="6" horiz-adv-x="1243" 
d="M635 -30c-93.333 0 -177.332 22.1689 -251.999 66.502s-133.834 105.166 -177.501 182.499s-65.5 165.333 -65.5 264v459c0 104.667 21.833 196.5 65.5 275.5s104.334 140.667 182.001 185s167.167 66.5 268.5 66.5c76 0 147.333 -14.333 214 -43
s124.334 -71.334 173.001 -128.001l-153 -143c-27.333 35.333 -61.666 63.5 -102.999 84.5s-85 31.5 -131 31.5c-60 0 -112.667 -14.167 -158 -42.5s-80.833 -65.5 -106.5 -111.5s-38.5 -95.333 -38.5 -148v-171c40.667 40 87.667 71.333 141 94s109.666 34 168.999 34
c89.333 0 169.166 -20.667 239.499 -62s125.666 -97.833 165.999 -169.5s60.5 -152.167 60.5 -241.5c0 -90 -22.5 -171.5 -67.5 -244.5s-105 -131 -180 -174s-157.167 -64.5 -246.5 -64.5zM635.001 171.002c52 0 99.334 12.668 142.001 38.001s76.667 59.333 102 102
s38 90 38 142s-12.5 99.333 -37.5 142s-58.833 76.667 -101.5 102s-90 38 -142 38s-99.333 -12.667 -142 -38s-76.834 -59.333 -102.501 -102s-38.5 -90 -38.5 -142c0 -51.333 12.667 -98.333 38 -141s59.333 -76.834 102 -102.501s90 -38.5 142 -38.5z" />
    <glyph glyph-name="seven" unicode="7" horiz-adv-x="1046" 
d="M215 0l506 1241h-641v199h866v-199l-505 -1241h-226z" />
    <glyph glyph-name="eight" unicode="8" horiz-adv-x="1203" 
d="M601 -30c-94 0 -177.168 18.835 -249.501 56.502s-129 90.167 -170 157.5s-61.5 145.333 -61.5 234c0 72 14.667 138.667 44 200s73 112.666 131 153.999c-92.667 76.667 -139 175.667 -139 297c0 82 19 153 57 213s90.5 106.333 157.5 139s143.833 49 230.5 49
s163.334 -16.333 230.001 -49s119 -79 157 -139s57 -131 57 -213c0 -123.333 -46 -222.333 -138 -297c58 -40.667 101.833 -91.834 131.5 -153.501s44.5 -128.5 44.5 -200.5c0 -88.667 -20.667 -166.667 -62 -234s-98.333 -119.833 -171 -157.5s-155.667 -56.5 -249 -56.5z
M600.999 869.002c66 0 119.5 16.5 160.5 49.5s61.5 83.167 61.5 150.5s-20.5 117.833 -61.5 151.5s-94.5 50.5 -160.5 50.5s-119.667 -16.833 -161 -50.5s-62 -84.167 -62 -151.5s20.667 -117.5 62 -150.5s95 -49.5 161 -49.5zM600.999 169.002
c77.333 0 140 21.167 188 63.5s72 104.166 72 185.499s-23.833 143.5 -71.5 186.5s-110.5 64.5 -188.5 64.5s-140.833 -21.5 -188.5 -64.5s-71.5 -105.167 -71.5 -186.5s24 -143.166 72 -185.499s110.667 -63.5 188 -63.5z" />
    <glyph glyph-name="nine" unicode="9" horiz-adv-x="1243" 
d="M608 1469c92.667 0 176.333 -22.1689 251 -66.502s134 -105.166 178 -182.499s66 -165.666 66 -264.999v-458c0 -105.333 -21.833 -197.5 -65.5 -276.5s-104.334 -140.5 -182.001 -184.5s-167.167 -66 -268.5 -66c-76 0 -147.333 14.333 -214 43
s-124.667 71.334 -174 128.001l154 143c27.333 -36 61.5 -64.5 102.5 -85.5s84.833 -31.5 131.5 -31.5c59.333 0 111.833 14.333 157.5 43s81.167 66 106.5 112s38 95.333 38 148v171c-40.667 -40 -87.667 -71.333 -141 -94s-109.333 -34 -168 -34
c-90 0 -170.167 20.667 -240.5 62s-125.666 97.666 -165.999 168.999s-60.5 152 -60.5 242s22.5 171.5 67.5 244.5s105 131 180 174s157.5 64.5 247.5 64.5zM607.999 1267c-52 0 -99.332 -12.5 -141.999 -37.5s-76.834 -58.833 -102.501 -101.5s-38.5 -90 -38.5 -142
s12.667 -99.333 38 -142s59.333 -76.834 102 -102.501s90 -38.5 142 -38.5s99.333 12.833 142 38.5s76.667 59.834 102 102.501s38 90 38 142c0 51.333 -12.5 98.333 -37.5 141s-58.833 76.667 -101.5 102s-90 38 -142 38z" />
    <glyph glyph-name="colon" unicode=":" horiz-adv-x="656" 
d="M220 140v221h221v-221h-221zM221 719v221h221v-221h-221z" />
    <glyph glyph-name="semicolon" unicode=";" horiz-adv-x="661" 
d="M220 -239l13 93c43.333 -3.33301 72.333 9.5 87 38.5s19.667 64.833 15 107.5h-115v241h221v-261c0 -78.667 -18.833 -138 -56.5 -178s-92.5 -53.667 -164.5 -41zM220 859v221h221v-221h-221z" />
    <glyph glyph-name="less" unicode="&#x3c;" horiz-adv-x="1259" 
d="M757 153l-477 477l477 477l130 -130l-354 -347l354 -347z" />
    <glyph glyph-name="equal" unicode="=" horiz-adv-x="1500" 
d="M240 819v168h1020v-168h-1020zM240 453v168h1020v-168h-1020z" />
    <glyph glyph-name="greater" unicode="&#x3e;" horiz-adv-x="1259" 
d="M503 153l-131 130l355 347l-355 347l131 130l476 -477z" />
    <glyph glyph-name="question" unicode="?" horiz-adv-x="1087" 
d="M408 391c0 48 3.83887 92.999 11.5059 134.999s22.167 82 43.5 120c18 36 39.167 65.167 63.5 87.5s51 44.333 80 66s59.5 49.5 91.5 83.5c26 29.333 43.667 59 53 89s14 62.333 14 97c0 54 -13 96.667 -39 128c-21.333 26.667 -48.333 45.5 -81 56.5
s-66.667 16.5 -102 16.5c-32.667 0 -63.334 -4.33301 -92.001 -13s-52.667 -22 -72 -40c-20.667 -17.333 -35.834 -38.833 -45.501 -64.5s-14.167 -53.5 -13.5 -83.5h-220c5.33301 62 21.166 120.5 47.499 175.5s62.5 99.5 108.5 133.5c38.667 30.667 82.667 53.5 132 68.5
s98.666 22.5 147.999 22.5c70.667 0 137.5 -11 200.5 -33s115.5 -57.667 157.5 -107c30 -34.667 53 -74.167 69 -118.5s24 -90.166 24 -137.499c0 -64 -13.5 -123 -40.5 -177s-61.5 -103 -103.5 -147c-32.667 -35.333 -65.834 -66 -99.501 -92s-59.834 -54.667 -78.501 -86
c-18 -31.333 -28.333 -59 -31 -83s-4 -56.333 -4 -97h-222zM409.006 -0.000976562v242h221v-242h-221z" />
    <glyph glyph-name="at" unicode="@" horiz-adv-x="1821" 
d="M909 -210c-108.667 0 -208.835 18.1719 -300.502 54.5049s-171 87.166 -238 152.499s-118.833 142.166 -155.5 230.499s-55 184.833 -55 289.5c0 166 33.333 306.5 100 421.5s156.5 202.333 269.5 262s238.5 89.5 376.5 89.5c126.667 0 237.667 -19.5 333 -58.5
s174.666 -92.333 237.999 -160s110.333 -144.667 141 -231s44.667 -176.5 42 -270.5c-3.33301 -129.333 -30.333 -228.5 -81 -297.5s-129.334 -103.5 -236.001 -103.5c-46.667 0 -90.5 8.83301 -131.5 26.5s-73.5 43.5 -97.5 77.5c-29.333 -33.333 -64 -57 -104 -71
s-80.333 -21 -121 -21c-67.333 0 -126.833 14.667 -178.5 44s-92 70.166 -121 122.499s-43.5 113.166 -43.5 182.499c0 71.333 15.333 133.166 46 185.499s72 92.833 124 121.5s110.667 43 176 43c34 0 69.5 -5.5 106.5 -16.5s69.5 -27.167 97.5 -48.5v37h134l-3 -359
c0 -103.333 39.667 -155 119 -155c52.667 0 87.834 21.333 105.501 64s27.167 97 28.5 163c2 102.667 -13.333 189.667 -46 261s-76.667 128.666 -132 171.999s-116.5 74.833 -183.5 94.5s-133.5 29.5 -199.5 29.5c-124 0 -229.667 -25.833 -317 -77.5
s-153.666 -122.667 -198.999 -213s-66.666 -193.5 -63.999 -309.5c2.66699 -115.333 29 -215.166 79 -299.499s118 -149.5 204 -195.5s184.667 -69 296 -69c96 0 185 19.667 267 59l57 -156c-51.333 -24 -105.166 -41.833 -161.499 -53.5s-113.5 -17.5 -171.5 -17.5z
M900.999 351.005c47.333 0 86.999 13.665 118.999 40.998s48 73.666 48 138.999c0 58.667 -14.167 103.334 -42.5 134.001s-68.166 46 -119.499 46c-60.667 0 -106 -16.167 -136 -48.5s-45 -76.166 -45 -131.499c0 -57.333 15.333 -101.666 46 -132.999s74 -47 130 -47z" />
    <glyph glyph-name="A" unicode="A" horiz-adv-x="1317" 
d="M40 0l468 1440h301l468 -1440h-217l-107 325h-591l-105 -325h-217zM426 521h463l-233 709z" />
    <glyph glyph-name="B" unicode="B" horiz-adv-x="1250" 
d="M140 0l-0.000976562 1440h566c91.333 0 168 -18.667 230 -56s108.667 -85.5 140 -144.5s47 -121.167 47 -186.5c0 -66 -13.667 -124.333 -41 -175s-64.666 -89.667 -111.999 -117c71.333 -30.667 126 -76 164 -136s57 -128.333 57 -205
c0 -126.667 -37.5 -228.334 -112.5 -305.001s-181.167 -115 -318.5 -115h-620zM351.999 852.001h351c58 0 106.833 17.5 146.5 52.5s59.5 83.833 59.5 146.5c0 56 -18.667 102 -56 138s-87.333 54 -150 54h-351v-391zM351.999 199.001l376.001 0.000976562
c71.333 0 130.666 20 177.999 60s71 95 71 165c0 65.333 -21.333 120.166 -64 164.499s-100 66.5 -172 66.5h-389v-456z" />
    <glyph glyph-name="C" unicode="C" horiz-adv-x="1461" 
d="M741 -30c-144 0 -266.665 31.498 -367.998 94.498s-178.833 150.833 -232.5 263.5s-80.5 243.334 -80.5 392.001s26.833 279.334 80.5 392.001s131.167 200.5 232.5 263.5s224 94.5 368 94.5c166 0 303.5 -42 412.5 -126s184.833 -197 227.5 -339l-212 -57
c-28.667 100.667 -78.667 179.667 -150 237s-164 86 -278 86c-102 0 -187 -23 -255 -69s-119.167 -110.333 -153.5 -193s-51.5 -179 -51.5 -289c-0.666992 -110 16.166 -206.333 50.499 -289s85.666 -147 153.999 -193s153.5 -69 255.5 -69c114 0 206.667 28.667 278 86
s121.333 136.333 150 237l212 -57c-42.667 -142 -118.5 -255 -227.5 -339s-246.5 -126 -412.5 -126z" />
    <glyph glyph-name="D" unicode="D" horiz-adv-x="1381" 
d="M140 0l0.000976562 1440h451c13.333 0 38 -0.333008 74 -1s71 -3.33398 105 -8.00098c112.667 -14 207.5 -54.333 284.5 -121s135.167 -151.167 174.5 -253.5s59 -214.5 59 -336.5c0 -122.667 -19.667 -235.167 -59 -337.5s-97.5 -186.666 -174.5 -252.999
s-171.833 -106.5 -284.5 -120.5c-33.333 -4.66699 -68.333 -7.33398 -105 -8.00098s-61.334 -1 -74.001 -1h-451zM354.001 199.001l237 -0.000976562c22.667 0 49.667 0.5 81 1.5s59 3.83301 83 8.5c73.333 14 132.833 45.833 178.5 95.5s79.167 110.834 100.5 183.501
s32 150 32 232c0 84.667 -11 163.167 -33 235.5s-55.833 133 -101.5 182s-104.5 80.167 -176.5 93.5c-24 4.66699 -51.833 7.5 -83.5 8.5s-58.5 1.5 -80.5 1.5h-237v-1042z" />
    <glyph glyph-name="E" unicode="E" horiz-adv-x="1160" 
d="M140 0v1440h920v-197h-711v-404h591v-197h-591v-445h711v-197h-920z" />
    <glyph glyph-name="F" unicode="F" horiz-adv-x="1033" 
d="M140 0v1440h853v-209h-644v-406h524v-210h-524v-615h-209z" />
    <glyph glyph-name="G" unicode="G" horiz-adv-x="1446" 
d="M729 -30c-128.667 0 -243.502 29.6699 -344.502 89.0029s-180.333 145 -238 257s-86.5 246.667 -86.5 404c0 155.333 28.333 289 85 401s135.334 198 236.001 258s216.667 90 348 90c168.667 0 303.667 -39.333 405 -118s170.333 -187.334 207 -326.001l-212 -38
c-29.333 86 -76.666 154.667 -141.999 206s-147.333 77.333 -246 78c-102 0.666992 -187 -22 -255 -68s-118.833 -110.5 -152.5 -193.5s-50.834 -179.5 -51.501 -289.5c-0.666992 -164.667 37.333 -297.334 114 -398.001s191.667 -151.667 345 -153
c123.333 -1.33301 220.333 33.5 291 104.5s113.334 173.167 128.001 306.5h-280v168h502c1.33301 -12 2.33301 -27.833 3 -47.5s1 -32.167 1 -37.5c0 -133.333 -25.667 -252.333 -77 -357s-126 -186.834 -224 -246.501s-216.667 -89.5 -356 -89.5z" />
    <glyph glyph-name="H" unicode="H" horiz-adv-x="1419" 
d="M140 0v1440h209v-621h720v621h210v-1440h-210v622h-720v-622h-209z" />
    <glyph glyph-name="I" unicode="I" horiz-adv-x="529" 
d="M160 0v1440h209v-1440h-209z" />
    <glyph glyph-name="J" unicode="J" horiz-adv-x="977" 
d="M414 -29c-106 0 -194.668 28.001 -266.001 84.001s-120.666 131.333 -147.999 226l207 49c9.33301 -44.667 33 -82.834 71 -114.501s81 -47.5 129 -47.5c31.333 0 63.833 8 97.5 24s59.167 42 76.5 78c11.333 23.333 18 50.5 20 81.5s3 67.5 3 109.5v979h212v-979
c0 -64 -1.16699 -118.167 -3.5 -162.5s-16.833 -89.833 -43.5 -136.5c-38 -66 -88 -114.333 -150 -145s-130.333 -46 -205 -46z" />
    <glyph glyph-name="K" unicode="K" horiz-adv-x="1259" 
d="M140 0v1440h209v-672l603 672h260l-637 -703l684 -737h-268l-642 688v-688h-209z" />
    <glyph glyph-name="L" unicode="L" horiz-adv-x="1051" 
d="M160 0v1440h209v-1243h652v-197h-861z" />
    <glyph glyph-name="M" unicode="M" horiz-adv-x="1701" 
d="M140 0v1440h189l522 -1083l519 1083h191v-1439h-198v985l-465 -986h-95l-466 986v-986h-197z" />
    <glyph glyph-name="N" unicode="N" horiz-adv-x="1413" 
d="M140 0v1440h212l709 -1070v1070h212v-1440h-212l-709 1071v-1071h-212z" />
    <glyph glyph-name="O" unicode="O" horiz-adv-x="1481" 
d="M741 -30c-144 0 -266.667 31.5 -368 94.5s-178.833 150.833 -232.5 263.5s-80.5 243.334 -80.5 392.001s26.833 279.334 80.5 392.001s131.167 200.5 232.5 263.5s224 94.5 368 94.5c143.333 0 265.833 -31.5 367.5 -94.5s179.167 -150.833 232.5 -263.5
s80 -243.334 80 -392.001s-26.667 -279.334 -80 -392.001s-130.833 -200.5 -232.5 -263.5s-224.167 -94.5 -367.5 -94.5zM741 169c102 -1.33301 187.001 21.1699 255.001 67.5029s118.833 111 152.5 194s50.5 179.5 50.5 289.5c0 165.333 -38.167 298.166 -114.5 398.499
s-190.833 151.166 -343.5 152.499c-102 1.33301 -187 -21.167 -255 -67.5s-118.833 -111 -152.5 -194s-50.834 -179.5 -51.501 -289.5c-0.666992 -164.667 37.333 -297.334 114 -398.001s191.667 -151.667 345 -153z" />
    <glyph glyph-name="P" unicode="P" horiz-adv-x="1254" 
d="M140 0l-0.000976562 1440h582c14 0 31.333 -0.5 52 -1.5s40.334 -3.16699 59.001 -6.5c120.667 -18.667 211 -69.667 271 -153s90 -183.333 90 -300s-30.167 -216.834 -90.5 -300.501s-150.5 -134.834 -270.5 -153.501c-18.667 -2.66699 -38.5 -4.66699 -59.5 -6
s-38.167 -2 -51.5 -2h-373v-517h-209zM348.999 715.002l365 -0.000976562c13.333 0 28.166 0.5 44.499 1.5s31.833 3.5 46.5 7.5c64 15.333 109.333 48.333 136 99s40 102.667 40 156c0 52.667 -13.333 104.334 -40 155.001s-72 83.667 -136 99
c-14.667 4 -30.167 6.66699 -46.5 8s-31.166 2 -44.499 2h-365v-528z" />
    <glyph glyph-name="Q" unicode="Q" horiz-adv-x="1481" 
d="M741 -30c-144 0 -266.667 31.499 -368 94.499s-178.833 150.833 -232.5 263.5s-80.5 243.334 -80.5 392.001s26.833 279.334 80.5 392.001s131.167 200.5 232.5 263.5s224 94.5 368 94.5c143.333 0 265.833 -31.5 367.5 -94.5s179.167 -150.833 232.5 -263.5
s80 -243.334 80 -392.001c0 -199.333 -47 -364.333 -141 -495l121 -120l-132 -134l-122 120c-53.333 -38.667 -114 -68.5 -182 -89.5s-142.667 -31.5 -224 -31.5zM741 168.999c101.333 -1.33301 187.334 22.0029 258.001 70.0029l-132 132l134 134l124 -125
c49.333 90.667 74 204 74 340c0 165.333 -38.167 298.166 -114.5 398.499s-190.833 151.166 -343.5 152.499c-102 1.33301 -187 -21.167 -255 -67.5s-118.833 -111 -152.5 -194s-50.834 -179.5 -51.501 -289.5c-0.666992 -164.667 37.333 -297.334 114 -398.001
s191.667 -151.667 345 -153z" />
    <glyph glyph-name="R" unicode="R" horiz-adv-x="1301" 
d="M140 0l-0.000976562 1440h582c14 0 31.333 -0.5 52 -1.5s40.334 -3.16699 59.001 -6.5c120.667 -18.667 211 -69.667 271 -153s90 -183.333 90 -300c0 -96 -20.5 -181.333 -61.5 -256s-102.5 -129.667 -184.5 -165l273 -558h-239l-251 517h-382v-517h-209zM348.999 715
l365 -0.000976562c13.333 0 28.166 0.5 44.499 1.5s31.833 3.5 46.5 7.5c64 15.333 109.333 48.333 136 99s40 102.667 40 156c0 52.667 -13.333 104.334 -40 155.001s-72 83.667 -136 99c-14.667 4 -30.167 6.66699 -46.5 8s-31.166 2 -44.499 2h-365v-528z" />
    <glyph glyph-name="S" unicode="S" horiz-adv-x="1287" 
d="M662 -30c-103.333 0 -196.499 17.8311 -279.499 53.498s-151.333 86.667 -205 153s-88.5 145.166 -104.5 236.499l218 33c22 -88.667 67.833 -157.334 137.5 -206.001s151.5 -73 245.5 -73c58 0 111.333 9.16699 160 27.5s87.834 44.666 117.501 78.999
s44.5 75.5 44.5 123.5c0 52 -16.833 92.5 -50.5 121.5s-77.167 51.5 -130.5 67.5l-369 109c-48 14 -96.333 34.333 -145 61s-89.5 63.834 -122.5 111.501s-49.5 110.5 -49.5 188.5c0 88.667 22.833 163.834 68.5 225.501s107.5 108.334 185.5 140.001s165.333 47.5 262 47.5
c146 -1.33301 268.333 -38.833 367 -112.5s162.667 -176.834 192 -309.501l-224 -38c-15.333 81.333 -54.833 145 -118.5 191s-136.834 69.667 -219.501 71c-53.333 1.33301 -102.166 -6.66699 -146.499 -24s-79.666 -41.666 -105.999 -72.999s-39.5 -67.333 -39.5 -108
c0 -40 11.667 -72.333 35 -97s52.166 -44.167 86.499 -58.5s68.5 -26.166 102.5 -35.499l266 -75c33.333 -9.33301 71.166 -21.833 113.499 -37.5s83.333 -37.5 123 -65.5s72.5 -65.167 98.5 -111.5s39 -104.5 39 -174.5c0 -96.667 -25.333 -177.667 -76 -243
s-117.834 -114.666 -201.501 -147.999s-175.167 -50 -274.5 -50z" />
    <glyph glyph-name="T" unicode="T" horiz-adv-x="1207" 
d="M499 0v1243h-479v197h1167v-197h-479v-1243h-209z" />
    <glyph glyph-name="U" unicode="U" horiz-adv-x="1428" 
d="M714 -30c-112.667 0 -212.166 23.167 -298.499 69.5s-153.833 111.333 -202.5 195s-73 182.167 -73 295.5v909l212 1v-899c0 -82 17.833 -150.667 53.5 -206s81.167 -97.166 136.5 -125.499s112.666 -42.5 171.999 -42.5c60.667 0 118.667 14.333 174 43
s100.5 70.667 135.5 126s52.5 123.666 52.5 204.999v899h212v-910c0 -112.667 -24.333 -211 -73 -295s-116.167 -149.167 -202.5 -195.5s-185.833 -69.5 -298.5 -69.5z" />
    <glyph glyph-name="V" unicode="V" horiz-adv-x="1257" 
d="M478 0l-468 1440h217l399 -1229l404 1229h217l-468 -1440h-301z" />
    <glyph glyph-name="W" unicode="W" horiz-adv-x="1925" 
d="M445 0l-418 1440h219l303 -1089l303 1088l220 1l303 -1089l303 1089h220l-419 -1440h-208l-309 1077l-309 -1077h-208z" />
    <glyph glyph-name="X" unicode="X" horiz-adv-x="1278" 
d="M20 0l491 729l-478 711h256l351 -534l349 534h257l-478 -711l490 -729h-256l-362 551l-363 -551h-257z" />
    <glyph glyph-name="Y" unicode="Y" horiz-adv-x="1186" 
d="M487 0v595l-487 845h244l349 -605l349 605h244l-487 -845v-595h-212z" />
    <glyph glyph-name="Z" unicode="Z" horiz-adv-x="1294" 
d="M100 0v33l735 1210h-695v197h1054v-34l-731 -1208h718v-198h-1081z" />
    <glyph glyph-name="bracketleft" unicode="[" horiz-adv-x="836" 
d="M280 -428v2216h416v-188h-228v-1840h228v-188h-416z" />
    <glyph glyph-name="backslash" unicode="\" horiz-adv-x="835" 
d="M331 1440l384 -1440h-211l-384 1440h211z" />
    <glyph glyph-name="bracketright" unicode="]" horiz-adv-x="836" 
d="M556 -428h-416v188h228v1840h-228v188h416v-2216z" />
    <glyph glyph-name="asciicircum" unicode="^" horiz-adv-x="1353" 
d="M211 994l476 477l477 -476l-130 -131l-347 355l-346 -355z" />
    <glyph glyph-name="underscore" unicode="_" horiz-adv-x="1320" 
d="M0 -233v168h1320v-168h-1320z" />
    <glyph glyph-name="grave" unicode="`" horiz-adv-x="1045" 
d="M474 1600l-142 350h164l142 -350h-164z" />
    <glyph glyph-name="a" unicode="a" horiz-adv-x="1139" 
d="M445 -30c-80 0 -147 14.8291 -201 44.4961s-94.833 69 -122.5 118s-41.5 102.833 -41.5 161.5c0 81.333 21.667 148.333 65 201s106.666 92.334 189.999 119.001c62.667 18.667 136.167 34.334 220.5 47.001l257.5 37c-3.33301 74.667 -23.833 129.834 -61.5 165.501
s-98.5 53.5 -182.5 53.5c-56.667 0 -108.667 -13.333 -156 -40s-80.333 -70 -99 -130l-195 60c26 92.667 76.667 166.334 152 221.001s175.333 82 300 82c96.667 0 180.834 -16.5 252.501 -49.5s124.167 -85.167 157.5 -156.5c16.667 -36 27.167 -73.667 31.5 -113
s6.5 -81.333 6.5 -126v-665h-185v157c-87.333 -124.667 -217 -187 -389 -187zM482 140.996c59.333 0 110.497 10.5029 153.497 31.5029s77.333 47.833 103 80.5s42.5 66.667 50.5 102c8.66699 24.667 14.334 52.667 17.001 84s4.33398 59.666 5.00098 84.999l-214.5 -32.5
c-61.667 -9.66699 -115.167 -21.5 -160.5 -35.5c-42.667 -14.667 -78.167 -34.334 -106.5 -59.001s-42.5 -58.334 -42.5 -101.001c0 -42 15.833 -78.333 47.5 -109s80.834 -46 147.501 -46z" />
    <glyph glyph-name="b" unicode="b" horiz-adv-x="1216" 
d="M139 0v1440h210v-434c38 33.333 81.5 59 130.5 77s103.5 27 163.5 27c101.333 0 188.833 -24.833 262.5 -74.5s130.5 -117.334 170.5 -203.001s60 -182.834 60 -291.501c0 -108 -19.833 -205.167 -59.5 -291.5s-96 -154.5 -169 -204.5s-159.833 -75 -260.5 -75
c-68 0 -129 11.333 -183 34s-100.333 54.334 -139 95.001v-99h-186zM618 159.001c66.667 0 122.001 17 166.001 51s76.667 79.833 98 137.5s32 122.167 32 193.5c0 70.667 -10.833 134.667 -32.5 192s-54.834 103 -99.501 137s-101.667 51 -171 51
c-98.667 0 -171 -35.333 -217 -106s-69 -162 -69 -274s23.167 -203.667 69.5 -275s120.833 -107 223.5 -107z" />
    <glyph glyph-name="c" unicode="c" horiz-adv-x="1137" 
d="M602 -30c-110.667 0 -204.669 24.665 -282.002 73.998s-136.5 117 -177.5 203s-61.833 183.667 -62.5 293c0.666992 111.333 22 209.833 64 295.5s102 152.834 180 201.501s171.667 73 281 73c118 0 218.833 -29.5 302.5 -88.5s138.834 -139.167 165.501 -240.5l-208 -60
c-20.667 60.667 -54.667 107.834 -102 141.501s-101 50.5 -161 50.5c-102.667 0 -178.167 -35.167 -226.5 -105.5s-72.833 -159.5 -73.5 -267.5c0.666992 -111.333 26.167 -201.333 76.5 -270s124.833 -103 223.5 -103c67.333 0 121.833 15.5 163.5 46.5
s73.5 75.5 95.5 133.5l212 -50c-35.333 -106 -93.666 -187 -174.999 -243s-180 -84 -296 -84z" />
    <glyph glyph-name="d" unicode="d" horiz-adv-x="1217" 
d="M569 -30c-100.667 0 -187.5 24.999 -260.5 74.999s-129.333 118.167 -169 204.5s-59.5 183.5 -59.5 291.5c0 108.667 20 205.834 60 291.501s96.833 153.334 170.5 203.001s161.167 74.5 262.5 74.5c60 0 114.5 -9 163.5 -27s92.5 -43.667 130.5 -77v434h210v-1440h-186
v99c-38.667 -40.667 -85 -72.334 -139 -95.001s-115 -34 -183 -34zM598 158.999c103.333 0 178.001 35.667 224.001 107s69 163 69 275s-23 203.333 -69 274s-118.333 106 -217 106c-69.333 0 -126.333 -17 -171 -51s-77.834 -79.667 -99.501 -137
s-32.5 -121.333 -32.5 -192c0 -71.333 10.667 -135.833 32 -193.5s54 -103.5 98 -137.5s99.333 -51 166 -51z" />
    <glyph glyph-name="e" unicode="e" horiz-adv-x="1193" 
d="M619 -30c-107.333 0 -201.5 23.501 -282.5 70.501s-144 112.667 -189 197s-67.5 182.166 -67.5 293.499c0 118 22.167 220.333 66.5 307s106.166 153.667 185.499 201s171.666 71 276.999 71c110 0 203.667 -25.5 281 -76.5s135 -123.5 173 -217.5
s53.333 -205.667 46 -335h-805c8.66699 -100 38.834 -177.333 90.501 -232s123.167 -82 214.5 -82c132.667 0 226.334 57.333 281.001 172l205 -65c-42 -96.667 -105.667 -171.5 -191 -224.5s-180.333 -79.5 -285 -79.5zM617 925.001c-178 0 -280.667 -93.667 -308 -281h586
c-21.333 187.333 -114 281 -278 281z" />
    <glyph glyph-name="f" unicode="f" horiz-adv-x="741" 
d="M239 0l0.000976562 912.001h-179v168h179v38c0 41.333 3 86 9 134s26 91 60 129c27.333 30 57.333 51.167 90 63.5s65.167 19.666 97.5 21.999s62.166 3.5 89.499 3.5h136v-172h-126c-50 0 -87 -12.167 -111 -36.5s-36 -58.833 -36 -103.5v-78h273v-168h-273v-912h-209z
" />
    <glyph glyph-name="g" unicode="g" horiz-adv-x="1216" 
d="M569 -30c-100.667 0 -187.497 24.9971 -260.497 74.9971s-129.333 118.167 -169 204.5s-59.5 183.5 -59.5 291.5c0 108.667 20 205.834 60 291.501s96.833 153.334 170.5 203.001s161.167 74.5 262.5 74.5c66.667 0 126.667 -11.167 180 -33.5s99.333 -53.5 138 -93.5v97
h185v-1109c0 -29.333 -1 -57 -3 -83s-5.66699 -51.667 -11 -77c-22.667 -109.333 -76.334 -190.166 -161.001 -242.499s-190 -78.5 -316 -78.5c-87.333 0 -169.5 20.167 -246.5 60.5s-137.5 98.833 -181.5 175.5l193 98c23.333 -46 56.666 -79.667 99.999 -101
s89 -32 137 -32c88.667 0 157.667 23.667 207 71s73.333 117.666 72 210.999v102c-38 -33.333 -81.833 -59.166 -131.5 -77.499s-104.834 -27.5 -165.501 -27.5zM598.003 158.997c103.333 0 178.001 35.667 224.001 107s69 163 69 275s-23 203.333 -69 274
s-118.333 106 -217 106c-69.333 0 -126.333 -17 -171 -51s-77.834 -79.667 -99.501 -137s-32.5 -121.333 -32.5 -192c0 -71.333 10.667 -135.833 32 -193.5s54 -103.5 98 -137.5s99.333 -51 166 -51z" />
    <glyph glyph-name="h" unicode="h" 
d="M139 0l0.000976562 1440h187v-489c39.333 50 89.166 88.833 149.499 116.5s129.5 41.5 207.5 41.5c74 0 136.5 -12 187.5 -36s92.333 -55.5 124 -94.5s55.834 -81.5 72.501 -127.5s28 -91 34 -135s9 -82.667 9 -116v-600h-212v531c0 42 -3.5 85.167 -10.5 129.5
s-20.167 85.5 -39.5 123.5s-47 68.667 -83 92s-82.667 35 -140 35c-50 0 -95.833 -11.333 -137.5 -34s-74.834 -59.5 -99.501 -110.5s-37 -119.167 -37 -204.5v-562h-212z" />
    <glyph glyph-name="i" unicode="i" horiz-adv-x="529" 
d="M160 1257v203h209v-203h-209zM160 0v1080h209v-1080h-209z" />
    <glyph glyph-name="j" unicode="j" horiz-adv-x="551" 
d="M195 1257v203h210v-203h-210zM-20 -480v198h55c106.667 0 160 54.333 160 163v1199h210v-1284c0 -88 -24.333 -156 -73 -204s-117.667 -72 -207 -72h-145z" />
    <glyph glyph-name="k" unicode="k" horiz-adv-x="1048" 
d="M139 0l1 1440h212v-880l424 520h266l-448 -540l494 -540h-284l-452 520v-520h-213z" />
    <glyph glyph-name="l" unicode="l" horiz-adv-x="529" 
d="M160 0v1470h209v-1470h-209z" />
    <glyph glyph-name="m" unicode="m" horiz-adv-x="1764" 
d="M139 0v1080h186v-116c34.667 44 78.834 78.833 132.501 104.5s112.834 38.5 177.501 38.5c74.667 0 138.5 -15.5 191.5 -46.5s93.833 -73.833 122.5 -128.5c33.333 54.667 78.666 97.5 135.999 128.5s121.333 46.5 192 46.5c116 0 206.167 -35 270.5 -105
s96.5 -163 96.5 -279l-1 -723h-209l1 673c0 77.333 -20.167 138 -60.5 182s-92.833 66 -157.5 66c-59.333 0 -110.833 -20.667 -154.5 -62s-65.5 -102.666 -65.5 -183.999v0l-1 -675h-209l1 669c0 78 -19.833 139.5 -59.5 184.5s-92.834 67.5 -159.501 67.5
c-66 0 -119.167 -22.667 -159.5 -68s-60.5 -104.666 -60.5 -177.999v-675h-210z" />
    <glyph glyph-name="n" unicode="n" 
d="M139 0l0.000976562 1080h187v-129c39.333 50 89.166 88.833 149.499 116.5s129.5 41.5 207.5 41.5c74 0 136.5 -12 187.5 -36s92.333 -55.5 124 -94.5s55.834 -81.5 72.501 -127.5s28 -91 34 -135s9 -82.667 9 -116v-600h-212v531c0 42 -3.5 85.167 -10.5 129.5
s-20.167 85.5 -39.5 123.5s-47 68.667 -83 92s-82.667 35 -140 35c-50 0 -95.833 -11.333 -137.5 -34s-74.834 -59.5 -99.501 -110.5s-37 -119.167 -37 -204.5v-562h-212z" />
    <glyph glyph-name="o" unicode="o" horiz-adv-x="1219" 
d="M609 -30c-108 0 -201.667 24.332 -281 72.999s-140.5 115.834 -183.5 201.501s-64.5 184.5 -64.5 296.5c0 112.667 22 211.667 66 297s105.667 152 185 200s172 72 278 72c108 0 201.667 -24.167 281 -72.5s140.666 -115.333 183.999 -201s65 -184.167 65 -295.5
c0 -112.667 -21.833 -212 -65.5 -298s-105.167 -153 -184.5 -201s-172.666 -72 -279.999 -72zM609 166.999c103.333 0 180.5 34.666 231.5 103.999s76.5 159.333 76.5 270c0 112.667 -25.833 202.834 -77.5 270.501s-128.5 101.5 -230.5 101.5
c-105.333 0 -182.833 -34.5 -232.5 -103.5s-74.5 -158.5 -74.5 -268.5c0 -114 25.833 -204.833 77.5 -272.5s128.167 -101.5 229.5 -101.5z" />
    <glyph glyph-name="p" unicode="p" horiz-adv-x="1216" 
d="M139 -480v1560h186v-97c38.667 40 84.667 71.167 138 93.5s113.333 33.5 180 33.5c101.333 0 188.833 -24.833 262.5 -74.5s130.5 -117.334 170.5 -203.001s60 -182.834 60 -291.501c0 -108 -19.833 -205.167 -59.5 -291.5s-96 -154.5 -169 -204.5
s-159.833 -75 -260.5 -75c-61.333 0 -116.833 9.16699 -166.5 27.5s-93.5 44.5 -131.5 78.5v-556h-210zM618 159.002c66.667 0 122.001 17 166.001 51s76.667 79.833 98 137.5s32 122.167 32 193.5c0 70.667 -10.833 134.667 -32.5 192s-54.834 103 -99.501 137
s-101.667 51 -171 51c-98.667 0 -171 -35.333 -217 -106s-69 -162 -69 -274s23.167 -203.667 69.5 -275s120.833 -107 223.5 -107z" />
    <glyph glyph-name="q" unicode="q" horiz-adv-x="1217" 
d="M569 -30c-100.667 0 -187.5 24.998 -260.5 74.998s-129.333 118.167 -169 204.5s-59.5 183.5 -59.5 291.5c0 108.667 20 205.834 60 291.501s96.833 153.334 170.5 203.001s161.167 74.5 262.5 74.5c66.667 0 126.667 -11.167 180 -33.5s99.333 -53.5 138 -93.5v97h186
v-1560h-210v556c-38 -34 -81.833 -60.167 -131.5 -78.5s-105.167 -27.5 -166.5 -27.5zM598 158.998c103.333 0 178.001 35.667 224.001 107s69 163 69 275s-23 203.333 -69 274s-118.333 106 -217 106c-69.333 0 -126.333 -17 -171 -51s-77.834 -79.667 -99.501 -137
s-32.5 -121.333 -32.5 -192c0 -71.333 10.667 -135.833 32 -193.5s54 -103.5 98 -137.5s99.333 -51 166 -51z" />
    <glyph glyph-name="r" unicode="r" horiz-adv-x="773" 
d="M140 0v1080h186v-172c26.667 47.333 60 84.333 100 111c40.667 30 88.167 50 142.5 60s105.833 10.333 154.5 1v-196c-35.333 9.33301 -74.5 12 -117.5 8s-82.5 -17.667 -118.5 -41c-50.667 -32.667 -86 -76 -106 -130s-30 -112.667 -30 -176v-545h-211z" />
    <glyph glyph-name="s" unicode="s" horiz-adv-x="1072" 
d="M553 -29c-131.333 0 -238.333 28.998 -321 86.998s-133.334 139.667 -152.001 245l214 33c13.333 -56.667 44.166 -101 92.499 -133s108.5 -48 180.5 -48c65.333 0 116.5 13.333 153.5 40s55.5 63.334 55.5 110.001c0 27.333 -6.5 49.333 -19.5 66
s-40.167 32.834 -81.5 48.501s-104.333 34.834 -189 57.501c-92.667 24 -166.167 49.833 -220.5 77.5s-93 60 -116 97s-34.5 81.833 -34.5 134.5c0 98 38.333 176.5 115 235.5s178.334 88.5 305.001 88.5c124 0 227 -28.833 309 -86.5s129 -134.5 141 -230.5l-214 -39
c-7.33301 52 -31.666 93 -72.999 123s-95 46.333 -161 49c-63.333 2 -114.666 -8.83301 -153.999 -32.5s-59 -55.834 -59 -96.501c0 -24 7.5 -44.167 22.5 -60.5s44.167 -32.333 87.5 -48s107.333 -34.167 192 -55.5c90.667 -23.333 162.667 -49.166 216 -77.499
s91.5 -62 114.5 -101s34.5 -86.167 34.5 -141.5c0 -106.667 -38.833 -190.334 -116.5 -251.001s-184.834 -91 -321.501 -91z" />
    <glyph glyph-name="t" unicode="t" horiz-adv-x="845" 
d="M758 0c-68 -13.333 -134.5 -19 -199.5 -17s-123.333 14.667 -175 38s-90.5 60 -116.5 110c-23.333 44.667 -35.833 90 -37.5 136s-2.5 98.667 -2.5 158v487h-207v168h207v300h210v-300h321v-168h-321v-477c0 -43.333 0.333008 -81 1 -113s7.66699 -59 21 -81
c24 -41.333 62.167 -65 114.5 -71s113.833 -3.66699 184.5 7v-177z" />
    <glyph glyph-name="u" unicode="u" 
d="M547 -29c-74 0 -136.501 12 -187.501 36s-92.333 55.5 -124 94.5s-55.834 81.5 -72.501 127.5s-28 91 -34 135s-9 82.667 -9 116v600h212v-531c0 -42 3.5 -85.167 10.5 -129.5s20.167 -85.5 39.5 -123.5s47 -68.667 83 -92s82.667 -35 140 -35
c50 0 95.833 11.333 137.5 34s74.834 59.5 99.501 110.5s37 119.167 37 204.5v562h211v-1080h-186v129c-39.333 -50 -89.166 -88.833 -149.499 -116.5s-129.5 -41.5 -207.5 -41.5z" />
    <glyph glyph-name="v" unicode="v" horiz-adv-x="1076" 
d="M432 0l-392 1080h211l287 -818l287 818h211l-392 -1080h-212z" />
    <glyph glyph-name="w" unicode="w" horiz-adv-x="1581" 
d="M370 0l-330 1081l207 -1l226 -741l228 741h180l228 -741l226 741h206l-330 -1080h-168l-252 782l-253 -782h-168z" />
    <glyph glyph-name="x" unicode="x" horiz-adv-x="1090" 
d="M20 0l404 546l-395 534h248l269 -371l266 371h248l-395 -534l405 -546h-249l-275 383l-277 -383h-249z" />
    <glyph glyph-name="y" unicode="y" horiz-adv-x="1097" 
d="M286 -480l178 485l-437 1075h218l320 -811l304 811h212l-596 -1560h-199z" />
    <glyph glyph-name="z" unicode="z" horiz-adv-x="1065" 
d="M40 0v33l613 860h-557v187h889v-34l-612 -859h582v-187h-915z" />
    <glyph glyph-name="braceleft" unicode="{" horiz-adv-x="878" 
d="M664 -428c-80.667 0 -145.167 24.1689 -193.5 72.502s-72.5 112.5 -72.5 192.5v618c0 16.667 -4.66699 32 -14 46l-87 123c-25.333 37.333 -25.333 74.666 0 111.999l87 123c9.33301 15.333 14 30.666 14 45.999v617c0 80 24.167 144.333 72.5 193s112.833 73 193.5 73
h131v-199h-117c-22.667 0 -41.834 -7.83301 -57.501 -23.5s-23.5 -34.5 -23.5 -56.5v-604c0 -58.667 -17 -112 -51 -160l-47 -65l47 -65c34 -48 51 -101.333 51 -160v-604c0 -22.667 7.83301 -42 23.5 -58s34.834 -24 57.501 -24h117v-197h-131z" />
    <glyph glyph-name="bar" unicode="|" horiz-adv-x="569" 
d="M180 0v1440h209v-1440h-209z" />
    <glyph glyph-name="braceright" unicode="}" horiz-adv-x="878" 
d="M214 -428l-131 -0.00195312v197h118c22 0 40.833 8 56.5 24s23.5 35.333 23.5 58v604c0 58.667 17.333 112 52 160l46 65l-46 65c-34.667 48 -52 101.333 -52 160v604c0 22 -7.83301 40.833 -23.5 56.5s-34.5 23.5 -56.5 23.5h-118v199h131
c80.667 0 145.167 -24.333 193.5 -73s72.5 -113 72.5 -193v-617c0 -15.333 4.66699 -30.666 14 -45.999l87 -123c26 -37.333 26 -74.666 0 -111.999l-87 -123c-9.33301 -14 -14 -29.333 -14 -46v-618c0 -80 -24.167 -144.167 -72.5 -192.5s-112.833 -72.5 -193.5 -72.5z" />
    <glyph glyph-name="asciitilde" unicode="~" horiz-adv-x="1396" 
d="M925 428c-42.667 0 -84 9.16602 -124 27.499s-78.167 39.666 -114.5 63.999s-70.666 45.833 -102.999 64.5s-62.5 28 -90.5 28c-32 0 -53.333 -15.167 -64 -45.5s-10.334 -65.5 0.999023 -105.5h-191c-17.333 68.667 -20 131 -8 187s38 100.667 78 134s93.667 50 161 50
c42.667 0 84 -9.33301 124 -28s78.333 -40.167 115 -64.5s71.167 -45.666 103.5 -63.999s62.166 -27.5 89.499 -27.5c30.667 0 52 14.833 64 44.5s11.667 65.834 -1 108.501h192c16.667 -68.667 19.167 -131.167 7.5 -187.5s-37.667 -101.333 -78 -135
s-94.166 -50.5 -161.499 -50.5z" />
    <glyph glyph-name="uni00A0" unicode="&#xa0;" horiz-adv-x="400" 
 />
    <glyph glyph-name="exclamdown" unicode="&#xa1;" horiz-adv-x="689" 
d="M240 720h209v-1080h-209v1080zM240 1080h209v-203h-209v203z" />
    <glyph glyph-name="cent" unicode="&#xa2;" horiz-adv-x="1137" 
d="M527 -59l-0.000976562 184c-94.667 11.333 -175.167 42.5 -241.5 93.5s-117 117 -152 198s-52.833 172.167 -53.5 273.5c0.666992 102 18.834 193.5 54.501 274.5s86.667 146.667 153 197s146.166 81.166 239.499 92.499v186h168v-187
c94.667 -14.667 175.5 -50 242.5 -106s112.167 -128 135.5 -216l-208 -60c-20.667 60.667 -54.667 107.834 -102 141.501s-101 50.5 -161 50.5c-102.667 0 -178.167 -35.167 -226.5 -105.5s-72.833 -159.5 -73.5 -267.5c0.666992 -112 26.167 -202.167 76.5 -270.5
s124.833 -102.5 223.5 -102.5c67.333 0 121.833 15.5 163.5 46.5s73.5 75.5 95.5 133.5l212 -50c-31.333 -90.667 -79.166 -163.167 -143.499 -217.5s-142.5 -88.5 -234.5 -102.5v-186h-168z" />
    <glyph glyph-name="sterling" unicode="&#xa3;" horiz-adv-x="1142" 
d="M73 0l0.000976562 197.001h52c40 0 74.333 14.833 103 44.5s43 64.167 43 103.5v281h-198v199h198v263c0 73.333 17.667 138.833 53 196.5s83.166 103 143.499 136s127.5 49.5 201.5 49.5c101.333 0 183.833 -33.167 247.5 -99.5s114.5 -153.5 152.5 -261.5l-190 -62
c-22 72 -49.5 127.333 -82.5 166s-75.5 58 -127.5 58c-55.333 0 -99.833 -17.833 -133.5 -53.5s-50.5 -81.834 -50.5 -138.501l-1 -254h323v-199h-323l-1 -429h505v-197h-915z" />
    <glyph glyph-name="currency" unicode="&#xa4;" horiz-adv-x="1321" 
d="M200 120l-139.998 140.001l167 167c-28.667 42 -50.834 88 -66.501 138s-23.5 102.333 -23.5 157c0 54 7.83301 105.667 23.5 155s37.5 94.666 65.5 135.999l-166 166l140 141l166 -166c42 29.333 88 52 138 68s102.333 24 157 24s107 -8 157 -24s96 -38.333 138 -67
l165 165l140 -141l-164 -164c28 -42 50 -87.833 66 -137.5s24 -101.5 24 -155.5c0 -54.667 -8 -107.167 -24 -157.5s-38.667 -96.5 -68 -138.5l166 -166l-140 -140l-166 166c-42 -28 -88 -50 -138 -66s-102 -24 -156 -24c-54.667 0 -106.834 8 -156.501 24
s-95.5 38.333 -137.5 67zM661.002 376.001c63.333 0 120.999 15.833 172.999 47.5s93.5 73.5 124.5 125.5s46.5 109 46.5 171c0 63.333 -15.667 121.166 -47 173.499s-73.166 94 -125.499 125s-109.5 46.5 -171.5 46.5c-64 0 -122 -15.5 -174 -46.5
s-93.333 -72.667 -124 -125s-46 -110.166 -46 -173.499c0 -62 15.333 -119 46 -171s72 -93.833 124 -125.5s110 -47.5 174 -47.5z" />
    <glyph glyph-name="yen" unicode="&#xa5;" horiz-adv-x="1186" 
d="M193 207v168h294v146h-294v168h240l-433 751h244l349 -605l349 605h244l-432 -751h239v-168h-294v-146h294v-168h-294v-207h-212v207h-294z" />
    <glyph glyph-name="brokenbar" unicode="&#xa6;" horiz-adv-x="569" 
d="M180 651v789h209v-789h-209zM180 -376v789h209v-789h-209z" />
    <glyph glyph-name="section" unicode="&#xa7;" horiz-adv-x="1072" 
d="M554 -289c-72.667 0 -140.334 11.668 -203.001 35.001s-115.5 59.333 -158.5 108s-71.5 111.667 -85.5 189l214 33c14.667 -62.667 46.167 -108.5 94.5 -137.5s98.833 -43.5 151.5 -43.5c48.667 0 92.334 12.333 131.001 37s58 62.334 58 113.001
c0 32 -9.83301 57.333 -29.5 76s-50.667 34.834 -93 48.501s-98.166 29.5 -167.499 47.5c-118 30.667 -209.333 67.334 -274 110.001s-97 104.667 -97 186c0 63.333 18.333 115.333 55 156s82 71 136 91c-53.333 25.333 -94.166 56.666 -122.499 93.999
s-42.5 85.666 -42.5 144.999c0 74 19.5 135 58.5 183s88.667 83.5 149 106.5s122.5 34.5 186.5 34.5c68.667 0 133 -12.333 193 -37s110.167 -60.667 150.5 -108s64.833 -104.666 73.5 -171.999l-214 -39c-10.667 62 -35.834 106.5 -75.501 133.5
s-84.834 40.5 -135.501 40.5c-48 0 -89.333 -11 -124 -33s-52 -53.333 -52 -94c0 -34 13 -60.333 39 -79s61.667 -34.167 107 -46.5l156 -42.5c76.667 -20.667 142.167 -43.334 196.5 -68.001s96 -56 125 -94s43.5 -88 43.5 -150c0 -60.667 -13.667 -112.334 -41 -155.001
s-65 -74.334 -113 -95.001c41.333 -25.333 72.833 -56 94.5 -92s32.5 -81.667 32.5 -137c0 -74.667 -18.167 -137.667 -54.5 -189s-86 -90 -149 -116s-134.167 -39 -213.5 -39zM606 373.001l56.002 -15.998c32.667 13.333 61 33.666 85 60.999s36 60.666 36 99.999
c0 32.667 -9.83301 58.167 -29.5 76.5s-50.834 34.333 -93.501 48s-98.334 29.5 -167.001 47.5c-8.66699 2 -17 4.33301 -25 7c-51.333 -17.333 -91.5 -38.666 -120.5 -63.999s-43.5 -56 -43.5 -92c0 -33.333 12.5 -59.333 37.5 -78s60.167 -34.334 105.5 -47.001z" />
    <glyph glyph-name="dieresis" unicode="&#xa8;" horiz-adv-x="1083" 
d="M643 1621v200h200v-200h-200zM240 1621v200h200v-200h-200z" />
    <glyph glyph-name="copyright" unicode="&#xa9;" horiz-adv-x="1717" 
d="M859 -97c-110.667 0 -214.167 20.667 -310.5 62s-181.166 98.666 -254.499 171.999s-130.666 158.333 -171.999 255s-62 200 -62 310s20.667 213.333 62 310s98.666 181.667 171.999 255s158.166 130.666 254.499 171.999s199.833 62 310.5 62
c110 0 213.333 -20.667 310 -62s181.5 -98.666 254.5 -171.999s130.167 -158.333 171.5 -255s62 -200 62 -310s-20.667 -213.333 -62 -310s-98.5 -181.667 -171.5 -255s-157.833 -130.666 -254.5 -171.999s-200 -62 -310 -62zM859 102c82.667 0 160.167 15.5 232.5 46.5
s136 74 191 129s98 118.833 129 191.5s46.5 150.667 46.5 234c0 82.667 -15.5 160.167 -46.5 232.5s-74 136 -129 191s-118.667 98 -191 129s-149.833 46.5 -232.5 46.5c-83.333 0 -161.333 -15.5 -234 -46.5s-136.5 -74 -191.5 -129s-98 -118.667 -129 -191
s-46.5 -149.833 -46.5 -232.5c0 -83.333 15.5 -161.333 46.5 -234s74 -136.5 129 -191.5s118.833 -98 191.5 -129s150.667 -46.5 234 -46.5zM872 277c-126.667 0 -225.667 43.999 -297 131.999c-34.667 44 -59.167 90.833 -73.5 140.5s-21.5 100.834 -21.5 153.501
c0.666992 54.667 8.5 106.834 23.5 156.501s38.833 94.834 71.5 135.501c36.667 44.667 79.667 78 129 100s108 33 176 33c37.333 0 71.666 -3.83301 102.999 -11.5s63.333 -21.5 96 -41.5c35.333 -21.333 65.833 -48.5 91.5 -81.5s43.834 -71.5 54.501 -115.5l-163 -45
c-14 41.333 -38.333 75.333 -73 102c-32.667 26 -72 39 -118 39c-67.333 0 -122 -26.333 -164 -79c-20 -26 -33.667 -55.833 -41 -89.5s-11 -67.5 -11 -101.5c0 -36 4 -70.667 12 -104s21.333 -63 40 -89c38.667 -52 94 -78 166 -78c50 0 90 12 120 36
c16 13.333 29 27.666 39 42.999s19 32.666 27 51.999l166 -38c-26 -78.667 -69 -139.667 -129 -183c-30 -22 -62.833 -38.5 -98.5 -49.5s-77.5 -16.5 -125.5 -16.5z" />
    <glyph glyph-name="ordfeminine" unicode="&#xaa;" horiz-adv-x="636" 
d="M261 540c-58.667 0 -103.499 16.001 -134.499 48.001s-46.5 70.333 -46.5 115c0 79.333 41 133.333 123 162c28 9.33301 62.333 17.166 103 23.499s84.667 12.833 132 19.5c-2.66699 31.333 -12.5 54.5 -29.5 69.5s-44.167 22.5 -81.5 22.5
c-24 0 -47.333 -5.83301 -70 -17.5s-38.334 -31.167 -47.001 -58.5l-111 35c13.333 45.333 38.833 81.833 76.5 109.5s88.5 41.5 152.5 41.5c48 0 90.167 -7.83301 126.5 -23.5s63.5 -41.167 81.5 -76.5c9.33301 -19.333 15 -38.833 17 -58.5s3 -41.5 3 -65.5v-331h-105v72
c-44.667 -58 -108 -87 -190 -87zM285.001 636.001c41.333 0 73.501 10.167 96.501 30.5s37.167 40.166 42.5 59.499c5.33301 12 8.66602 25.833 9.99902 41.5s2.33301 29.834 3 42.501l-105 -18c-26.667 -4.66699 -49.334 -10 -68.001 -16c-44 -16 -66 -39.667 -66 -71
c0 -20 7.33301 -36.5 22 -49.5s36.334 -19.5 65.001 -19.5z" />
    <glyph glyph-name="guillemotleft" unicode="&#xab;" horiz-adv-x="1139" 
d="M897 100l-350 441l350 440l115 -91l-279 -349l279 -350zM510 100l-350 441l350 440l115 -91l-278 -349l278 -350z" />
    <glyph glyph-name="logicalnot" unicode="&#xac;" horiz-adv-x="1200" 
d="M912 378v239h-792v168h960v-407h-168z" />
    <glyph glyph-name="uni00AD" unicode="&#xad;" horiz-adv-x="840" 
d="M120 547v168h600v-168h-600z" />
    <glyph glyph-name="registered" unicode="&#xae;" horiz-adv-x="1290" 
d="M645 555c-92.667 0 -177.167 22.833 -253.5 68.5s-137.333 106.834 -183 183.501s-68.5 161.334 -68.5 254.001s22.833 177.167 68.5 253.5s106.667 137.166 183 182.499s160.833 68 253.5 68s177.167 -22.667 253.5 -68s137.333 -106.166 183 -182.499
s68.5 -160.833 68.5 -253.5s-22.833 -177.334 -68.5 -254.001s-106.667 -137.834 -183 -183.501s-160.833 -68.5 -253.5 -68.5zM646 701c65.333 0 125.333 16.333 180 49s98.334 76.334 131.001 131.001s49 114.667 49 180c0 66.667 -16.333 127.167 -49 181.5
s-76.334 97.666 -131.001 129.999s-114.667 48.5 -180 48.5c-66.667 0 -127.334 -16.167 -182.001 -48.5s-98.167 -75.666 -130.5 -129.999s-48.5 -114.833 -48.5 -181.5c0 -65.333 16.167 -125.333 48.5 -180s75.833 -98.334 130.5 -131.001s115.334 -49 182.001 -49z
M480 827l-0.000976562 471.001h201c47.333 0 85.5 -14.5 114.5 -43.5s44.167 -66.167 45.5 -111.5c0 -28 -7.16699 -54.333 -21.5 -79s-35.166 -44.334 -62.499 -59.001l88 -178h-96l-78 163h-107v-163h-84zM563.999 1069l118.999 0.000976562c20 0 37 7 51 21
s21 31.667 21 53c0 23.333 -6.66699 41.666 -20 54.999s-30.666 20 -51.999 20h-119v-149z" />
    <glyph glyph-name="macron" unicode="&#xaf;" horiz-adv-x="1003" 
d="M240 1680v167h523v-167h-523z" />
    <glyph glyph-name="degree" unicode="&#xb0;" horiz-adv-x="900" 
d="M420 750c-66 0 -126.333 16.165 -181 48.498s-98.167 75.666 -130.5 129.999s-48.5 114.833 -48.5 181.5c0 65.333 16.667 125.333 50 180s77.333 98.334 132 131.001s114 49 178 49c66 0 126.167 -16.167 180.5 -48.5s97.833 -75.666 130.5 -129.999
s49 -114.833 49 -181.5s-16.333 -127.167 -49 -181.5s-76.167 -97.666 -130.5 -129.999s-114.5 -48.5 -180.5 -48.5zM420 930.998c48.667 0 90.667 17.833 126 53.5s53 77.5 53 125.5c0 48.667 -17.667 90.667 -53 126s-77.333 53 -126 53s-90.667 -17.667 -126 -53
s-53 -77.333 -53 -126c0 -48 17.667 -89.833 53 -125.5s77.333 -53.5 126 -53.5z" />
    <glyph glyph-name="plusminus" unicode="&#xb1;" horiz-adv-x="1200" 
d="M517 440v237h-397v168h397v235h168v-235h395v-168h-395v-237h-168zM120 139v168h960v-168h-960z" />
    <glyph glyph-name="uni00B2" unicode="&#xb2;" horiz-adv-x="816" 
d="M100 540l1.00293 124.003l388 349c30.667 27.333 52 53.166 64 77.499s18 48.166 18 71.499c0 47.333 -14.833 86.666 -44.5 117.999s-67.834 47 -114.501 47c-48.667 0 -88.667 -16.333 -120 -49s-46.333 -70.667 -45 -114h-145c0 89.333 29.167 161 87.5 215
s133.5 81 225.5 81c57.333 0 108.666 -12.833 153.999 -38.5s81.166 -61 107.499 -106s39.5 -96.5 39.5 -154.5c0 -63.333 -12.833 -112.833 -38.5 -148.5s-63.5 -75.5 -113.5 -119.5l-245 -220h397v-133h-616z" />
    <glyph glyph-name="uni00B3" unicode="&#xb3;" horiz-adv-x="799" 
d="M373 519c-67.333 0 -128.17 19 -182.503 57s-91.166 90 -110.499 156l137 37c11.333 -38 31.5 -66.833 60.5 -86.5s60.833 -29.5 95.5 -29.5c47.333 0.666992 86.166 16.5 116.499 47.5s45.5 69.833 45.5 116.5c0 47.333 -15.167 86.833 -45.5 118.5
s-69.166 47.5 -116.499 47.5c-27.333 0 -54.666 -7.33301 -81.999 -22l-66 111l267 234h-376v134h549v-135l-215 -206c71.333 -11.333 127.333 -43.333 168 -96s61 -114.667 61 -186c0 -57.333 -13.667 -108.5 -41 -153.5s-64.166 -80.333 -110.499 -106
s-97.833 -38.5 -154.5 -38.5z" />
    <glyph glyph-name="acute" unicode="&#xb4;" horiz-adv-x="1045" 
d="M570 1600h-164l143 350h164z" />
    <glyph glyph-name="uni00B5" unicode="&#xb5;" horiz-adv-x="1249" 
d="M139 -480v1560h212v-531c0 -42 3.5 -85.167 10.5 -129.5s20.167 -85.5 39.5 -123.5s46.833 -68.667 82.5 -92s82.167 -35 139.5 -35c50.667 0 96.667 11.333 138 34s74.5 59.5 99.5 110.5s37.5 119.167 37.5 204.5v562h211v-1080h-186v133
c-81.333 -108 -200.333 -162 -357 -162c-100.667 0 -181 28.333 -241 85v-536h-186z" />
    <glyph glyph-name="paragraph" unicode="&#xb6;" horiz-adv-x="1377" 
d="M678 -282l-0.000976562 799.001h-93c-7.33301 0 -21.333 0.5 -42 1.5s-43.334 3.16699 -68.001 6.5c-118.667 18 -208.667 69 -270 153s-92 184.333 -92 301c0 76.667 13.333 147.167 40 211.5s66.834 117.666 120.501 159.999s120.834 69.5 201.501 81.5
c24.667 3.33301 47.167 5.5 67.5 6.5s34.5 1.5 42.5 1.5h302v-1722h-209zM1054 -281.999v1722h209v-1722h-209z" />
    <glyph glyph-name="periodcentered" unicode="&#xb7;" horiz-adv-x="507" 
d="M257 497c-38.667 0 -71.167 12.667 -97.5 38s-39.5 57 -39.5 95s13.167 69.667 39.5 95s58.833 38 97.5 38c34.667 0 65 -12.667 91 -38s39 -57 39 -95s-13 -69.667 -39 -95s-56.333 -38 -91 -38z" />
    <glyph glyph-name="cedilla" unicode="&#xb8;" horiz-adv-x="816" 
d="M375 -482c-26 0 -50.168 3.33398 -72.501 10.001s-43.166 15 -62.499 25l48 128c28.667 -9.33301 51.667 -14 69 -14c22 0 38.833 6.5 50.5 19.5s17.5 27.167 17.5 42.5c0 27.333 -13.167 47.166 -39.5 59.499s-56.833 23.833 -91.5 34.5l72 204l133 2l-43 -124
c37.333 -18 66.833 -42 88.5 -72s32.5 -66.667 32.5 -110c0 -60 -20 -109.167 -60 -147.5s-87.333 -57.5 -142 -57.5z" />
    <glyph glyph-name="uni00B9" unicode="&#xb9;" horiz-adv-x="673" 
d="M289 540v746l-169 -103v156l169 101h144v-900h-144z" />
    <glyph glyph-name="ordmasculine" unicode="&#xba;" horiz-adv-x="698" 
d="M349 540c-81.333 0 -146.5 26.667 -195.5 80s-73.5 121.666 -73.5 204.999c0 84.667 24.833 153.334 74.5 206.001s114.5 79 194.5 79c81.333 0 146.5 -26.5 195.5 -79.5s73.5 -121.5 73.5 -205.5s-24.667 -152.5 -74 -205.5s-114.333 -79.5 -195 -79.5zM349 653
c47.333 0 82.833 16 106.5 48s35.5 73.333 35.5 124c0 52.667 -12 94.5 -36 125.5s-59.333 46.5 -106 46.5c-48.667 0 -84.334 -15.833 -107.001 -47.5s-34 -73.167 -34 -124.5c0 -52.667 11.833 -94.5 35.5 -125.5s58.834 -46.5 105.501 -46.5z" />
    <glyph glyph-name="guillemotright" unicode="&#xbb;" horiz-adv-x="1139" 
d="M242 100l-115 91l278 350l-278 349l115 91l350 -440zM629 100l-116 91l279 350l-279 349l116 91l350 -440z" />
    <glyph glyph-name="onequarter" unicode="&#xbc;" horiz-adv-x="2029" 
d="M476 0l-127 96l1007 1353l127 -96zM289 540v746l-169 -103v156l169 101h144v-900h-144zM1561 0v153h-404v133l291 614h161l-290 -614h242v239h142v-239h86v-133h-86v-153h-142z" />
    <glyph glyph-name="onehalf" unicode="&#xbd;" horiz-adv-x="1975" 
d="M476 0l-127 96l1007 1353l127 -96zM289 540v746l-169 -103v156l169 101h144v-900h-144zM1259 0l-0.000976562 124.003l389 349c30.667 27.333 51.834 53.166 63.501 77.499s17.5 48.166 17.5 71.499c0 47.333 -14.833 86.666 -44.5 117.999s-67.5 47 -113.5 47
c-48.667 0 -88.667 -16.333 -120 -49s-46.333 -70.667 -45 -114h-145c0 89.333 29 161 87 215s133 81 225 81c57.333 0 108.833 -12.833 154.5 -38.5s81.667 -61 108 -106s39.5 -96.5 39.5 -154.5c0 -63.333 -12.833 -112.833 -38.5 -148.5s-63.5 -75.5 -113.5 -119.5
l-246 -220h398v-133h-616z" />
    <glyph glyph-name="threequarters" unicode="&#xbe;" horiz-adv-x="2023" 
d="M602 0l-127 96l1007 1353l127 -96zM373 519c-67.333 0 -128.17 19 -182.503 57s-91.166 90 -110.499 156l137 37c11.333 -38 31.5 -66.833 60.5 -86.5s60.833 -29.5 95.5 -29.5c47.333 0.666992 86.166 16.5 116.499 47.5s45.5 69.833 45.5 116.5
c0 47.333 -15.167 86.833 -45.5 118.5s-69.166 47.5 -116.499 47.5c-27.333 0 -54.666 -7.33301 -81.999 -22l-66 111l267 234h-376v134h549v-135l-215 -206c71.333 -11.333 127.333 -43.333 168 -96s61 -114.667 61 -186c0 -57.333 -13.667 -108.5 -41 -153.5
s-64.166 -80.333 -110.499 -106s-97.833 -38.5 -154.5 -38.5zM1675 0v153h-404v133l291 614h161l-290 -614h242v239h142v-239h86v-133h-86v-153h-142z" />
    <glyph glyph-name="questiondown" unicode="&#xbf;" horiz-adv-x="1087" 
d="M679 689c0 -48 -3.83691 -92.999 -11.5039 -134.999s-22.167 -82 -43.5 -120c-18 -36 -39.167 -65.167 -63.5 -87.5s-51 -44.333 -80 -66s-59.5 -49.5 -91.5 -83.5c-26.667 -29.333 -44.5 -59 -53.5 -89s-13.5 -62.333 -13.5 -97c0 -54 13 -96.667 39 -128
c21.333 -26.667 48.333 -45.5 81 -56.5s66.667 -16.5 102 -16.5c32.667 0 63.334 4.33301 92.001 13s52.334 22 71.001 40c21.333 17.333 36.833 38.833 46.5 64.5s14.167 53.5 13.5 83.5h220c-5.33301 -62 -21.333 -120.5 -48 -175.5s-62.667 -99.5 -108 -133.5
c-38.667 -30.667 -82.667 -53.5 -132 -68.5s-98.666 -22.5 -147.999 -22.5c-70.667 0 -137.5 11 -200.5 33s-115.5 57.667 -157.5 107c-30.667 34.667 -53.834 74.167 -69.501 118.5s-23.5 90.166 -23.5 137.499c0 64 13.5 123 40.5 177s61.5 103 103.5 147
c32.667 35.333 65.834 66 99.501 92s59.5 54.667 77.5 86c18.667 31.333 29.334 59 32.001 83s4 56.333 4 97h222zM676.996 1080v-242h-220v242h220z" />
    <glyph glyph-name="Agrave" unicode="&#xc0;" horiz-adv-x="1317" 
d="M555 1600l-142 350h164l142 -350h-164zM1277 0h-217l-105 325h-592l-106 -325h-217l468 1440h301zM891 521l-230 709l-233 -709h463z" />
    <glyph glyph-name="Aacute" unicode="&#xc1;" horiz-adv-x="1317" 
d="M761 1600h-164l143 350h164zM40 0l468 1440h301l468 -1440h-217l-107 325h-591l-105 -325h-217zM426 521h463l-233 709z" />
    <glyph glyph-name="Acircumflex" unicode="&#xc2;" horiz-adv-x="1317" 
d="M308 1600l258 300h181l258 -300h-200l-148 177l-149 -177h-200zM40 0l468 1440h301l468 -1440h-217l-107 325h-591l-105 -325h-217zM426 521h463l-233 709z" />
    <glyph glyph-name="Atilde" unicode="&#xc3;" horiz-adv-x="1317" 
d="M820 1654c-30 0 -59.165 6.50195 -87.498 19.502s-55.5 28.167 -81.5 45.5s-50.333 32.666 -73 45.999s-44 20 -64 20c-22.667 0 -37.834 -10.833 -45.501 -32.5s-7.5 -46.834 0.5 -75.501h-136c-18 73.333 -13 135.666 15 186.999s77.667 77 149 77
c30.667 0 60.167 -6.66699 88.5 -20s55.5 -28.666 81.5 -45.999s50.5 -32.5 73.5 -45.5s44.167 -19.5 63.5 -19.5c22 0 37.167 10.5 45.5 31.5s8.16602 46.833 -0.500977 77.5h136c18 -73.333 13 -135.833 -15 -187.5s-78 -77.5 -150 -77.5zM40.002 0.00195312l468 1440h301
l468 -1440h-217l-107 325h-591l-105 -325h-217zM426.002 521.002h463l-233 709z" />
    <glyph glyph-name="Adieresis" unicode="&#xc4;" horiz-adv-x="1317" 
d="M761 1621v200h200v-200h-200zM358 1621v200h200v-200h-200zM40 0l468 1440h301l468 -1440h-217l-107 325h-591l-105 -325h-217zM426 521h463l-233 709z" />
    <glyph glyph-name="Aring" unicode="&#xc5;" horiz-adv-x="1317" 
d="M659 1553c-44.667 0 -85.5 11.167 -122.5 33.5s-66.5 52 -88.5 89s-33 77.833 -33 122.5s11 85.5 33 122.5s51.5 66.667 88.5 89s77.833 33.5 122.5 33.5c45.333 0 86.5 -11.167 123.5 -33.5s66.5 -52 88.5 -89s33 -77.833 33 -122.5s-11 -85.5 -33 -122.5
s-51.5 -66.667 -88.5 -89s-78.167 -33.5 -123.5 -33.5zM659 1688c30.667 0 56.667 10.833 78 32.5s32 47.5 32 77.5c0 30.667 -10.667 56.667 -32 78s-47.333 32 -78 32c-30 0 -55.833 -10.667 -77.5 -32s-32.5 -47.333 -32.5 -78c0 -30 10.833 -55.833 32.5 -77.5
s47.5 -32.5 77.5 -32.5zM40 0l468 1440h301l468 -1440h-217l-107 325h-591l-105 -325h-217zM426 521h463l-233 709z" />
    <glyph glyph-name="AE" unicode="&#xc6;" horiz-adv-x="1863" 
d="M40 0l468 1440h1255v-197h-710v-404h590v-197h-590v-445h710v-197h-920v325h-481l-105 -325h-217zM425 521h418v722h-183z" />
    <glyph glyph-name="Ccedilla" unicode="&#xc7;" horiz-adv-x="1461" 
d="M721 -482c-26 0 -49.999 3.33398 -71.999 10.001s-42.667 15 -62 25l48 128c28.667 -9.33301 51.334 -14 68.001 -14c22 0 39 6.5 51 19.5s18 27.167 18 42.5c0 27.333 -13.333 47.166 -40 59.499s-57 23.833 -91 34.5l52 148c-134 7.33301 -248.167 43.333 -342.5 108
s-166.333 152 -216 262s-74.5 236.333 -74.5 379c0 148.667 26.833 279.334 80.5 392.001s131.167 200.5 232.5 263.5s224 94.5 368 94.5c166 0 303.5 -42 412.5 -126s184.833 -197 227.5 -339l-212 -57c-28.667 100.667 -78.667 179.667 -150 237s-164 86 -278 86
c-102 0 -187 -23 -255 -69s-119.167 -110.333 -153.5 -193s-51.5 -179 -51.5 -289c-0.666992 -110 16.166 -206.333 50.499 -289s85.666 -147 153.999 -193s153.5 -69 255.5 -69c114 0 206.667 28.667 278 86s121.333 136.333 150 237l212 -57
c-38.667 -129.333 -105.167 -234.833 -199.5 -316.5s-212.5 -129.834 -354.5 -144.501l-24 -69c37.333 -18 66.833 -42 88.5 -72s32.5 -66.667 32.5 -110c0 -60 -20.167 -109.167 -60.5 -147.5s-87.833 -57.5 -142.5 -57.5z" />
    <glyph glyph-name="Egrave" unicode="&#xc8;" horiz-adv-x="1160" 
d="M542 1600l-143 350h164l143 -350h-164zM140 0v1440h920v-197h-711v-404h591v-197h-591v-445h711v-197h-920z" />
    <glyph glyph-name="Eacute" unicode="&#xc9;" horiz-adv-x="1160" 
d="M708 1600h-164l143 350h164zM140 0v1440h920v-197h-711v-404h591v-197h-591v-445h711v-197h-920z" />
    <glyph glyph-name="Ecircumflex" unicode="&#xca;" horiz-adv-x="1160" 
d="M239 1600l258 300h181l258 -300h-200l-149 177l-148 -177h-200zM140 0v1440h920v-197h-711v-404h591v-197h-591v-445h711v-197h-920z" />
    <glyph glyph-name="Edieresis" unicode="&#xcb;" horiz-adv-x="1160" 
d="M690 1621v200h200v-200h-200zM287 1621v200h200v-200h-200zM140 0v1440h920v-197h-711v-404h591v-197h-591v-445h711v-197h-920z" />
    <glyph glyph-name="Igrave" unicode="&#xcc;" horiz-adv-x="529" 
d="M179 1600l-142 350h164l142 -350h-164zM160 0v1440h209v-1440h-209z" />
    <glyph glyph-name="Iacute" unicode="&#xcd;" horiz-adv-x="529" 
d="M350 1600h-164l143 350h164zM160 0v1440h209v-1440h-209z" />
    <glyph glyph-name="Icircumflex" unicode="&#xce;" horiz-adv-x="529" 
d="M-87 1600l259 300h180l259 -300h-200l-149 177l-149 -177h-200zM160 0v1440h209v-1440h-209z" />
    <glyph glyph-name="Idieresis" unicode="&#xcf;" horiz-adv-x="529" 
d="M366 1621v200h200v-200h-200zM-37 1621v200h200v-200h-200zM160 0v1440h209v-1440h-209z" />
    <glyph glyph-name="Eth" unicode="&#xd0;" horiz-adv-x="1379" 
d="M138 0l0.000976562 637.001h-118v168h118v635h451c13.333 0 38 -0.333008 74 -1s71 -3.33398 105 -8.00098c112.667 -14 207.5 -54.333 284.5 -121s135.167 -151.167 174.5 -253.5s59 -214.5 59 -336.5c0 -122.667 -19.667 -235.167 -59 -337.5
s-97.5 -186.666 -174.5 -252.999s-171.833 -106.5 -284.5 -120.5c-33.333 -4.66699 -68.333 -7.33398 -105 -8.00098s-61.334 -1 -74.001 -1h-451zM352.001 199.001l237 -0.000976562c22.667 0 49.667 0.5 81 1.5s59 3.83301 83 8.5c73.333 14 132.833 45.833 178.5 95.5
s79.167 110.834 100.5 183.501s32 150 32 232c0 84.667 -11 163.167 -33 235.5s-55.833 133 -101.5 182s-104.5 80.167 -176.5 93.5c-24 4.66699 -51.833 7.5 -83.5 8.5s-58.5 1.5 -80.5 1.5h-237v-436h328v-168h-328v-438z" />
    <glyph glyph-name="Ntilde" unicode="&#xd1;" horiz-adv-x="1413" 
d="M891 1604c-30 0 -59.166 6.50195 -87.499 19.502s-55.333 28.167 -81 45.5s-50 32.666 -73 45.999s-44.5 20 -64.5 20c-22.667 0 -37.834 -10.833 -45.501 -32.5s-7.16699 -46.834 1.5 -75.501h-136c-18 73.333 -13 135.666 15 186.999s77.667 77 149 77
c30 0 59.333 -6.66699 88 -20s55.834 -28.666 81.501 -45.999s50 -32.5 73 -45.5s44.167 -19.5 63.5 -19.5c22 0 37.167 10.5 45.5 31.5s8.16602 46.833 -0.500977 77.5h136c18 -73.333 13 -135.833 -15 -187.5s-78 -77.5 -150 -77.5zM140.001 0.00195312v1440h212
l709 -1070v1070h212v-1440h-212l-709 1071v-1071h-212z" />
    <glyph glyph-name="Ograve" unicode="&#xd2;" horiz-adv-x="1481" 
d="M643 1600l-143 350h164l143 -350h-164zM741 -30c-144 0 -266.667 31.5 -368 94.5s-178.833 150.833 -232.5 263.5s-80.5 243.334 -80.5 392.001s26.833 279.334 80.5 392.001s131.167 200.5 232.5 263.5s224 94.5 368 94.5c143.333 0 265.833 -31.5 367.5 -94.5
s179.167 -150.833 232.5 -263.5s80 -243.334 80 -392.001s-26.667 -279.334 -80 -392.001s-130.833 -200.5 -232.5 -263.5s-224.167 -94.5 -367.5 -94.5zM741 169c102 -1.33301 187.001 21.1699 255.001 67.5029s118.833 111 152.5 194s50.5 179.5 50.5 289.5
c0 165.333 -38.167 298.166 -114.5 398.499s-190.833 151.166 -343.5 152.499c-102 1.33301 -187 -21.167 -255 -67.5s-118.833 -111 -152.5 -194s-50.834 -179.5 -51.501 -289.5c-0.666992 -164.667 37.333 -297.334 114 -398.001s191.667 -151.667 345 -153z" />
    <glyph glyph-name="Oacute" unicode="&#xd3;" horiz-adv-x="1481" 
d="M835 1600h-164l143 350h164zM741 -30c-144 0 -266.667 31.5 -368 94.5s-178.833 150.833 -232.5 263.5s-80.5 243.334 -80.5 392.001s26.833 279.334 80.5 392.001s131.167 200.5 232.5 263.5s224 94.5 368 94.5c143.333 0 265.833 -31.5 367.5 -94.5
s179.167 -150.833 232.5 -263.5s80 -243.334 80 -392.001s-26.667 -279.334 -80 -392.001s-130.833 -200.5 -232.5 -263.5s-224.167 -94.5 -367.5 -94.5zM741 169c102 -1.33301 187.001 21.1699 255.001 67.5029s118.833 111 152.5 194s50.5 179.5 50.5 289.5
c0 165.333 -38.167 298.166 -114.5 398.499s-190.833 151.166 -343.5 152.499c-102 1.33301 -187 -21.167 -255 -67.5s-118.833 -111 -152.5 -194s-50.834 -179.5 -51.501 -289.5c-0.666992 -164.667 37.333 -297.334 114 -398.001s191.667 -151.667 345 -153z" />
    <glyph glyph-name="Ocircumflex" unicode="&#xd4;" horiz-adv-x="1481" 
d="M389 1600l259 300h180l259 -300h-200l-149 177l-149 -177h-200zM741 -30c-144 0 -266.667 31.5 -368 94.5s-178.833 150.833 -232.5 263.5s-80.5 243.334 -80.5 392.001s26.833 279.334 80.5 392.001s131.167 200.5 232.5 263.5s224 94.5 368 94.5
c143.333 0 265.833 -31.5 367.5 -94.5s179.167 -150.833 232.5 -263.5s80 -243.334 80 -392.001s-26.667 -279.334 -80 -392.001s-130.833 -200.5 -232.5 -263.5s-224.167 -94.5 -367.5 -94.5zM741 169c102 -1.33301 187.001 21.1699 255.001 67.5029s118.833 111 152.5 194
s50.5 179.5 50.5 289.5c0 165.333 -38.167 298.166 -114.5 398.499s-190.833 151.166 -343.5 152.499c-102 1.33301 -187 -21.167 -255 -67.5s-118.833 -111 -152.5 -194s-50.834 -179.5 -51.501 -289.5c-0.666992 -164.667 37.333 -297.334 114 -398.001
s191.667 -151.667 345 -153z" />
    <glyph glyph-name="Otilde" unicode="&#xd5;" horiz-adv-x="1481" 
d="M741 -30c-144 0 -266.667 31.5 -368 94.5s-178.833 150.833 -232.5 263.5s-80.5 243.334 -80.5 392.001s26.833 279.334 80.5 392.001s131.167 200.5 232.5 263.5s224 94.5 368 94.5c143.333 0 265.833 -31.5 367.5 -94.5s179.167 -150.833 232.5 -263.5
s80 -243.334 80 -392.001s-26.667 -279.334 -80 -392.001s-130.833 -200.5 -232.5 -263.5s-224.167 -94.5 -367.5 -94.5zM741 169c102 -1.33301 187.001 21.1699 255.001 67.5029s118.833 111 152.5 194s50.5 179.5 50.5 289.5c0 165.333 -38.167 298.166 -114.5 398.499
s-190.833 151.166 -343.5 152.499c-102 1.33301 -187 -21.167 -255 -67.5s-118.833 -111 -152.5 -194s-50.834 -179.5 -51.501 -289.5c-0.666992 -164.667 37.333 -297.334 114 -398.001s191.667 -151.667 345 -153zM915.001 1604c-30 0 -59.165 6.50195 -87.498 19.502
s-55.5 28.167 -81.5 45.5s-50.333 32.666 -73 45.999s-44 20 -64 20c-22.667 0 -37.834 -10.833 -45.501 -32.5s-7.5 -46.834 0.5 -75.501h-136c-18 73.333 -13 135.666 15 186.999s77.667 77 149 77c30.667 0 60.167 -6.66699 88.5 -20s55.5 -28.666 81.5 -45.999
s50.5 -32.5 73.5 -45.5s44.167 -19.5 63.5 -19.5c22 0 37.167 10.5 45.5 31.5s8.16602 46.833 -0.500977 77.5h136c18 -73.333 13 -135.833 -15 -187.5s-78 -77.5 -150 -77.5z" />
    <glyph glyph-name="Odieresis" unicode="&#xd6;" horiz-adv-x="1481" 
d="M842 1621v200h200v-200h-200zM439 1621v200h200v-200h-200zM741 -30c-144 0 -266.667 31.5 -368 94.5s-178.833 150.833 -232.5 263.5s-80.5 243.334 -80.5 392.001s26.833 279.334 80.5 392.001s131.167 200.5 232.5 263.5s224 94.5 368 94.5
c143.333 0 265.833 -31.5 367.5 -94.5s179.167 -150.833 232.5 -263.5s80 -243.334 80 -392.001s-26.667 -279.334 -80 -392.001s-130.833 -200.5 -232.5 -263.5s-224.167 -94.5 -367.5 -94.5zM741 169c102 -1.33301 187.001 21.1699 255.001 67.5029s118.833 111 152.5 194
s50.5 179.5 50.5 289.5c0 165.333 -38.167 298.166 -114.5 398.499s-190.833 151.166 -343.5 152.499c-102 1.33301 -187 -21.167 -255 -67.5s-118.833 -111 -152.5 -194s-50.834 -179.5 -51.501 -289.5c-0.666992 -164.667 37.333 -297.334 114 -398.001
s191.667 -151.667 345 -153z" />
    <glyph glyph-name="multiply" unicode="&#xd7;" horiz-adv-x="1001" 
d="M762 340l-262 262l-261 -262l-119 119l261 262l-260 260l119 119l260 -260l261 260l119 -119l-261 -260l262 -262z" />
    <glyph glyph-name="Oslash" unicode="&#xd8;" horiz-adv-x="1481" 
d="M215 -26l-149 133l123 136c-86 128 -129 287 -129 477c0 148.667 26.833 279.334 80.5 392.001s131.167 200.5 232.5 263.5s224 94.5 368 94.5c87.333 0 167 -12 239 -36s135.667 -58.333 191 -103l120 133l149 -133l-136 -151c78 -126 117 -279.333 117 -460
c0 -148.667 -26.667 -279.334 -80 -392.001s-130.833 -200.5 -232.5 -263.5s-224.167 -94.5 -367.5 -94.5c-83.333 0 -159.833 11 -229.5 33s-131.5 53.333 -185.5 94zM282 720c-0.666992 -122 19.3359 -225.999 60.0029 -311.999l691 764
c-36.667 31.333 -79.334 55.666 -128.001 72.999s-103.334 26 -164.001 26c-102 1.33301 -187 -21.167 -255 -67.5s-118.833 -111 -152.5 -194s-50.834 -179.5 -51.501 -289.5zM741.003 169.001c102 -1.33301 187 21.168 255 67.501s118.833 111 152.5 194
s50.5 179.5 50.5 289.5c0 113.333 -17.333 211 -52 293l-684 -758c74 -56.667 166.667 -85.334 278 -86.001z" />
    <glyph glyph-name="Ugrave" unicode="&#xd9;" horiz-adv-x="1428" 
d="M651 1600l-143 350h164l143 -350h-164zM714 -30c-112.667 0 -212.166 23.167 -298.499 69.5s-153.833 111.333 -202.5 195s-73 182.167 -73 295.5v909l212 1v-899c0 -82 17.833 -150.667 53.5 -206s81.167 -97.166 136.5 -125.499s112.666 -42.5 171.999 -42.5
c60.667 0 118.667 14.333 174 43s100.5 70.667 135.5 126s52.5 123.666 52.5 204.999v899h212v-910c0 -112.667 -24.333 -211 -73 -295s-116.167 -149.167 -202.5 -195.5s-185.833 -69.5 -298.5 -69.5z" />
    <glyph glyph-name="Uacute" unicode="&#xda;" horiz-adv-x="1428" 
d="M787 1600h-164l143 350h164zM714 -30c-112.667 0 -212.166 23.167 -298.499 69.5s-153.833 111.333 -202.5 195s-73 182.167 -73 295.5v909l212 1v-899c0 -82 17.833 -150.667 53.5 -206s81.167 -97.166 136.5 -125.499s112.666 -42.5 171.999 -42.5
c60.667 0 118.667 14.333 174 43s100.5 70.667 135.5 126s52.5 123.666 52.5 204.999v899h212v-910c0 -112.667 -24.333 -211 -73 -295s-116.167 -149.167 -202.5 -195.5s-185.833 -69.5 -298.5 -69.5z" />
    <glyph glyph-name="Ucircumflex" unicode="&#xdb;" horiz-adv-x="1428" 
d="M363 1600l258 300h181l258 -300h-200l-149 177l-148 -177h-200zM714 -30c-112.667 0 -212.166 23.167 -298.499 69.5s-153.833 111.333 -202.5 195s-73 182.167 -73 295.5v909l212 1v-899c0 -82 17.833 -150.667 53.5 -206s81.167 -97.166 136.5 -125.499
s112.666 -42.5 171.999 -42.5c60.667 0 118.667 14.333 174 43s100.5 70.667 135.5 126s52.5 123.666 52.5 204.999v899h212v-910c0 -112.667 -24.333 -211 -73 -295s-116.167 -149.167 -202.5 -195.5s-185.833 -69.5 -298.5 -69.5z" />
    <glyph glyph-name="Udieresis" unicode="&#xdc;" horiz-adv-x="1428" 
d="M815 1621v200h200v-200h-200zM413 1621v200h200v-200h-200zM714 -30c-112.667 0 -212.166 23.167 -298.499 69.5s-153.833 111.333 -202.5 195s-73 182.167 -73 295.5v909l212 1v-899c0 -82 17.833 -150.667 53.5 -206s81.167 -97.166 136.5 -125.499
s112.666 -42.5 171.999 -42.5c60.667 0 118.667 14.333 174 43s100.5 70.667 135.5 126s52.5 123.666 52.5 204.999v899h212v-910c0 -112.667 -24.333 -211 -73 -295s-116.167 -149.167 -202.5 -195.5s-185.833 -69.5 -298.5 -69.5z" />
    <glyph glyph-name="Yacute" unicode="&#xdd;" horiz-adv-x="1186" 
d="M665 1600h-164l143 350h164zM487 0v595l-487 845h244l349 -605l349 605h244l-487 -845v-595h-212z" />
    <glyph glyph-name="Thorn" unicode="&#xde;" horiz-adv-x="1237" 
d="M140 0l-0.00195312 1440h212v-259h359c50.667 0 100.334 -8 149.001 -24c85.333 -28 154.333 -76.333 207 -145c34.667 -40 61.5 -85.5 80.5 -136.5s28.833 -102.833 29.5 -155.5c0.666992 -51.333 -8.33301 -101.666 -27 -150.999s-43.667 -94 -75 -134
c-41.333 -53.333 -94.166 -95.833 -158.499 -127.5s-132.833 -47.5 -205.5 -47.5h-359v-260h-212zM351.998 456.999h358.001c34 0 69 8.83301 105 26.5s66.333 42.167 91 73.5c18 23.333 32.167 48.833 42.5 76.5s15.166 56.5 14.499 86.5
c-1.33301 33.333 -7.83301 65.333 -19.5 96s-28.5 58 -50.5 82c-22.667 24.667 -50.5 45 -83.5 61s-66.167 24 -99.5 24h-358v-526z" />
    <glyph glyph-name="germandbls" unicode="&#xdf;" horiz-adv-x="1245" 
d="M667 -29c-77.333 0 -138.665 9.66797 -183.998 29.001v205c22 -8 45.833 -14.667 71.5 -20s54.5 -8 86.5 -8c82 0 147.833 20.667 197.5 62s74.5 102.333 74.5 183c0 83.333 -31.5 145.666 -94.5 186.999s-145.167 62.333 -246.5 63v185c65.333 6 118.333 26.5 159 61.5
s61 84.833 61 149.5s-21.333 115 -64 151s-95 54 -157 54c-42 0 -80.5 -8.83301 -115.5 -26.5s-61.5 -46.834 -79.5 -87.501c-8.66699 -19.333 -14.834 -42.666 -18.501 -69.999s-5.5 -55.333 -5.5 -84v-1005h-213v1061c0 59.333 6.66699 109.333 20 150
c30 90 82.5 155.667 157.5 197s159.833 62 254.5 62c82 0 155.667 -16.667 221 -50s117.166 -80 155.499 -140s57.5 -129.667 57.5 -209c0 -59.333 -11.667 -113.333 -35 -162s-58 -87.334 -104 -116.001c44.667 -13.333 86.667 -37 126 -71s71.333 -76.667 96 -128
s37 -109.666 37 -174.999c0 -138 -39.333 -247.167 -118 -327.5s-192 -120.5 -340 -120.5z" />
    <glyph glyph-name="agrave" unicode="&#xe0;" horiz-adv-x="1139" 
d="M501 1240l-142 350h164l142 -350h-164zM445 -30c-80 0 -147 14.8291 -201 44.4961s-94.833 69 -122.5 118s-41.5 102.833 -41.5 161.5c0 81.333 21.667 148.333 65 201s106.666 92.334 189.999 119.001c62.667 18.667 136.167 34.334 220.5 47.001l257.5 37
c-3.33301 74.667 -23.833 129.834 -61.5 165.501s-98.5 53.5 -182.5 53.5c-56.667 0 -108.667 -13.333 -156 -40s-80.333 -70 -99 -130l-195 60c26 92.667 76.667 166.334 152 221.001s175.333 82 300 82c96.667 0 180.834 -16.5 252.501 -49.5
s124.167 -85.167 157.5 -156.5c16.667 -36 27.167 -73.667 31.5 -113s6.5 -81.333 6.5 -126v-665h-185v157c-87.333 -124.667 -217 -187 -389 -187zM482 140.996c59.333 0 110.497 10.5029 153.497 31.5029s77.333 47.833 103 80.5s42.5 66.667 50.5 102
c8.66699 24.667 14.334 52.667 17.001 84s4.33398 59.666 5.00098 84.999l-214.5 -32.5c-61.667 -9.66699 -115.167 -21.5 -160.5 -35.5c-42.667 -14.667 -78.167 -34.334 -106.5 -59.001s-42.5 -58.334 -42.5 -101.001c0 -42 15.833 -78.333 47.5 -109
s80.834 -46 147.501 -46z" />
    <glyph glyph-name="aacute" unicode="&#xe1;" horiz-adv-x="1139" 
d="M668 1240h-164l142 350h164zM445 -30c-80 0 -147 14.8291 -201 44.4961s-94.833 69 -122.5 118s-41.5 102.833 -41.5 161.5c0 81.333 21.667 148.333 65 201s106.666 92.334 189.999 119.001c62.667 18.667 136.167 34.334 220.5 47.001l257.5 37
c-3.33301 74.667 -23.833 129.834 -61.5 165.501s-98.5 53.5 -182.5 53.5c-56.667 0 -108.667 -13.333 -156 -40s-80.333 -70 -99 -130l-195 60c26 92.667 76.667 166.334 152 221.001s175.333 82 300 82c96.667 0 180.834 -16.5 252.501 -49.5
s124.167 -85.167 157.5 -156.5c16.667 -36 27.167 -73.667 31.5 -113s6.5 -81.333 6.5 -126v-665h-185v157c-87.333 -124.667 -217 -187 -389 -187zM482 140.996c59.333 0 110.497 10.5029 153.497 31.5029s77.333 47.833 103 80.5s42.5 66.667 50.5 102
c8.66699 24.667 14.334 52.667 17.001 84s4.33398 59.666 5.00098 84.999l-214.5 -32.5c-61.667 -9.66699 -115.167 -21.5 -160.5 -35.5c-42.667 -14.667 -78.167 -34.334 -106.5 -59.001s-42.5 -58.334 -42.5 -101.001c0 -42 15.833 -78.333 47.5 -109
s80.834 -46 147.501 -46z" />
    <glyph glyph-name="acircumflex" unicode="&#xe2;" horiz-adv-x="1139" 
d="M235 1240l258 300h181l258 -300h-200l-149 177l-148 -177h-200zM445 -30c-80 0 -147 14.8291 -201 44.4961s-94.833 69 -122.5 118s-41.5 102.833 -41.5 161.5c0 81.333 21.667 148.333 65 201s106.666 92.334 189.999 119.001
c62.667 18.667 136.167 34.334 220.5 47.001l257.5 37c-3.33301 74.667 -23.833 129.834 -61.5 165.501s-98.5 53.5 -182.5 53.5c-56.667 0 -108.667 -13.333 -156 -40s-80.333 -70 -99 -130l-195 60c26 92.667 76.667 166.334 152 221.001s175.333 82 300 82
c96.667 0 180.834 -16.5 252.501 -49.5s124.167 -85.167 157.5 -156.5c16.667 -36 27.167 -73.667 31.5 -113s6.5 -81.333 6.5 -126v-665h-185v157c-87.333 -124.667 -217 -187 -389 -187zM482 140.996c59.333 0 110.497 10.5029 153.497 31.5029s77.333 47.833 103 80.5
s42.5 66.667 50.5 102c8.66699 24.667 14.334 52.667 17.001 84s4.33398 59.666 5.00098 84.999l-214.5 -32.5c-61.667 -9.66699 -115.167 -21.5 -160.5 -35.5c-42.667 -14.667 -78.167 -34.334 -106.5 -59.001s-42.5 -58.334 -42.5 -101.001
c0 -42 15.833 -78.333 47.5 -109s80.834 -46 147.501 -46z" />
    <glyph glyph-name="atilde" unicode="&#xe3;" horiz-adv-x="1139" 
d="M761 1244c-30.667 0 -60.166 6.50195 -88.499 19.502s-55.333 28.167 -81 45.5s-50 32.666 -73 45.999s-44.167 20 -63.5 20c-23.333 0 -38.666 -10.833 -45.999 -32.5s-7 -46.834 1 -75.501h-136c-18 73.333 -13 135.666 15 186.999s77.667 77 149 77
c30.667 0 60.167 -6.66699 88.5 -20s55.333 -28.666 81 -45.999s50 -32.5 73 -45.5s44.5 -19.5 64.5 -19.5c21.333 0 36.166 10.5 44.499 31.5s8.16602 46.833 -0.500977 77.5h136c18 -73.333 13.167 -135.833 -14.5 -187.5s-77.5 -77.5 -149.5 -77.5zM445.001 -29.998
c-80 0 -147 14.8291 -201 44.4961s-94.833 69 -122.5 118s-41.5 102.833 -41.5 161.5c0 81.333 21.667 148.333 65 201s106.666 92.334 189.999 119.001c62.667 18.667 136.167 34.334 220.5 47.001l257.5 37c-3.33301 74.667 -23.833 129.834 -61.5 165.501
s-98.5 53.5 -182.5 53.5c-56.667 0 -108.667 -13.333 -156 -40s-80.333 -70 -99 -130l-195 60c26 92.667 76.667 166.334 152 221.001s175.333 82 300 82c96.667 0 180.834 -16.5 252.501 -49.5s124.167 -85.167 157.5 -156.5c16.667 -36 27.167 -73.667 31.5 -113
s6.5 -81.333 6.5 -126v-665h-185v157c-87.333 -124.667 -217 -187 -389 -187zM482.001 140.998c59.333 0 110.497 10.5029 153.497 31.5029s77.333 47.833 103 80.5s42.5 66.667 50.5 102c8.66699 24.667 14.334 52.667 17.001 84s4.33398 59.666 5.00098 84.999
l-214.5 -32.5c-61.667 -9.66699 -115.167 -21.5 -160.5 -35.5c-42.667 -14.667 -78.167 -34.334 -106.5 -59.001s-42.5 -58.334 -42.5 -101.001c0 -42 15.833 -78.333 47.5 -109s80.834 -46 147.501 -46z" />
    <glyph glyph-name="adieresis" unicode="&#xe4;" horiz-adv-x="1139" 
d="M691 1261v200h200v-200h-200zM288 1261v200h200v-200h-200zM445 -30c-80 0 -147 14.8291 -201 44.4961s-94.833 69 -122.5 118s-41.5 102.833 -41.5 161.5c0 81.333 21.667 148.333 65 201s106.666 92.334 189.999 119.001c62.667 18.667 136.167 34.334 220.5 47.001
l257.5 37c-3.33301 74.667 -23.833 129.834 -61.5 165.501s-98.5 53.5 -182.5 53.5c-56.667 0 -108.667 -13.333 -156 -40s-80.333 -70 -99 -130l-195 60c26 92.667 76.667 166.334 152 221.001s175.333 82 300 82c96.667 0 180.834 -16.5 252.501 -49.5
s124.167 -85.167 157.5 -156.5c16.667 -36 27.167 -73.667 31.5 -113s6.5 -81.333 6.5 -126v-665h-185v157c-87.333 -124.667 -217 -187 -389 -187zM482 140.996c59.333 0 110.497 10.5029 153.497 31.5029s77.333 47.833 103 80.5s42.5 66.667 50.5 102
c8.66699 24.667 14.334 52.667 17.001 84s4.33398 59.666 5.00098 84.999l-214.5 -32.5c-61.667 -9.66699 -115.167 -21.5 -160.5 -35.5c-42.667 -14.667 -78.167 -34.334 -106.5 -59.001s-42.5 -58.334 -42.5 -101.001c0 -42 15.833 -78.333 47.5 -109
s80.834 -46 147.501 -46z" />
    <glyph glyph-name="aring" unicode="&#xe5;" horiz-adv-x="1139" 
d="M583 1193c-44.667 0 -85.5 11.167 -122.5 33.5s-66.667 52 -89 89s-33.5 77.833 -33.5 122.5s11.167 85.5 33.5 122.5s52 66.667 89 89s77.833 33.5 122.5 33.5c45.333 0 86.5 -11.167 123.5 -33.5s66.5 -52 88.5 -89s33 -77.833 33 -122.5s-11 -85.5 -33 -122.5
s-51.5 -66.667 -88.5 -89s-78.167 -33.5 -123.5 -33.5zM583 1328c30.667 0 56.667 10.833 78 32.5s32 47.5 32 77.5c0 30.667 -10.667 56.667 -32 78s-47.333 32 -78 32c-30 0 -55.833 -10.667 -77.5 -32s-32.5 -47.333 -32.5 -78c0 -30 10.833 -55.833 32.5 -77.5
s47.5 -32.5 77.5 -32.5zM445 -30c-80 0 -147 14.8291 -201 44.4961s-94.833 69 -122.5 118s-41.5 102.833 -41.5 161.5c0 81.333 21.667 148.333 65 201s106.666 92.334 189.999 119.001c62.667 18.667 136.167 34.334 220.5 47.001l257.5 37
c-3.33301 74.667 -23.833 129.834 -61.5 165.501s-98.5 53.5 -182.5 53.5c-56.667 0 -108.667 -13.333 -156 -40s-80.333 -70 -99 -130l-195 60c26 92.667 76.667 166.334 152 221.001s175.333 82 300 82c96.667 0 180.834 -16.5 252.501 -49.5
s124.167 -85.167 157.5 -156.5c16.667 -36 27.167 -73.667 31.5 -113s6.5 -81.333 6.5 -126v-665h-185v157c-87.333 -124.667 -217 -187 -389 -187zM482 140.996c59.333 0 110.497 10.5029 153.497 31.5029s77.333 47.833 103 80.5s42.5 66.667 50.5 102
c8.66699 24.667 14.334 52.667 17.001 84s4.33398 59.666 5.00098 84.999l-214.5 -32.5c-61.667 -9.66699 -115.167 -21.5 -160.5 -35.5c-42.667 -14.667 -78.167 -34.334 -106.5 -59.001s-42.5 -58.334 -42.5 -101.001c0 -42 15.833 -78.333 47.5 -109
s80.834 -46 147.501 -46z" />
    <glyph glyph-name="ae" unicode="&#xe6;" horiz-adv-x="1876" 
d="M457 -30c-120.667 0 -213.665 29.6699 -278.998 89.0029s-98 136.666 -98 231.999c0 73.333 17.333 132 52 176s78.5 77.167 131.5 99.5s107.333 38 163 47s104.5 15.5 146.5 19.5l238 19c2.66699 92.667 -17.833 160 -61.5 202s-103.167 63 -178.5 63
c-58.667 0 -111.667 -13 -159 -39s-81 -68.333 -101 -127l-192 59c31.333 88 86.666 160 165.999 216s176.333 84 291 84c88.667 0 164.167 -14.667 226.5 -44s111.166 -70.333 146.499 -123c43.333 52.667 96.5 93.667 159.5 123s133.833 44 212.5 44
c108.667 0 199.167 -26.667 271.5 -80s125.5 -127.333 159.5 -222s47.667 -203.667 41 -327h-761c8 -96 36.167 -172.333 84.5 -229s116.166 -85 203.499 -85c58.667 0 111 14.333 157 43s82 71.667 108 129l193 -65c-38.667 -96.667 -98.834 -171.5 -180.501 -224.5
s-170.834 -79.5 -267.501 -79.5c-97.333 0 -182.666 21.167 -255.999 63.5s-131.333 100.166 -174 173.499c-49.333 -86.667 -112.666 -147.834 -189.999 -183.501s-161.666 -53.5 -252.999 -53.5zM1320 925.003c-86 0 -151.667 -25.3311 -197 -75.998
s-74 -117.334 -86 -200.001h552c-9.33301 87.333 -34.5 155.166 -75.5 203.499s-105.5 72.5 -193.5 72.5zM482.002 139.005c66 0 124.998 15.666 176.998 46.999s89.333 68.333 112 111c16 30.667 26.833 64.334 32.5 101.001s8.83398 71 9.50098 103l-203 -14
c-28 -2 -60.333 -5.66699 -97 -11s-72.167 -14.333 -106.5 -27s-62.833 -31.167 -85.5 -55.5s-34 -56.5 -34 -96.5c0 -48.667 17.333 -87.167 52 -115.5s82.334 -42.5 143.001 -42.5z" />
    <glyph glyph-name="ccedilla" unicode="&#xe7;" horiz-adv-x="1137" 
d="M563 -482c-26 0 -50.167 3.33105 -72.5 9.99805s-43.166 15 -62.499 25l48 128c28.667 -9.33301 51.667 -14 69 -14c22 0 38.833 6.5 50.5 19.5s17.5 27.167 17.5 42.5c0 27.333 -13.167 47.166 -39.5 59.499s-56.833 23.833 -91.5 34.5l53 150
c-96.667 10.667 -178.667 41.5 -246 92.5s-118.833 117.333 -154.5 199s-53.834 173.5 -54.501 275.5c0.666992 111.333 22 209.833 64 295.5s102 152.834 180 201.501s171.667 73 281 73c118 0 218.833 -29.5 302.5 -88.5s138.834 -139.167 165.501 -240.5l-208 -60
c-20.667 60.667 -54.667 107.834 -102 141.501s-101 50.5 -161 50.5c-102.667 0 -178.167 -35.167 -226.5 -105.5s-72.833 -159.5 -73.5 -267.5c0.666992 -111.333 26.167 -201.333 76.5 -270s124.833 -103 223.5 -103c67.333 0 121.833 15.5 163.5 46.5
s73.5 75.5 95.5 133.5l212 -50c-32 -95.333 -82.833 -170.666 -152.5 -225.999s-153.834 -88 -252.501 -98l-24 -68c37.333 -18 66.833 -42 88.5 -72s32.5 -66.667 32.5 -110c0 -60 -20 -109.167 -60 -147.5s-87.333 -57.5 -142 -57.5z" />
    <glyph glyph-name="egrave" unicode="&#xe8;" horiz-adv-x="1193" 
d="M533 1240l-143 350h164l143 -350h-164zM619 -30c-107.333 0 -201.5 23.501 -282.5 70.501s-144 112.667 -189 197s-67.5 182.166 -67.5 293.499c0 118 22.167 220.333 66.5 307s106.166 153.667 185.499 201s171.666 71 276.999 71c110 0 203.667 -25.5 281 -76.5
s135 -123.5 173 -217.5s53.333 -205.667 46 -335h-805c8.66699 -100 38.834 -177.333 90.501 -232s123.167 -82 214.5 -82c132.667 0 226.334 57.333 281.001 172l205 -65c-42 -96.667 -105.667 -171.5 -191 -224.5s-180.333 -79.5 -285 -79.5zM617 925.001
c-178 0 -280.667 -93.667 -308 -281h586c-21.333 187.333 -114 281 -278 281z" />
    <glyph glyph-name="eacute" unicode="&#xe9;" horiz-adv-x="1193" 
d="M712 1240h-164l143 350h164zM619 -30c-107.333 0 -201.5 23.501 -282.5 70.501s-144 112.667 -189 197s-67.5 182.166 -67.5 293.499c0 118 22.167 220.333 66.5 307s106.166 153.667 185.499 201s171.666 71 276.999 71c110 0 203.667 -25.5 281 -76.5
s135 -123.5 173 -217.5s53.333 -205.667 46 -335h-805c8.66699 -100 38.834 -177.333 90.501 -232s123.167 -82 214.5 -82c132.667 0 226.334 57.333 281.001 172l205 -65c-42 -96.667 -105.667 -171.5 -191 -224.5s-180.333 -79.5 -285 -79.5zM617 925.001
c-178 0 -280.667 -93.667 -308 -281h586c-21.333 187.333 -114 281 -278 281z" />
    <glyph glyph-name="ecircumflex" unicode="&#xea;" horiz-adv-x="1193" 
d="M257 1240l259 300h180l259 -300h-200l-149 177l-149 -177h-200zM619 -30c-107.333 0 -201.5 23.501 -282.5 70.501s-144 112.667 -189 197s-67.5 182.166 -67.5 293.499c0 118 22.167 220.333 66.5 307s106.166 153.667 185.499 201s171.666 71 276.999 71
c110 0 203.667 -25.5 281 -76.5s135 -123.5 173 -217.5s53.333 -205.667 46 -335h-805c8.66699 -100 38.834 -177.333 90.501 -232s123.167 -82 214.5 -82c132.667 0 226.334 57.333 281.001 172l205 -65c-42 -96.667 -105.667 -171.5 -191 -224.5
s-180.333 -79.5 -285 -79.5zM617 925.001c-178 0 -280.667 -93.667 -308 -281h586c-21.333 187.333 -114 281 -278 281z" />
    <glyph glyph-name="edieresis" unicode="&#xeb;" horiz-adv-x="1193" 
d="M710 1261v200h200v-200h-200zM307 1261v200h200v-200h-200zM619 -30c-107.333 0 -201.5 23.501 -282.5 70.501s-144 112.667 -189 197s-67.5 182.166 -67.5 293.499c0 118 22.167 220.333 66.5 307s106.166 153.667 185.499 201s171.666 71 276.999 71
c110 0 203.667 -25.5 281 -76.5s135 -123.5 173 -217.5s53.333 -205.667 46 -335h-805c8.66699 -100 38.834 -177.333 90.501 -232s123.167 -82 214.5 -82c132.667 0 226.334 57.333 281.001 172l205 -65c-42 -96.667 -105.667 -171.5 -191 -224.5
s-180.333 -79.5 -285 -79.5zM617 925.001c-178 0 -280.667 -93.667 -308 -281h586c-21.333 187.333 -114 281 -278 281z" />
    <glyph glyph-name="igrave" unicode="&#xec;" horiz-adv-x="529" 
d="M179 1240l-142 350h164l142 -350h-164zM160 0v1080h209v-1080h-209z" />
    <glyph glyph-name="iacute" unicode="&#xed;" horiz-adv-x="529" 
d="M350 1240h-164l143 350h164zM160 0v1080h209v-1080h-209z" />
    <glyph glyph-name="icircumflex" unicode="&#xee;" horiz-adv-x="529" 
d="M-73 1240l258 300h181l258 -300h-200l-149 177l-148 -177h-200zM160 0v1080h209v-1080h-209z" />
    <glyph glyph-name="idieresis" unicode="&#xef;" horiz-adv-x="529" 
d="M366 1261v200h200v-200h-200zM-37 1261v200h200v-200h-200zM160 0v1080h209v-1080h-209z" />
    <glyph glyph-name="eth" unicode="&#xf0;" horiz-adv-x="1183" 
d="M593 -30c-103.333 -0.666992 -193.334 21.5 -270.001 66.5s-136.167 107.5 -178.5 187.5s-63.833 173 -64.5 279c0.666992 106.667 22.334 200.167 65.001 280.5s102.334 142.666 179.001 186.999s166.334 66.5 269.001 66.5c55.333 0 108.166 -8.66699 158.499 -26
s100.166 -45.333 149.499 -84c-8 57.333 -26.667 110.5 -56 159.5s-66.333 91.833 -111 128.5l-105 -124l-121 106l86 101c-55.333 22 -113 35 -173 39l32 165c98 -4 185.667 -24 263 -60l105 123l120 -105l-91 -107c33.333 -30 63 -64 89 -102
c40.667 -56 73 -117.833 97 -185.5s41.167 -146.5 51.5 -236.5s15.5 -196.667 15.5 -320c0 -110 -20.667 -205.333 -62 -286s-100.333 -143.167 -177 -187.5s-167 -66.166 -271 -65.499zM592.999 158c96 0 169.833 30.834 221.5 92.501s77.5 146.5 77.5 254.5
c0 107.333 -26.333 191.666 -79 252.999s-126 91.666 -220 90.999c-98 0.666992 -172.833 -29.666 -224.5 -90.999s-77.5 -146 -77.5 -254c0 -109.333 26.167 -194.333 78.5 -255s126.833 -91 223.5 -91z" />
    <glyph glyph-name="ntilde" unicode="&#xf1;" 
d="M777 1244c-30 0 -59.166 6.50195 -87.499 19.502s-55.333 28.167 -81 45.5s-50 32.666 -73 45.999s-44.5 20 -64.5 20c-22.667 0 -37.834 -10.833 -45.501 -32.5s-7.16699 -46.834 1.5 -75.501h-136c-18 73.333 -13 135.666 15 186.999s77.667 77 149 77
c30 0 59.333 -6.66699 88 -20s55.834 -28.666 81.501 -45.999s50 -32.5 73 -45.5s44.167 -19.5 63.5 -19.5c22 0 37.167 10.5 45.5 31.5s8.16602 46.833 -0.500977 77.5h136c18 -73.333 13 -135.833 -15 -187.5s-78 -77.5 -150 -77.5zM139.001 0.00195312l0.000976562 1080
h187v-129c39.333 50 89.166 88.833 149.499 116.5s129.5 41.5 207.5 41.5c74 0 136.5 -12 187.5 -36s92.333 -55.5 124 -94.5s55.834 -81.5 72.501 -127.5s28 -91 34 -135s9 -82.667 9 -116v-600h-212v531c0 42 -3.5 85.167 -10.5 129.5s-20.167 85.5 -39.5 123.5
s-47 68.667 -83 92s-82.667 35 -140 35c-50 0 -95.833 -11.333 -137.5 -34s-74.834 -59.5 -99.501 -110.5s-37 -119.167 -37 -204.5v-562h-212z" />
    <glyph glyph-name="ograve" unicode="&#xf2;" horiz-adv-x="1219" 
d="M516 1240l-142 350h164l142 -350h-164zM609 -30c-108 0 -201.667 24.332 -281 72.999s-140.5 115.834 -183.5 201.501s-64.5 184.5 -64.5 296.5c0 112.667 22 211.667 66 297s105.667 152 185 200s172 72 278 72c108 0 201.667 -24.167 281 -72.5
s140.666 -115.333 183.999 -201s65 -184.167 65 -295.5c0 -112.667 -21.833 -212 -65.5 -298s-105.167 -153 -184.5 -201s-172.666 -72 -279.999 -72zM609 166.999c103.333 0 180.5 34.666 231.5 103.999s76.5 159.333 76.5 270c0 112.667 -25.833 202.834 -77.5 270.501
s-128.5 101.5 -230.5 101.5c-105.333 0 -182.833 -34.5 -232.5 -103.5s-74.5 -158.5 -74.5 -268.5c0 -114 25.833 -204.833 77.5 -272.5s128.167 -101.5 229.5 -101.5z" />
    <glyph glyph-name="oacute" unicode="&#xf3;" horiz-adv-x="1219" 
d="M692 1240h-164l143 350h164zM609 -30c-108 0 -201.667 24.332 -281 72.999s-140.5 115.834 -183.5 201.501s-64.5 184.5 -64.5 296.5c0 112.667 22 211.667 66 297s105.667 152 185 200s172 72 278 72c108 0 201.667 -24.167 281 -72.5s140.666 -115.333 183.999 -201
s65 -184.167 65 -295.5c0 -112.667 -21.833 -212 -65.5 -298s-105.167 -153 -184.5 -201s-172.666 -72 -279.999 -72zM609 166.999c103.333 0 180.5 34.666 231.5 103.999s76.5 159.333 76.5 270c0 112.667 -25.833 202.834 -77.5 270.501s-128.5 101.5 -230.5 101.5
c-105.333 0 -182.833 -34.5 -232.5 -103.5s-74.5 -158.5 -74.5 -268.5c0 -114 25.833 -204.833 77.5 -272.5s128.167 -101.5 229.5 -101.5z" />
    <glyph glyph-name="ocircumflex" unicode="&#xf4;" horiz-adv-x="1219" 
d="M259 1240l258 300h181l258 -300h-200l-149 177l-148 -177h-200zM609 -30c-108 0 -201.667 24.332 -281 72.999s-140.5 115.834 -183.5 201.501s-64.5 184.5 -64.5 296.5c0 112.667 22 211.667 66 297s105.667 152 185 200s172 72 278 72c108 0 201.667 -24.167 281 -72.5
s140.666 -115.333 183.999 -201s65 -184.167 65 -295.5c0 -112.667 -21.833 -212 -65.5 -298s-105.167 -153 -184.5 -201s-172.666 -72 -279.999 -72zM609 166.999c103.333 0 180.5 34.666 231.5 103.999s76.5 159.333 76.5 270c0 112.667 -25.833 202.834 -77.5 270.501
s-128.5 101.5 -230.5 101.5c-105.333 0 -182.833 -34.5 -232.5 -103.5s-74.5 -158.5 -74.5 -268.5c0 -114 25.833 -204.833 77.5 -272.5s128.167 -101.5 229.5 -101.5z" />
    <glyph glyph-name="otilde" unicode="&#xf5;" horiz-adv-x="1219" 
d="M771 1244c-30 0 -59.166 6.50195 -87.499 19.502s-55.333 28.167 -81 45.5s-50 32.666 -73 45.999s-44.5 20 -64.5 20c-22.667 0 -37.834 -10.833 -45.501 -32.5s-7.16699 -46.834 1.5 -75.501h-136c-18 73.333 -13 135.666 15 186.999s77.667 77 149 77
c30 0 59.333 -6.66699 88 -20s55.834 -28.666 81.501 -45.999s50 -32.5 73 -45.5s44.167 -19.5 63.5 -19.5c22 0 37.167 10.5 45.5 31.5s8.16602 46.833 -0.500977 77.5h136c18 -73.333 13 -135.833 -15 -187.5s-78 -77.5 -150 -77.5zM609.001 -29.998
c-108 0 -201.667 24.332 -281 72.999s-140.5 115.834 -183.5 201.501s-64.5 184.5 -64.5 296.5c0 112.667 22 211.667 66 297s105.667 152 185 200s172 72 278 72c108 0 201.667 -24.167 281 -72.5s140.666 -115.333 183.999 -201s65 -184.167 65 -295.5
c0 -112.667 -21.833 -212 -65.5 -298s-105.167 -153 -184.5 -201s-172.666 -72 -279.999 -72zM609.001 167.001c103.333 0 180.5 34.666 231.5 103.999s76.5 159.333 76.5 270c0 112.667 -25.833 202.834 -77.5 270.501s-128.5 101.5 -230.5 101.5
c-105.333 0 -182.833 -34.5 -232.5 -103.5s-74.5 -158.5 -74.5 -268.5c0 -114 25.833 -204.833 77.5 -272.5s128.167 -101.5 229.5 -101.5z" />
    <glyph glyph-name="odieresis" unicode="&#xf6;" horiz-adv-x="1219" 
d="M711 1261v200h200v-200h-200zM309 1261v200h200v-200h-200zM609 -30c-108 0 -201.667 24.332 -281 72.999s-140.5 115.834 -183.5 201.501s-64.5 184.5 -64.5 296.5c0 112.667 22 211.667 66 297s105.667 152 185 200s172 72 278 72c108 0 201.667 -24.167 281 -72.5
s140.666 -115.333 183.999 -201s65 -184.167 65 -295.5c0 -112.667 -21.833 -212 -65.5 -298s-105.167 -153 -184.5 -201s-172.666 -72 -279.999 -72zM609 166.999c103.333 0 180.5 34.666 231.5 103.999s76.5 159.333 76.5 270c0 112.667 -25.833 202.834 -77.5 270.501
s-128.5 101.5 -230.5 101.5c-105.333 0 -182.833 -34.5 -232.5 -103.5s-74.5 -158.5 -74.5 -268.5c0 -114 25.833 -204.833 77.5 -272.5s128.167 -101.5 229.5 -101.5z" />
    <glyph glyph-name="divide" unicode="&#xf7;" horiz-adv-x="1080" 
d="M439 919v208h208v-208h-208zM439 318v208h208v-208h-208zM120 637v168h840v-168h-840z" />
    <glyph glyph-name="oslash" unicode="&#xf8;" horiz-adv-x="1219" 
d="M188 -20l-140 140l106 106c-49.333 90.667 -74 195.667 -74 315c0 112.667 22 211.667 66 297s105.667 152 185 200s172 72 278 72c64.667 0 124.5 -9 179.5 -27s104.167 -43.667 147.5 -77l95 94l140 -141l-107 -105c50 -90 75 -194.333 75 -313
c0 -112.667 -21.833 -212 -65.5 -298s-105.167 -153 -184.5 -201s-172.666 -72 -279.999 -72c-65.333 0 -125.333 9 -180 27s-103.334 44 -146.001 78zM302 541c0 -64 8 -121 24 -171l479 477c-50.667 44 -116 66 -196 66c-105.333 0 -182.833 -34.5 -232.5 -103.5
s-74.5 -158.5 -74.5 -268.5zM609 167c103.333 0 180.499 34.668 231.499 104.001s76.5 159.333 76.5 270c0 63.333 -8 119.666 -24 168.999l-478 -478c50.667 -43.333 115.334 -65 194.001 -65z" />
    <glyph glyph-name="ugrave" unicode="&#xf9;" 
d="M530 1240l-142 350h164l142 -350h-164zM547 -29c-74 0 -136.501 12 -187.501 36s-92.333 55.5 -124 94.5s-55.834 81.5 -72.501 127.5s-28 91 -34 135s-9 82.667 -9 116v600h212v-531c0 -42 3.5 -85.167 10.5 -129.5s20.167 -85.5 39.5 -123.5s47 -68.667 83 -92
s82.667 -35 140 -35c50 0 95.833 11.333 137.5 34s74.834 59.5 99.501 110.5s37 119.167 37 204.5v562h211v-1080h-186v129c-39.333 -50 -89.166 -88.833 -149.499 -116.5s-129.5 -41.5 -207.5 -41.5z" />
    <glyph glyph-name="uacute" unicode="&#xfa;" 
d="M678 1240h-164l143 350h164zM547 -29c-74 0 -136.501 12 -187.501 36s-92.333 55.5 -124 94.5s-55.834 81.5 -72.501 127.5s-28 91 -34 135s-9 82.667 -9 116v600h212v-531c0 -42 3.5 -85.167 10.5 -129.5s20.167 -85.5 39.5 -123.5s47 -68.667 83 -92
s82.667 -35 140 -35c50 0 95.833 11.333 137.5 34s74.834 59.5 99.501 110.5s37 119.167 37 204.5v562h211v-1080h-186v129c-39.333 -50 -89.166 -88.833 -149.499 -116.5s-129.5 -41.5 -207.5 -41.5z" />
    <glyph glyph-name="ucircumflex" unicode="&#xfb;" 
d="M253 1240l259 300h180l259 -300h-200l-149 177l-149 -177h-200zM547 -29c-74 0 -136.501 12 -187.501 36s-92.333 55.5 -124 94.5s-55.834 81.5 -72.501 127.5s-28 91 -34 135s-9 82.667 -9 116v600h212v-531c0 -42 3.5 -85.167 10.5 -129.5s20.167 -85.5 39.5 -123.5
s47 -68.667 83 -92s82.667 -35 140 -35c50 0 95.833 11.333 137.5 34s74.834 59.5 99.501 110.5s37 119.167 37 204.5v562h211v-1080h-186v129c-39.333 -50 -89.166 -88.833 -149.499 -116.5s-129.5 -41.5 -207.5 -41.5z" />
    <glyph glyph-name="udieresis" unicode="&#xfc;" 
d="M706 1261v200h200v-200h-200zM303 1261v200h200v-200h-200zM547 -29c-74 0 -136.501 12 -187.501 36s-92.333 55.5 -124 94.5s-55.834 81.5 -72.501 127.5s-28 91 -34 135s-9 82.667 -9 116v600h212v-531c0 -42 3.5 -85.167 10.5 -129.5s20.167 -85.5 39.5 -123.5
s47 -68.667 83 -92s82.667 -35 140 -35c50 0 95.833 11.333 137.5 34s74.834 59.5 99.501 110.5s37 119.167 37 204.5v562h211v-1080h-186v129c-39.333 -50 -89.166 -88.833 -149.499 -116.5s-129.5 -41.5 -207.5 -41.5z" />
    <glyph glyph-name="yacute" unicode="&#xfd;" horiz-adv-x="1097" 
d="M639 1240h-164l143 350h164zM286 -480l178 485l-437 1075h218l320 -811l304 811h212l-596 -1560h-199z" />
    <glyph glyph-name="thorn" unicode="&#xfe;" horiz-adv-x="1216" 
d="M139 -480v1560h1v360h211v-433c37.333 32.667 80.333 58 129 76s103 27 163 27c101.333 0 188.833 -24.833 262.5 -74.5s130.5 -117.334 170.5 -203.001s60 -182.834 60 -291.501c0 -108 -19.833 -205.167 -59.5 -291.5s-96 -154.5 -169 -204.5s-159.833 -75 -260.5 -75
c-61.333 0 -116.833 9.16699 -166.5 27.5s-93.5 44.5 -131.5 78.5v-556h-210zM618 159.002c66.667 0 122.001 17 166.001 51s76.667 79.833 98 137.5s32 122.167 32 193.5c0 70.667 -10.833 134.667 -32.5 192s-54.834 103 -99.501 137s-101.667 51 -171 51
c-98.667 0 -171 -35.333 -217 -106s-69 -162 -69 -274s23.167 -203.667 69.5 -275s120.833 -107 223.5 -107z" />
    <glyph glyph-name="ydieresis" unicode="&#xff;" horiz-adv-x="1097" 
d="M662 1261v200h200v-200h-200zM259 1261v200h200v-200h-200zM286 -480l178 485l-437 1075h218l320 -811l304 811h212l-596 -1560h-199z" />
    <glyph glyph-name="Amacron" unicode="&#x100;" horiz-adv-x="1317" 
d="M398 1680v167h523v-167h-523zM40 0l468 1440h301l468 -1440h-217l-107 325h-591l-105 -325h-217zM426 521h463l-233 709z" />
    <glyph glyph-name="amacron" unicode="&#x101;" horiz-adv-x="1139" 
d="M349 1320v167h523v-167h-523zM445 -30c-80 0 -147 14.8291 -201 44.4961s-94.833 69 -122.5 118s-41.5 102.833 -41.5 161.5c0 81.333 21.667 148.333 65 201s106.666 92.334 189.999 119.001c62.667 18.667 136.167 34.334 220.5 47.001l257.5 37
c-3.33301 74.667 -23.833 129.834 -61.5 165.501s-98.5 53.5 -182.5 53.5c-56.667 0 -108.667 -13.333 -156 -40s-80.333 -70 -99 -130l-195 60c26 92.667 76.667 166.334 152 221.001s175.333 82 300 82c96.667 0 180.834 -16.5 252.501 -49.5
s124.167 -85.167 157.5 -156.5c16.667 -36 27.167 -73.667 31.5 -113s6.5 -81.333 6.5 -126v-665h-185v157c-87.333 -124.667 -217 -187 -389 -187zM482 140.996c59.333 0 110.497 10.5029 153.497 31.5029s77.333 47.833 103 80.5s42.5 66.667 50.5 102
c8.66699 24.667 14.334 52.667 17.001 84s4.33398 59.666 5.00098 84.999l-214.5 -32.5c-61.667 -9.66699 -115.167 -21.5 -160.5 -35.5c-42.667 -14.667 -78.167 -34.334 -106.5 -59.001s-42.5 -58.334 -42.5 -101.001c0 -42 15.833 -78.333 47.5 -109
s80.834 -46 147.501 -46z" />
    <glyph glyph-name="Abreve" unicode="&#x102;" horiz-adv-x="1317" 
d="M659 1564c-52.667 0 -100.832 13 -144.499 39s-78.5 60.667 -104.5 104s-39 91.666 -39 144.999h166c0 -33.333 12 -62 36 -86s52.667 -36 86 -36c34 0 62.833 12 86.5 36s35.5 52.667 35.5 86h166c0 -53.333 -12.833 -101.666 -38.5 -144.999s-60.334 -78 -104.001 -104
s-92.167 -39 -145.5 -39zM40.002 0l468 1440h301l468 -1440h-217l-107 325h-591l-105 -325h-217zM426.002 521h463l-233 709z" />
    <glyph glyph-name="abreve" unicode="&#x103;" horiz-adv-x="1139" 
d="M581 1204c-52.667 0 -100.832 13 -144.499 39s-78.5 60.667 -104.5 104s-39 91.666 -39 144.999h166c0 -33.333 12 -62 36 -86s52.667 -36 86 -36c34 0 62.833 12 86.5 36s35.5 52.667 35.5 86h166c0 -53.333 -12.833 -101.666 -38.5 -144.999s-60.334 -78 -104.001 -104
s-92.167 -39 -145.5 -39zM445.002 -30c-80 0 -147 14.8291 -201 44.4961s-94.833 69 -122.5 118s-41.5 102.833 -41.5 161.5c0 81.333 21.667 148.333 65 201s106.666 92.334 189.999 119.001c62.667 18.667 136.167 34.334 220.5 47.001l257.5 37
c-3.33301 74.667 -23.833 129.834 -61.5 165.501s-98.5 53.5 -182.5 53.5c-56.667 0 -108.667 -13.333 -156 -40s-80.333 -70 -99 -130l-195 60c26 92.667 76.667 166.334 152 221.001s175.333 82 300 82c96.667 0 180.834 -16.5 252.501 -49.5
s124.167 -85.167 157.5 -156.5c16.667 -36 27.167 -73.667 31.5 -113s6.5 -81.333 6.5 -126v-665h-185v157c-87.333 -124.667 -217 -187 -389 -187zM482.002 140.996c59.333 0 110.497 10.5029 153.497 31.5029s77.333 47.833 103 80.5s42.5 66.667 50.5 102
c8.66699 24.667 14.334 52.667 17.001 84s4.33398 59.666 5.00098 84.999l-214.5 -32.5c-61.667 -9.66699 -115.167 -21.5 -160.5 -35.5c-42.667 -14.667 -78.167 -34.334 -106.5 -59.001s-42.5 -58.334 -42.5 -101.001c0 -42 15.833 -78.333 47.5 -109
s80.834 -46 147.501 -46z" />
    <glyph glyph-name="Aogonek" unicode="&#x104;" horiz-adv-x="1317" 
d="M40 0l468.001 1440h301l468 -1440c-40.667 -22.667 -78 -49.167 -112 -79.5s-61.167 -61 -81.5 -92s-30.5 -58.833 -30.5 -83.5c0 -19.333 6.33301 -35.166 19 -47.499s27.667 -18.5 45 -18.5c26 0 52.667 13 80 39l80 -101c-23.333 -31.333 -51.333 -55.333 -84 -72
s-66.334 -25 -101.001 -25c-60 0 -109.5 21.333 -148.5 64s-58.5 91.667 -58.5 147c0 50 15.5 100.667 46.5 152s71.167 98 120.5 140l-99 302h-591l-105 -325h-217zM426.001 520.999h463l-233 709z" />
    <glyph glyph-name="aogonek" unicode="&#x105;" horiz-adv-x="1139" 
d="M445 -30c-80 0 -147.001 14.8271 -201.001 44.4941s-94.833 69 -122.5 118s-41.5 102.833 -41.5 161.5c0 81.333 21.667 148.333 65 201s106.666 92.334 189.999 119.001c62.667 18.667 136.167 34.334 220.5 47.001l257.5 37
c-3.33301 74.667 -23.833 129.834 -61.5 165.501s-98.5 53.5 -182.5 53.5c-56.667 0 -108.667 -13.333 -156 -40s-80.333 -70 -99 -130l-195 60c26 92.667 76.667 166.334 152 221.001s175.333 82 300 82c96.667 0 180.834 -16.5 252.501 -49.5
s124.167 -85.167 157.5 -156.5c16.667 -36 27.167 -73.667 31.5 -113s6.5 -81.333 6.5 -126v-665c-40.667 -22.667 -78 -49.167 -112 -79.5s-61.167 -61 -81.5 -92s-30.5 -58.833 -30.5 -83.5c0 -19.333 6.33301 -35.166 19 -47.499s27.667 -18.5 45 -18.5
c26 0 52.667 13 80 39l80 -101c-23.333 -31.333 -51.333 -55.333 -84 -72s-66.334 -25 -101.001 -25c-59.333 0 -108.666 21.333 -147.999 64s-59 91.667 -59 147c0 56 19.333 112.833 58 170.5s88.334 108.834 149.001 153.501v102c-87.333 -124.667 -217 -187 -389 -187z
M481.999 140.994c59.333 0 110.497 10.5029 153.497 31.5029s77.333 47.833 103 80.5s42.5 66.667 50.5 102c8.66699 24.667 14.334 52.667 17.001 84s4.33398 59.666 5.00098 84.999l-214.5 -32.5c-61.667 -9.66699 -115.167 -21.5 -160.5 -35.5
c-42.667 -14.667 -78.167 -34.334 -106.5 -59.001s-42.5 -58.334 -42.5 -101.001c0 -42 15.833 -78.333 47.5 -109s80.834 -46 147.501 -46z" />
    <glyph glyph-name="Cacute" unicode="&#x106;" horiz-adv-x="1461" 
d="M842 1600h-164l143 350h164zM741 -30c-144 0 -266.665 31.498 -367.998 94.498s-178.833 150.833 -232.5 263.5s-80.5 243.334 -80.5 392.001s26.833 279.334 80.5 392.001s131.167 200.5 232.5 263.5s224 94.5 368 94.5c166 0 303.5 -42 412.5 -126
s184.833 -197 227.5 -339l-212 -57c-28.667 100.667 -78.667 179.667 -150 237s-164 86 -278 86c-102 0 -187 -23 -255 -69s-119.167 -110.333 -153.5 -193s-51.5 -179 -51.5 -289c-0.666992 -110 16.166 -206.333 50.499 -289s85.666 -147 153.999 -193
s153.5 -69 255.5 -69c114 0 206.667 28.667 278 86s121.333 136.333 150 237l212 -57c-42.667 -142 -118.5 -255 -227.5 -339s-246.5 -126 -412.5 -126z" />
    <glyph glyph-name="cacute" unicode="&#x107;" horiz-adv-x="1137" 
d="M692 1240h-164l143 350h164zM602 -30c-110.667 0 -204.669 24.665 -282.002 73.998s-136.5 117 -177.5 203s-61.833 183.667 -62.5 293c0.666992 111.333 22 209.833 64 295.5s102 152.834 180 201.501s171.667 73 281 73c118 0 218.833 -29.5 302.5 -88.5
s138.834 -139.167 165.501 -240.5l-208 -60c-20.667 60.667 -54.667 107.834 -102 141.501s-101 50.5 -161 50.5c-102.667 0 -178.167 -35.167 -226.5 -105.5s-72.833 -159.5 -73.5 -267.5c0.666992 -111.333 26.167 -201.333 76.5 -270s124.833 -103 223.5 -103
c67.333 0 121.833 15.5 163.5 46.5s73.5 75.5 95.5 133.5l212 -50c-35.333 -106 -93.666 -187 -174.999 -243s-180 -84 -296 -84z" />
    <glyph glyph-name="Ccircumflex" unicode="&#x108;" horiz-adv-x="1461" 
d="M390 1600l258 300h181l258 -300h-200l-149 177l-148 -177h-200zM741 -30c-144 0 -266.665 31.498 -367.998 94.498s-178.833 150.833 -232.5 263.5s-80.5 243.334 -80.5 392.001s26.833 279.334 80.5 392.001s131.167 200.5 232.5 263.5s224 94.5 368 94.5
c166 0 303.5 -42 412.5 -126s184.833 -197 227.5 -339l-212 -57c-28.667 100.667 -78.667 179.667 -150 237s-164 86 -278 86c-102 0 -187 -23 -255 -69s-119.167 -110.333 -153.5 -193s-51.5 -179 -51.5 -289c-0.666992 -110 16.166 -206.333 50.499 -289
s85.666 -147 153.999 -193s153.5 -69 255.5 -69c114 0 206.667 28.667 278 86s121.333 136.333 150 237l212 -57c-42.667 -142 -118.5 -255 -227.5 -339s-246.5 -126 -412.5 -126z" />
    <glyph glyph-name="ccircumflex" unicode="&#x109;" horiz-adv-x="1137" 
d="M259 1240l258 300h181l258 -300h-200l-149 177l-148 -177h-200zM602 -30c-110.667 0 -204.669 24.665 -282.002 73.998s-136.5 117 -177.5 203s-61.833 183.667 -62.5 293c0.666992 111.333 22 209.833 64 295.5s102 152.834 180 201.501s171.667 73 281 73
c118 0 218.833 -29.5 302.5 -88.5s138.834 -139.167 165.501 -240.5l-208 -60c-20.667 60.667 -54.667 107.834 -102 141.501s-101 50.5 -161 50.5c-102.667 0 -178.167 -35.167 -226.5 -105.5s-72.833 -159.5 -73.5 -267.5c0.666992 -111.333 26.167 -201.333 76.5 -270
s124.833 -103 223.5 -103c67.333 0 121.833 15.5 163.5 46.5s73.5 75.5 95.5 133.5l212 -50c-35.333 -106 -93.666 -187 -174.999 -243s-180 -84 -296 -84z" />
    <glyph glyph-name="Cdotaccent" unicode="&#x10a;" horiz-adv-x="1461" 
d="M642 1659v221h221v-221h-221zM741 -30c-144 0 -266.665 31.498 -367.998 94.498s-178.833 150.833 -232.5 263.5s-80.5 243.334 -80.5 392.001s26.833 279.334 80.5 392.001s131.167 200.5 232.5 263.5s224 94.5 368 94.5c166 0 303.5 -42 412.5 -126
s184.833 -197 227.5 -339l-212 -57c-28.667 100.667 -78.667 179.667 -150 237s-164 86 -278 86c-102 0 -187 -23 -255 -69s-119.167 -110.333 -153.5 -193s-51.5 -179 -51.5 -289c-0.666992 -110 16.166 -206.333 50.499 -289s85.666 -147 153.999 -193
s153.5 -69 255.5 -69c114 0 206.667 28.667 278 86s121.333 136.333 150 237l212 -57c-42.667 -142 -118.5 -255 -227.5 -339s-246.5 -126 -412.5 -126z" />
    <glyph glyph-name="cdotaccent" unicode="&#x10b;" horiz-adv-x="1137" 
d="M519 1299v221h221v-221h-221zM602 -30c-110.667 0 -204.669 24.665 -282.002 73.998s-136.5 117 -177.5 203s-61.833 183.667 -62.5 293c0.666992 111.333 22 209.833 64 295.5s102 152.834 180 201.501s171.667 73 281 73c118 0 218.833 -29.5 302.5 -88.5
s138.834 -139.167 165.501 -240.5l-208 -60c-20.667 60.667 -54.667 107.834 -102 141.501s-101 50.5 -161 50.5c-102.667 0 -178.167 -35.167 -226.5 -105.5s-72.833 -159.5 -73.5 -267.5c0.666992 -111.333 26.167 -201.333 76.5 -270s124.833 -103 223.5 -103
c67.333 0 121.833 15.5 163.5 46.5s73.5 75.5 95.5 133.5l212 -50c-35.333 -106 -93.666 -187 -174.999 -243s-180 -84 -296 -84z" />
    <glyph glyph-name="Ccaron" unicode="&#x10c;" horiz-adv-x="1461" 
d="M405 1900h200l148 -177l149 177h200l-258 -300h-181zM741 -30c-144 0 -266.665 31.498 -367.998 94.498s-178.833 150.833 -232.5 263.5s-80.5 243.334 -80.5 392.001s26.833 279.334 80.5 392.001s131.167 200.5 232.5 263.5s224 94.5 368 94.5
c166 0 303.5 -42 412.5 -126s184.833 -197 227.5 -339l-212 -57c-28.667 100.667 -78.667 179.667 -150 237s-164 86 -278 86c-102 0 -187 -23 -255 -69s-119.167 -110.333 -153.5 -193s-51.5 -179 -51.5 -289c-0.666992 -110 16.166 -206.333 50.499 -289
s85.666 -147 153.999 -193s153.5 -69 255.5 -69c114 0 206.667 28.667 278 86s121.333 136.333 150 237l212 -57c-42.667 -142 -118.5 -255 -227.5 -339s-246.5 -126 -412.5 -126z" />
    <glyph glyph-name="ccaron" unicode="&#x10d;" horiz-adv-x="1137" 
d="M253 1540h200l149 -177l149 177h200l-259 -300h-180zM602 -30c-110.667 0 -204.669 24.665 -282.002 73.998s-136.5 117 -177.5 203s-61.833 183.667 -62.5 293c0.666992 111.333 22 209.833 64 295.5s102 152.834 180 201.501s171.667 73 281 73
c118 0 218.833 -29.5 302.5 -88.5s138.834 -139.167 165.501 -240.5l-208 -60c-20.667 60.667 -54.667 107.834 -102 141.501s-101 50.5 -161 50.5c-102.667 0 -178.167 -35.167 -226.5 -105.5s-72.833 -159.5 -73.5 -267.5c0.666992 -111.333 26.167 -201.333 76.5 -270
s124.833 -103 223.5 -103c67.333 0 121.833 15.5 163.5 46.5s73.5 75.5 95.5 133.5l212 -50c-35.333 -106 -93.666 -187 -174.999 -243s-180 -84 -296 -84z" />
    <glyph glyph-name="Dcaron" unicode="&#x10e;" horiz-adv-x="1381" 
d="M262 1900h200l149 -177l148 177h200l-258 -300h-181zM140 0l0.000976562 1440h451c13.333 0 38 -0.333008 74 -1s71 -3.33398 105 -8.00098c112.667 -14 207.5 -54.333 284.5 -121s135.167 -151.167 174.5 -253.5s59 -214.5 59 -336.5
c0 -122.667 -19.667 -235.167 -59 -337.5s-97.5 -186.666 -174.5 -252.999s-171.833 -106.5 -284.5 -120.5c-33.333 -4.66699 -68.333 -7.33398 -105 -8.00098s-61.334 -1 -74.001 -1h-451zM354.001 199.001l237 -0.000976562c22.667 0 49.667 0.5 81 1.5s59 3.83301 83 8.5
c73.333 14 132.833 45.833 178.5 95.5s79.167 110.834 100.5 183.501s32 150 32 232c0 84.667 -11 163.167 -33 235.5s-55.833 133 -101.5 182s-104.5 80.167 -176.5 93.5c-24 4.66699 -51.833 7.5 -83.5 8.5s-58.5 1.5 -80.5 1.5h-237v-1042z" />
    <glyph glyph-name="dcaron" unicode="&#x10f;" horiz-adv-x="1526" 
d="M569 -30c-100.667 0 -187.5 24.999 -260.5 74.999s-129.333 118.167 -169 204.5s-59.5 183.5 -59.5 291.5c0 108.667 20 205.834 60 291.501s96.833 153.334 170.5 203.001s161.167 74.5 262.5 74.5c60 0 114.5 -9 163.5 -27s92.5 -43.667 130.5 -77v434h210v-1440h-186
v99c-38.667 -40.667 -85 -72.334 -139 -95.001s-115 -34 -183 -34zM598 158.999c103.333 0 178.001 35.667 224.001 107s69 163 69 275s-23 203.333 -69 274s-118.333 106 -217 106c-69.333 0 -126.333 -17 -171 -51s-77.834 -79.667 -99.501 -137
s-32.5 -121.333 -32.5 -192c0 -71.333 10.667 -135.833 32 -193.5s54 -103.5 98 -137.5s99.333 -51 166 -51zM1253 965.999l13 93c43.333 -3.33301 72.333 9.5 87 38.5s19.667 64.833 15 107.5h-115v241h221v-261c0 -78.667 -18.833 -138 -56.5 -178
s-92.5 -53.667 -164.5 -41z" />
    <glyph glyph-name="Dcroat" unicode="&#x110;" horiz-adv-x="1379" 
d="M138 0l0.000976562 637.001h-118v168h118v635h451c13.333 0 38 -0.333008 74 -1s71 -3.33398 105 -8.00098c112.667 -14 207.5 -54.333 284.5 -121s135.167 -151.167 174.5 -253.5s59 -214.5 59 -336.5c0 -122.667 -19.667 -235.167 -59 -337.5
s-97.5 -186.666 -174.5 -252.999s-171.833 -106.5 -284.5 -120.5c-33.333 -4.66699 -68.333 -7.33398 -105 -8.00098s-61.334 -1 -74.001 -1h-451zM352.001 199.001l237 -0.000976562c22.667 0 49.667 0.5 81 1.5s59 3.83301 83 8.5c73.333 14 132.833 45.833 178.5 95.5
s79.167 110.834 100.5 183.501s32 150 32 232c0 84.667 -11 163.167 -33 235.5s-55.833 133 -101.5 182s-104.5 80.167 -176.5 93.5c-24 4.66699 -51.833 7.5 -83.5 8.5s-58.5 1.5 -80.5 1.5h-237v-436h328v-168h-328v-438z" />
    <glyph glyph-name="dcroat" unicode="&#x111;" horiz-adv-x="1217" 
d="M569 -30c-100.667 0 -187.5 24.999 -260.5 74.999s-129.333 118.167 -169 204.5s-59.5 183.5 -59.5 291.5c0 108.667 20 205.834 60 291.501s96.833 153.334 170.5 203.001s161.167 74.5 262.5 74.5c60 0 114.5 -9 163.5 -27s92.5 -43.667 130.5 -77v167h-180v167h180
v100h210v-100h132v-167h-132v-1173h-186v99c-38.667 -40.667 -85 -72.334 -139 -95.001s-115 -34 -183 -34zM598 158.999c103.333 0 178.001 35.667 224.001 107s69 163 69 275s-23 203.333 -69 274s-118.333 106 -217 106c-69.333 0 -126.333 -17 -171 -51
s-77.834 -79.667 -99.501 -137s-32.5 -121.333 -32.5 -192c0 -71.333 10.667 -135.833 32 -193.5s54 -103.5 98 -137.5s99.333 -51 166 -51z" />
    <glyph glyph-name="Emacron" unicode="&#x112;" horiz-adv-x="1160" 
d="M345 1680v167h523v-167h-523zM140 0v1440h920v-197h-711v-404h591v-197h-591v-445h711v-197h-920z" />
    <glyph glyph-name="emacron" unicode="&#x113;" horiz-adv-x="1193" 
d="M367 1320v167h523v-167h-523zM619 -30c-107.333 0 -201.5 23.501 -282.5 70.501s-144 112.667 -189 197s-67.5 182.166 -67.5 293.499c0 118 22.167 220.333 66.5 307s106.166 153.667 185.499 201s171.666 71 276.999 71c110 0 203.667 -25.5 281 -76.5
s135 -123.5 173 -217.5s53.333 -205.667 46 -335h-805c8.66699 -100 38.834 -177.333 90.501 -232s123.167 -82 214.5 -82c132.667 0 226.334 57.333 281.001 172l205 -65c-42 -96.667 -105.667 -171.5 -191 -224.5s-180.333 -79.5 -285 -79.5zM617 925.001
c-178 0 -280.667 -93.667 -308 -281h586c-21.333 187.333 -114 281 -278 281z" />
    <glyph glyph-name="Edotaccent" unicode="&#x116;" horiz-adv-x="1160" 
d="M491 1659v221h222v-221h-222zM140 0v1440h920v-197h-711v-404h591v-197h-591v-445h711v-197h-920z" />
    <glyph glyph-name="edotaccent" unicode="&#x117;" horiz-adv-x="1193" 
d="M499 1299v221h222v-221h-222zM619 -30c-107.333 0 -201.5 23.501 -282.5 70.501s-144 112.667 -189 197s-67.5 182.166 -67.5 293.499c0 118 22.167 220.333 66.5 307s106.166 153.667 185.499 201s171.666 71 276.999 71c110 0 203.667 -25.5 281 -76.5
s135 -123.5 173 -217.5s53.333 -205.667 46 -335h-805c8.66699 -100 38.834 -177.333 90.501 -232s123.167 -82 214.5 -82c132.667 0 226.334 57.333 281.001 172l205 -65c-42 -96.667 -105.667 -171.5 -191 -224.5s-180.333 -79.5 -285 -79.5zM617 925.001
c-178 0 -280.667 -93.667 -308 -281h586c-21.333 187.333 -114 281 -278 281z" />
    <glyph glyph-name="Eogonek" unicode="&#x118;" horiz-adv-x="1160" 
d="M140 0l0.000976562 1440h920v-197h-711v-404h591v-197h-591v-445h711v-197c-40.667 -22.667 -77.834 -49.167 -111.501 -79.5s-60.667 -61 -81 -92s-30.5 -58.833 -30.5 -83.5c0 -19.333 6.16699 -35.166 18.5 -47.499s27.5 -18.5 45.5 -18.5c25.333 0 52 13 80 39
l79 -101c-23.333 -31.333 -51.333 -55.333 -84 -72s-66.334 -25 -101.001 -25c-59.333 0 -108.5 21.333 -147.5 64s-58.5 91.667 -58.5 147c0 45.333 12.833 91.333 38.5 138s59.834 90.334 102.501 131.001h-670z" />
    <glyph glyph-name="eogonek" unicode="&#x119;" horiz-adv-x="1193" 
d="M619 -30c-107.333 0 -201.502 23.499 -282.502 70.499s-144 112.667 -189 197s-67.5 182.166 -67.5 293.499c0 118 22.167 220.333 66.5 307s106.166 153.667 185.499 201s171.666 71 276.999 71c110 0 203.667 -25.5 281 -76.5s135 -123.5 173 -217.5
s53.333 -205.667 46 -335h-805c8.66699 -100 38.834 -177.333 90.501 -232s123.167 -82 214.5 -82c132.667 0 226.334 57.333 281.001 172l205 -65c-13.333 -30 -29 -58.333 -47 -85c-28.667 -48.667 -59 -96 -91 -142s-56 -82 -72 -108
c-17.333 -30 -32.666 -58.5 -45.999 -85.5s-23 -51.167 -29 -72.5c-2.66699 -10 -4.16699 -22.833 -4.5 -38.5s4.83398 -29.167 15.501 -40.5c16.667 -18.667 37.667 -24.5 63 -17.5s47.333 18.5 66 34.5l80 -102c-22.667 -34 -54 -60 -94 -78
c-43.333 -19.333 -88 -23.166 -134 -11.499s-83 34.834 -111 69.501c-25.333 30 -41.333 66.5 -48 109.5s-1.66699 85.833 15 128.5c9.33301 25.333 21.5 50.833 36.5 76.5s29.833 49.5 44.5 71.5c-38.667 -8.66699 -78.667 -13 -120 -13zM616.998 924.999
c-178 0 -280.667 -93.667 -308 -281h586c-21.333 187.333 -114 281 -278 281z" />
    <glyph glyph-name="Ecaron" unicode="&#x11a;" horiz-adv-x="1160" 
d="M257 1900h200l149 -177l149 177h200l-259 -300h-180zM140 0v1440h920v-197h-711v-404h591v-197h-591v-445h711v-197h-920z" />
    <glyph glyph-name="ecaron" unicode="&#x11b;" horiz-adv-x="1193" 
d="M257 1540h200l149 -177l149 177h200l-259 -300h-180zM619 -30c-107.333 0 -201.5 23.501 -282.5 70.501s-144 112.667 -189 197s-67.5 182.166 -67.5 293.499c0 118 22.167 220.333 66.5 307s106.166 153.667 185.499 201s171.666 71 276.999 71
c110 0 203.667 -25.5 281 -76.5s135 -123.5 173 -217.5s53.333 -205.667 46 -335h-805c8.66699 -100 38.834 -177.333 90.501 -232s123.167 -82 214.5 -82c132.667 0 226.334 57.333 281.001 172l205 -65c-42 -96.667 -105.667 -171.5 -191 -224.5
s-180.333 -79.5 -285 -79.5zM617 925.001c-178 0 -280.667 -93.667 -308 -281h586c-21.333 187.333 -114 281 -278 281z" />
    <glyph glyph-name="Gcircumflex" unicode="&#x11c;" horiz-adv-x="1446" 
d="M368 1600l259 300h180l259 -300h-200l-149 177l-149 -177h-200zM729 -30c-128.667 0 -243.502 29.6699 -344.502 89.0029s-180.333 145 -238 257s-86.5 246.667 -86.5 404c0 155.333 28.333 289 85 401s135.334 198 236.001 258s216.667 90 348 90
c168.667 0 303.667 -39.333 405 -118s170.333 -187.334 207 -326.001l-212 -38c-29.333 86 -76.666 154.667 -141.999 206s-147.333 77.333 -246 78c-102 0.666992 -187 -22 -255 -68s-118.833 -110.5 -152.5 -193.5s-50.834 -179.5 -51.501 -289.5
c-0.666992 -164.667 37.333 -297.334 114 -398.001s191.667 -151.667 345 -153c123.333 -1.33301 220.333 33.5 291 104.5s113.334 173.167 128.001 306.5h-280v168h502c1.33301 -12 2.33301 -27.833 3 -47.5s1 -32.167 1 -37.5c0 -133.333 -25.667 -252.333 -77 -357
s-126 -186.834 -224 -246.501s-216.667 -89.5 -356 -89.5z" />
    <glyph glyph-name="gcircumflex" unicode="&#x11d;" horiz-adv-x="1216" 
d="M257 1240l258 300h181l258 -300h-200l-149 177l-148 -177h-200zM569 -30c-100.667 0 -187.497 24.9971 -260.497 74.9971s-129.333 118.167 -169 204.5s-59.5 183.5 -59.5 291.5c0 108.667 20 205.834 60 291.501s96.833 153.334 170.5 203.001s161.167 74.5 262.5 74.5
c66.667 0 126.667 -11.167 180 -33.5s99.333 -53.5 138 -93.5v97h185v-1109c0 -29.333 -1 -57 -3 -83s-5.66699 -51.667 -11 -77c-22.667 -109.333 -76.334 -190.166 -161.001 -242.499s-190 -78.5 -316 -78.5c-87.333 0 -169.5 20.167 -246.5 60.5
s-137.5 98.833 -181.5 175.5l193 98c23.333 -46 56.666 -79.667 99.999 -101s89 -32 137 -32c88.667 0 157.667 23.667 207 71s73.333 117.666 72 210.999v102c-38 -33.333 -81.833 -59.166 -131.5 -77.499s-104.834 -27.5 -165.501 -27.5zM598.003 158.997
c103.333 0 178.001 35.667 224.001 107s69 163 69 275s-23 203.333 -69 274s-118.333 106 -217 106c-69.333 0 -126.333 -17 -171 -51s-77.834 -79.667 -99.501 -137s-32.5 -121.333 -32.5 -192c0 -71.333 10.667 -135.833 32 -193.5s54 -103.5 98 -137.5
s99.333 -51 166 -51z" />
    <glyph glyph-name="Gbreve" unicode="&#x11e;" horiz-adv-x="1446" 
d="M734 1564c-52.667 0 -100.832 13 -144.499 39s-78.5 60.667 -104.5 104s-39 91.666 -39 144.999h166c0 -33.333 12 -62 36 -86s52.667 -36 86 -36c34 0 62.833 12 86.5 36s35.5 52.667 35.5 86h166c0 -53.333 -12.833 -101.666 -38.5 -144.999s-60.334 -78 -104.001 -104
s-92.167 -39 -145.5 -39zM729.002 -30c-128.667 0 -243.502 29.6699 -344.502 89.0029s-180.333 145 -238 257s-86.5 246.667 -86.5 404c0 155.333 28.333 289 85 401s135.334 198 236.001 258s216.667 90 348 90c168.667 0 303.667 -39.333 405 -118
s170.333 -187.334 207 -326.001l-212 -38c-29.333 86 -76.666 154.667 -141.999 206s-147.333 77.333 -246 78c-102 0.666992 -187 -22 -255 -68s-118.833 -110.5 -152.5 -193.5s-50.834 -179.5 -51.501 -289.5c-0.666992 -164.667 37.333 -297.334 114 -398.001
s191.667 -151.667 345 -153c123.333 -1.33301 220.333 33.5 291 104.5s113.334 173.167 128.001 306.5h-280v168h502c1.33301 -12 2.33301 -27.833 3 -47.5s1 -32.167 1 -37.5c0 -133.333 -25.667 -252.333 -77 -357s-126 -186.834 -224 -246.501s-216.667 -89.5 -356 -89.5
z" />
    <glyph glyph-name="gbreve" unicode="&#x11f;" horiz-adv-x="1216" 
d="M661 1204c-52.667 0 -100.832 13 -144.499 39s-78.5 60.667 -104.5 104s-39 91.666 -39 144.999h166c0 -33.333 12 -62 36 -86s52.667 -36 86 -36c34 0 62.833 12 86.5 36s35.5 52.667 35.5 86h166c0 -53.333 -12.833 -101.666 -38.5 -144.999s-60.334 -78 -104.001 -104
s-92.167 -39 -145.5 -39zM569.002 -30c-100.667 0 -187.497 24.9971 -260.497 74.9971s-129.333 118.167 -169 204.5s-59.5 183.5 -59.5 291.5c0 108.667 20 205.834 60 291.501s96.833 153.334 170.5 203.001s161.167 74.5 262.5 74.5c66.667 0 126.667 -11.167 180 -33.5
s99.333 -53.5 138 -93.5v97h185v-1109c0 -29.333 -1 -57 -3 -83s-5.66699 -51.667 -11 -77c-22.667 -109.333 -76.334 -190.166 -161.001 -242.499s-190 -78.5 -316 -78.5c-87.333 0 -169.5 20.167 -246.5 60.5s-137.5 98.833 -181.5 175.5l193 98
c23.333 -46 56.666 -79.667 99.999 -101s89 -32 137 -32c88.667 0 157.667 23.667 207 71s73.333 117.666 72 210.999v102c-38 -33.333 -81.833 -59.166 -131.5 -77.499s-104.834 -27.5 -165.501 -27.5zM598.005 158.997c103.333 0 178.001 35.667 224.001 107
s69 163 69 275s-23 203.333 -69 274s-118.333 106 -217 106c-69.333 0 -126.333 -17 -171 -51s-77.834 -79.667 -99.501 -137s-32.5 -121.333 -32.5 -192c0 -71.333 10.667 -135.833 32 -193.5s54 -103.5 98 -137.5s99.333 -51 166 -51z" />
    <glyph glyph-name="Gdotaccent" unicode="&#x120;" horiz-adv-x="1446" 
d="M639 1659v221h222v-221h-222zM729 -30c-128.667 0 -243.502 29.6699 -344.502 89.0029s-180.333 145 -238 257s-86.5 246.667 -86.5 404c0 155.333 28.333 289 85 401s135.334 198 236.001 258s216.667 90 348 90c168.667 0 303.667 -39.333 405 -118
s170.333 -187.334 207 -326.001l-212 -38c-29.333 86 -76.666 154.667 -141.999 206s-147.333 77.333 -246 78c-102 0.666992 -187 -22 -255 -68s-118.833 -110.5 -152.5 -193.5s-50.834 -179.5 -51.501 -289.5c-0.666992 -164.667 37.333 -297.334 114 -398.001
s191.667 -151.667 345 -153c123.333 -1.33301 220.333 33.5 291 104.5s113.334 173.167 128.001 306.5h-280v168h502c1.33301 -12 2.33301 -27.833 3 -47.5s1 -32.167 1 -37.5c0 -133.333 -25.667 -252.333 -77 -357s-126 -186.834 -224 -246.501s-216.667 -89.5 -356 -89.5
z" />
    <glyph glyph-name="gdotaccent" unicode="&#x121;" horiz-adv-x="1216" 
d="M539 1299v221h222v-221h-222zM569 -30c-100.667 0 -187.497 24.9971 -260.497 74.9971s-129.333 118.167 -169 204.5s-59.5 183.5 -59.5 291.5c0 108.667 20 205.834 60 291.501s96.833 153.334 170.5 203.001s161.167 74.5 262.5 74.5
c66.667 0 126.667 -11.167 180 -33.5s99.333 -53.5 138 -93.5v97h185v-1109c0 -29.333 -1 -57 -3 -83s-5.66699 -51.667 -11 -77c-22.667 -109.333 -76.334 -190.166 -161.001 -242.499s-190 -78.5 -316 -78.5c-87.333 0 -169.5 20.167 -246.5 60.5
s-137.5 98.833 -181.5 175.5l193 98c23.333 -46 56.666 -79.667 99.999 -101s89 -32 137 -32c88.667 0 157.667 23.667 207 71s73.333 117.666 72 210.999v102c-38 -33.333 -81.833 -59.166 -131.5 -77.499s-104.834 -27.5 -165.501 -27.5zM598.003 158.997
c103.333 0 178.001 35.667 224.001 107s69 163 69 275s-23 203.333 -69 274s-118.333 106 -217 106c-69.333 0 -126.333 -17 -171 -51s-77.834 -79.667 -99.501 -137s-32.5 -121.333 -32.5 -192c0 -71.333 10.667 -135.833 32 -193.5s54 -103.5 98 -137.5
s99.333 -51 166 -51z" />
    <glyph glyph-name="uni0122" unicode="&#x122;" horiz-adv-x="1446" 
d="M729 -30c-128.667 0 -243.502 29.6699 -344.502 89.0029s-180.333 145 -238 257s-86.5 246.667 -86.5 404c0 155.333 28.333 289 85 401s135.334 198 236.001 258s216.667 90 348 90c168.667 0 303.667 -39.333 405 -118s170.333 -187.334 207 -326.001l-212 -38
c-29.333 86 -76.666 154.667 -141.999 206s-147.333 77.333 -246 78c-102 0.666992 -187 -22 -255 -68s-118.833 -110.5 -152.5 -193.5s-50.834 -179.5 -51.501 -289.5c-0.666992 -164.667 37.333 -297.334 114 -398.001s191.667 -151.667 345 -153
c123.333 -1.33301 220.333 33.5 291 104.5s113.334 173.167 128.001 306.5h-280v168h502c1.33301 -12 2.33301 -27.833 3 -47.5s1 -32.167 1 -37.5c0 -133.333 -25.667 -252.333 -77 -357s-126 -186.834 -224 -246.501s-216.667 -89.5 -356 -89.5zM650.998 -589.997
l0.00195312 96.001c9.33301 0 23.333 2.33301 42 7s35.667 14 51 28s22.666 35.333 21.999 64h-115v211h210v-211c0 -60.667 -20.333 -108.334 -61 -143.001s-90.334 -52 -149.001 -52z" />
    <glyph glyph-name="uni0123" unicode="&#x123;" horiz-adv-x="1216" 
d="M731 1705l-0.00195312 -96c-9.33301 0 -23.333 -2.33301 -42 -7s-35.667 -14.167 -51 -28.5s-22.666 -35.833 -21.999 -64.5h115v-210h-210v210c0 61.333 20.333 109.333 61 144s90.334 52 149.001 52zM568.998 -30c-100.667 0 -187.497 24.9971 -260.497 74.9971
s-129.333 118.167 -169 204.5s-59.5 183.5 -59.5 291.5c0 108.667 20 205.834 60 291.501s96.833 153.334 170.5 203.001s161.167 74.5 262.5 74.5c66.667 0 126.667 -11.167 180 -33.5s99.333 -53.5 138 -93.5v97h185v-1109c0 -29.333 -1 -57 -3 -83
s-5.66699 -51.667 -11 -77c-22.667 -109.333 -76.334 -190.166 -161.001 -242.499s-190 -78.5 -316 -78.5c-87.333 0 -169.5 20.167 -246.5 60.5s-137.5 98.833 -181.5 175.5l193 98c23.333 -46 56.666 -79.667 99.999 -101s89 -32 137 -32c88.667 0 157.667 23.667 207 71
s73.333 117.666 72 210.999v102c-38 -33.333 -81.833 -59.166 -131.5 -77.499s-104.834 -27.5 -165.501 -27.5zM598.001 158.997c103.333 0 178.001 35.667 224.001 107s69 163 69 275s-23 203.333 -69 274s-118.333 106 -217 106c-69.333 0 -126.333 -17 -171 -51
s-77.834 -79.667 -99.501 -137s-32.5 -121.333 -32.5 -192c0 -71.333 10.667 -135.833 32 -193.5s54 -103.5 98 -137.5s99.333 -51 166 -51z" />
    <glyph glyph-name="Hcircumflex" unicode="&#x124;" horiz-adv-x="1419" 
d="M358 1600l258 300h181l258 -300h-200l-148 177l-149 -177h-200zM140 0v1440h209v-621h720v621h210v-1440h-210v622h-720v-622h-209z" />
    <glyph glyph-name="hcircumflex" unicode="&#x125;" 
d="M-119 1600l258 300h181l258 -300h-200l-148 177l-149 -177h-200zM139 0l0.000976562 1440h187v-489c39.333 50 89.166 88.833 149.499 116.5s129.5 41.5 207.5 41.5c74 0 136.5 -12 187.5 -36s92.333 -55.5 124 -94.5s55.834 -81.5 72.501 -127.5s28 -91 34 -135
s9 -82.667 9 -116v-600h-212v531c0 42 -3.5 85.167 -10.5 129.5s-20.167 85.5 -39.5 123.5s-47 68.667 -83 92s-82.667 35 -140 35c-50 0 -95.833 -11.333 -137.5 -34s-74.834 -59.5 -99.501 -110.5s-37 -119.167 -37 -204.5v-562h-212z" />
    <glyph glyph-name="Hbar" unicode="&#x126;" horiz-adv-x="1459" 
d="M160 0v991h-140v197h140v252h209v-252h720v252h210v-252h140v-197h-140v-991h-210v622h-720v-622h-209zM369 819h720v172h-720v-172z" />
    <glyph glyph-name="hbar" unicode="&#x127;" 
d="M139 0l0.000976562 1173h-115v167h115v100h187v-100h221v-167h-221v-222c39.333 50 89.166 88.833 149.499 116.5s129.5 41.5 207.5 41.5c74 0 136.5 -12 187.5 -36s92.333 -55.5 124 -94.5s55.834 -81.5 72.501 -127.5s28 -91 34 -135s9 -82.667 9 -116v-600h-212v531
c0 42 -3.5 85.167 -10.5 129.5s-20.167 85.5 -39.5 123.5s-47 68.667 -83 92s-82.667 35 -140 35c-50 0 -95.833 -11.333 -137.5 -34s-74.834 -59.5 -99.501 -110.5s-37 -119.167 -37 -204.5v-562h-212z" />
    <glyph glyph-name="Itilde" unicode="&#x128;" horiz-adv-x="529" 
d="M426 1604c-30.667 0 -60.166 6.50195 -88.499 19.502s-55.333 28.167 -81 45.5s-50 32.666 -73 45.999s-44.167 20 -63.5 20c-23.333 0 -38.666 -10.833 -45.999 -32.5s-7 -46.834 1 -75.501h-136c-18 73.333 -13 135.666 15 186.999s77.667 77 149 77
c30.667 0 60.167 -6.66699 88.5 -20s55.333 -28.666 81 -45.999s50 -32.5 73 -45.5s44.5 -19.5 64.5 -19.5c21.333 0 36.166 10.5 44.499 31.5s8.16602 46.833 -0.500977 77.5h136c18 -73.333 13.167 -135.833 -14.5 -187.5s-77.5 -77.5 -149.5 -77.5zM160.001 0.00195312
v1440h209v-1440h-209z" />
    <glyph glyph-name="itilde" unicode="&#x129;" horiz-adv-x="529" 
d="M426 1244c-30.667 0 -60.166 6.50195 -88.499 19.502s-55.333 28.167 -81 45.5s-50 32.666 -73 45.999s-44.167 20 -63.5 20c-23.333 0 -38.666 -10.833 -45.999 -32.5s-7 -46.834 1 -75.501h-136c-18 73.333 -13 135.666 15 186.999s77.667 77 149 77
c30.667 0 60.167 -6.66699 88.5 -20s55.333 -28.666 81 -45.999s50 -32.5 73 -45.5s44.5 -19.5 64.5 -19.5c21.333 0 36.166 10.5 44.499 31.5s8.16602 46.833 -0.500977 77.5h136c18 -73.333 13.167 -135.833 -14.5 -187.5s-77.5 -77.5 -149.5 -77.5zM160.001 0.00195312
v1080h209v-1080h-209z" />
    <glyph glyph-name="Imacron" unicode="&#x12a;" horiz-adv-x="529" 
d="M3 1680v167h523v-167h-523zM160 0v1440h209v-1440h-209z" />
    <glyph glyph-name="imacron" unicode="&#x12b;" horiz-adv-x="529" 
d="M3 1320v167h523v-167h-523zM160 0v1080h209v-1080h-209z" />
    <glyph glyph-name="Iogonek" unicode="&#x12e;" horiz-adv-x="529" 
d="M185 -480c-60 0 -109.499 21.332 -148.499 63.999s-58.5 91.667 -58.5 147c0 52 16.833 105 50.5 159s77.5 102.667 131.5 146v1404h209v-1440c-40.667 -22.667 -77.834 -49.167 -111.501 -79.5s-60.667 -61 -81 -92s-30.5 -58.833 -30.5 -83.5
c0 -19.333 6.16699 -35.166 18.5 -47.499s27.5 -18.5 45.5 -18.5c26 0 52.667 13 80 39l79 -101c-23.333 -31.333 -51.333 -55.333 -84 -72s-66 -25 -100 -25z" />
    <glyph glyph-name="iogonek" unicode="&#x12f;" horiz-adv-x="529" 
d="M160 1257v203h209v-203h-209zM185 -480c-60 0 -109.499 21.332 -148.499 63.999s-58.5 91.667 -58.5 147c0 52 16.833 105 50.5 159s77.5 102.667 131.5 146v1044h209v-1080c-40.667 -22.667 -77.834 -49.167 -111.501 -79.5s-60.667 -61 -81 -92
s-30.5 -58.833 -30.5 -83.5c0 -19.333 6.16699 -35.166 18.5 -47.499s27.5 -18.5 45.5 -18.5c26 0 52.667 13 80 39l79 -101c-23.333 -31.333 -51.333 -55.333 -84 -72s-66 -25 -100 -25z" />
    <glyph glyph-name="Idotaccent" unicode="&#x130;" horiz-adv-x="529" 
d="M154 1659v221h221v-221h-221zM160 0v1440h209v-1440h-209z" />
    <glyph glyph-name="dotlessi" unicode="&#x131;" horiz-adv-x="529" 
d="M160 0v1080h209v-1080h-209z" />
    <glyph glyph-name="Jcircumflex" unicode="&#x134;" horiz-adv-x="977" 
d="M359 1600l258 300h181l258 -300h-200l-149 177l-148 -177h-200zM414 -29c-106 0 -194.668 28.001 -266.001 84.001s-120.666 131.333 -147.999 226l207 49c9.33301 -44.667 33 -82.834 71 -114.501s81 -47.5 129 -47.5c31.333 0 63.833 8 97.5 24s59.167 42 76.5 78
c11.333 23.333 18 50.5 20 81.5s3 67.5 3 109.5v979h212v-979c0 -64 -1.16699 -118.167 -3.5 -162.5s-16.833 -89.833 -43.5 -136.5c-38 -66 -88 -114.333 -150 -145s-130.333 -46 -205 -46z" />
    <glyph glyph-name="jcircumflex" unicode="&#x135;" horiz-adv-x="551" 
d="M-52 1240l258 300h181l258 -300h-200l-148 177l-149 -177h-200zM-20 -480v198h55c106.667 0 160 54.333 160 163v1199h210v-1284c0 -88 -24.333 -156 -73 -204s-117.667 -72 -207 -72h-145z" />
    <glyph glyph-name="uni0136" unicode="&#x136;" horiz-adv-x="1259" 
d="M140 0v1440h209v-672l603 672h260l-637 -703l684 -737h-268l-642 688v-688h-209zM565 -590l0.000976562 96.001c9.33301 0 23.5 2.33301 42.5 7s36.167 14 51.5 28s22.666 35.333 21.999 64h-116v211h211v-211c0 -60.667 -20.5 -108.334 -61.5 -143.001
s-90.833 -52 -149.5 -52z" />
    <glyph glyph-name="uni0137" unicode="&#x137;" horiz-adv-x="1048" 
d="M139 0l1 1440h212v-880l424 520h266l-448 -540l494 -540h-284l-452 520v-520h-213zM475 -590l0.00195312 96.001c9.33301 0 23.333 2.33301 42 7s35.667 14 51 28s22.666 35.333 21.999 64h-115v211h210v-211c0 -60.667 -20.333 -108.334 -61 -143.001
s-90.334 -52 -149.001 -52z" />
    <glyph glyph-name="Lacute" unicode="&#x139;" horiz-adv-x="1051" 
d="M350 1600h-164l143 350h164zM160 0v1440h209v-1243h652v-197h-861z" />
    <glyph glyph-name="lacute" unicode="&#x13a;" horiz-adv-x="529" 
d="M350 1600h-164l143 350h164zM160 0v1470h209v-1470h-209z" />
    <glyph glyph-name="uni013B" unicode="&#x13b;" horiz-adv-x="1051" 
d="M160 0v1440h209v-1243h652v-197h-861zM485 -590l0.000976562 96.001c9.33301 0 23.5 2.33301 42.5 7s36.167 14 51.5 28s22.666 35.333 21.999 64h-116v211h211v-211c0 -60.667 -20.5 -108.334 -61.5 -143.001s-90.833 -52 -149.5 -52z" />
    <glyph glyph-name="uni013C" unicode="&#x13c;" horiz-adv-x="529" 
d="M160 0v1470h209v-1470h-209zM159 -590l-0.000976562 96.001c9.33301 0 23.333 2.33301 42 7s35.834 14 51.501 28s23.167 35.333 22.5 64h-116v211h211v-211c0 -60.667 -20.5 -108.334 -61.5 -143.001s-90.833 -52 -149.5 -52z" />
    <glyph glyph-name="Lcaron" unicode="&#x13d;" horiz-adv-x="1051" 
d="M160 0v1440h209v-1243h652v-197h-861zM649 966l13 93c43.333 -3.33301 72.333 9.5 87 38.5s19.667 64.833 15 107.5h-115v241h221v-261c0 -78.667 -18.833 -138 -56.5 -178s-92.5 -53.667 -164.5 -41z" />
    <glyph glyph-name="lcaron" unicode="&#x13e;" horiz-adv-x="805" 
d="M160 0v1470h209v-1470h-209zM533 966l13 93c43.333 -3.33301 72.333 9.5 87 38.5s19.667 64.833 15 107.5h-115v241h221v-261c0 -78.667 -18.833 -138 -56.5 -178s-92.5 -53.667 -164.5 -41z" />
    <glyph glyph-name="Lslash" unicode="&#x141;" horiz-adv-x="1078" 
d="M187 0v432l-117 -67v228l117 67v780h209v-660l329 189v-228l-329 -189v-355h652v-197h-861z" />
    <glyph glyph-name="lslash" unicode="&#x142;" horiz-adv-x="782" 
d="M287 0v561l-224 -128v228l224 128v681h209v-560l223 127v-228l-223 -128v-681h-209z" />
    <glyph glyph-name="Nacute" unicode="&#x143;" horiz-adv-x="1413" 
d="M805 1600h-164l142 350h164zM140 0v1440h212l709 -1070v1070h212v-1440h-212l-709 1071v-1071h-212z" />
    <glyph glyph-name="nacute" unicode="&#x144;" 
d="M712 1240h-164l143 350h164zM139 0l0.000976562 1080h187v-129c39.333 50 89.166 88.833 149.499 116.5s129.5 41.5 207.5 41.5c74 0 136.5 -12 187.5 -36s92.333 -55.5 124 -94.5s55.834 -81.5 72.501 -127.5s28 -91 34 -135s9 -82.667 9 -116v-600h-212v531
c0 42 -3.5 85.167 -10.5 129.5s-20.167 85.5 -39.5 123.5s-47 68.667 -83 92s-82.667 35 -140 35c-50 0 -95.833 -11.333 -137.5 -34s-74.834 -59.5 -99.501 -110.5s-37 -119.167 -37 -204.5v-562h-212z" />
    <glyph glyph-name="uni0145" unicode="&#x145;" horiz-adv-x="1413" 
d="M140 0v1440h212l709 -1070v1070h212v-1440h-212l-709 1071v-1071h-212zM622 -590l0.000976562 96.001c9.33301 0 23.333 2.33301 42 7s35.667 14 51 28s22.666 35.333 21.999 64h-115v211h211v-211c0 -60.667 -20.5 -108.334 -61.5 -143.001s-90.833 -52 -149.5 -52z" />
    <glyph glyph-name="uni0146" unicode="&#x146;" 
d="M139 0l0.000976562 1080h187v-129c39.333 50 89.166 88.833 149.499 116.5s129.5 41.5 207.5 41.5c74 0 136.5 -12 187.5 -36s92.333 -55.5 124 -94.5s55.834 -81.5 72.501 -127.5s28 -91 34 -135s9 -82.667 9 -116v-600h-212v531c0 42 -3.5 85.167 -10.5 129.5
s-20.167 85.5 -39.5 123.5s-47 68.667 -83 92s-82.667 35 -140 35c-50 0 -95.833 -11.333 -137.5 -34s-74.834 -59.5 -99.501 -110.5s-37 -119.167 -37 -204.5v-562h-212zM524.001 -590l0.000976562 96.001c9.33301 0 23.333 2.33301 42 7s35.667 14 51 28
s22.666 35.333 21.999 64h-115v211h211v-211c0 -60.667 -20.5 -108.334 -61.5 -143.001s-90.833 -52 -149.5 -52z" />
    <glyph glyph-name="Ncaron" unicode="&#x147;" horiz-adv-x="1413" 
d="M379 1900h200l148 -177l149 177h200l-258 -300h-181zM140 0v1440h212l709 -1070v1070h212v-1440h-212l-709 1071v-1071h-212z" />
    <glyph glyph-name="ncaron" unicode="&#x148;" 
d="M266 1540h200l149 -177l148 177h200l-258 -300h-181zM139 0l0.000976562 1080h187v-129c39.333 50 89.166 88.833 149.499 116.5s129.5 41.5 207.5 41.5c74 0 136.5 -12 187.5 -36s92.333 -55.5 124 -94.5s55.834 -81.5 72.501 -127.5s28 -91 34 -135s9 -82.667 9 -116
v-600h-212v531c0 42 -3.5 85.167 -10.5 129.5s-20.167 85.5 -39.5 123.5s-47 68.667 -83 92s-82.667 35 -140 35c-50 0 -95.833 -11.333 -137.5 -34s-74.834 -59.5 -99.501 -110.5s-37 -119.167 -37 -204.5v-562h-212z" />
    <glyph glyph-name="Eng" unicode="&#x14a;" horiz-adv-x="1413" 
d="M1061 1440l212.001 0.000976562v-1621c0 -171.333 -83.333 -257 -250 -257c-22.667 0 -45.167 1.33301 -67.5 4s-44.5 7 -66.5 13v160l45.5 -4.5c10.333 -1 20.166 -1.5 29.499 -1.5c45.333 0 78.666 9.66699 99.999 29s32 51.333 32 96
c0 31.333 -6.66699 63.666 -20 96.999s-37.666 78 -72.999 134l-651 982v-1071h-212v1440h212l709 -1070v1070z" />
    <glyph glyph-name="eng" unicode="&#x14b;" 
d="M139 0l0.00195312 1080h187v-129c39.333 50 89.166 88.833 149.499 116.5s129.5 41.5 207.5 41.5c74 0 136.5 -12 187.5 -36s92.333 -55.5 124 -94.5s55.834 -81.5 72.501 -127.5s28 -91 34 -135s9 -82.667 9 -116v-781c0 -71.333 -15.667 -128.166 -47 -170.499
s-74 -68.833 -128 -79.5c-42 -7.33301 -79.833 -9.5 -113.5 -6.5s-65.834 8.5 -96.501 16.5v154c28.667 -3.33301 56.167 -3.83301 82.5 -1.5s48 14 65 35s25.5 57.167 25.5 108.5v656c0 42 -3.5 85.167 -10.5 129.5s-20.167 85.5 -39.5 123.5s-47 68.667 -83 92
s-82.667 35 -140 35c-50 0 -95.833 -11.333 -137.5 -34s-74.834 -59.5 -99.501 -110.5s-37 -119.167 -37 -204.5v-562h-212z" />
    <glyph glyph-name="Omacron" unicode="&#x14c;" horiz-adv-x="1481" 
d="M479 1680v167h523v-167h-523zM741 -30c-144 0 -266.667 31.5 -368 94.5s-178.833 150.833 -232.5 263.5s-80.5 243.334 -80.5 392.001s26.833 279.334 80.5 392.001s131.167 200.5 232.5 263.5s224 94.5 368 94.5c143.333 0 265.833 -31.5 367.5 -94.5
s179.167 -150.833 232.5 -263.5s80 -243.334 80 -392.001s-26.667 -279.334 -80 -392.001s-130.833 -200.5 -232.5 -263.5s-224.167 -94.5 -367.5 -94.5zM741 169c102 -1.33301 187.001 21.1699 255.001 67.5029s118.833 111 152.5 194s50.5 179.5 50.5 289.5
c0 165.333 -38.167 298.166 -114.5 398.499s-190.833 151.166 -343.5 152.499c-102 1.33301 -187 -21.167 -255 -67.5s-118.833 -111 -152.5 -194s-50.834 -179.5 -51.501 -289.5c-0.666992 -164.667 37.333 -297.334 114 -398.001s191.667 -151.667 345 -153z" />
    <glyph glyph-name="omacron" unicode="&#x14d;" horiz-adv-x="1219" 
d="M349 1320v167h522v-167h-522zM609 -30c-108 0 -201.667 24.332 -281 72.999s-140.5 115.834 -183.5 201.501s-64.5 184.5 -64.5 296.5c0 112.667 22 211.667 66 297s105.667 152 185 200s172 72 278 72c108 0 201.667 -24.167 281 -72.5s140.666 -115.333 183.999 -201
s65 -184.167 65 -295.5c0 -112.667 -21.833 -212 -65.5 -298s-105.167 -153 -184.5 -201s-172.666 -72 -279.999 -72zM609 166.999c103.333 0 180.5 34.666 231.5 103.999s76.5 159.333 76.5 270c0 112.667 -25.833 202.834 -77.5 270.501s-128.5 101.5 -230.5 101.5
c-105.333 0 -182.833 -34.5 -232.5 -103.5s-74.5 -158.5 -74.5 -268.5c0 -114 25.833 -204.833 77.5 -272.5s128.167 -101.5 229.5 -101.5z" />
    <glyph glyph-name="Ohungarumlaut" unicode="&#x150;" horiz-adv-x="1481" 
d="M1010 1600h-164l143 350h164zM611 1600h-164l143 350h164zM741 -30c-144 0 -266.667 31.5 -368 94.5s-178.833 150.833 -232.5 263.5s-80.5 243.334 -80.5 392.001s26.833 279.334 80.5 392.001s131.167 200.5 232.5 263.5s224 94.5 368 94.5
c143.333 0 265.833 -31.5 367.5 -94.5s179.167 -150.833 232.5 -263.5s80 -243.334 80 -392.001s-26.667 -279.334 -80 -392.001s-130.833 -200.5 -232.5 -263.5s-224.167 -94.5 -367.5 -94.5zM741 169c102 -1.33301 187.001 21.1699 255.001 67.5029s118.833 111 152.5 194
s50.5 179.5 50.5 289.5c0 165.333 -38.167 298.166 -114.5 398.499s-190.833 151.166 -343.5 152.499c-102 1.33301 -187 -21.167 -255 -67.5s-118.833 -111 -152.5 -194s-50.834 -179.5 -51.501 -289.5c-0.666992 -164.667 37.333 -297.334 114 -398.001
s191.667 -151.667 345 -153z" />
    <glyph glyph-name="ohungarumlaut" unicode="&#x151;" horiz-adv-x="1219" 
d="M877 1240h-164l143 350h164zM478 1240h-164l142 350h164zM609 -30c-108 0 -201.667 24.332 -281 72.999s-140.5 115.834 -183.5 201.501s-64.5 184.5 -64.5 296.5c0 112.667 22 211.667 66 297s105.667 152 185 200s172 72 278 72c108 0 201.667 -24.167 281 -72.5
s140.666 -115.333 183.999 -201s65 -184.167 65 -295.5c0 -112.667 -21.833 -212 -65.5 -298s-105.167 -153 -184.5 -201s-172.666 -72 -279.999 -72zM609 166.999c103.333 0 180.5 34.666 231.5 103.999s76.5 159.333 76.5 270c0 112.667 -25.833 202.834 -77.5 270.501
s-128.5 101.5 -230.5 101.5c-105.333 0 -182.833 -34.5 -232.5 -103.5s-74.5 -158.5 -74.5 -268.5c0 -114 25.833 -204.833 77.5 -272.5s128.167 -101.5 229.5 -101.5z" />
    <glyph glyph-name="OE" unicode="&#x152;" horiz-adv-x="2231" 
d="M741 -30c-144 0 -266.667 31.5 -368 94.5s-178.833 150.833 -232.5 263.5s-80.5 243.334 -80.5 392.001s26.833 279.334 80.5 392.001s131.167 200.5 232.5 263.5s224 94.5 368 94.5c143.333 0 265.833 -31.5 367.5 -94.5s179.167 -150.833 232.5 -263.5
s80 -243.334 80 -392.001s-26.667 -279.334 -80 -392.001s-130.833 -200.5 -232.5 -263.5s-224.167 -94.5 -367.5 -94.5zM741 169c102 -1.33301 187.001 21.1699 255.001 67.5029s118.833 111 152.5 194s50.5 179.5 50.5 289.5c0 165.333 -38.167 298.166 -114.5 398.499
s-190.833 151.166 -343.5 152.499c-102 1.33301 -187 -21.167 -255 -67.5s-118.833 -111 -152.5 -194s-50.834 -179.5 -51.501 -289.5c-0.666992 -164.667 37.333 -297.334 114 -398.001s191.667 -151.667 345 -153zM1211 0.00292969v1440h920v-197h-711v-404h591v-197h-591
v-445h711v-197h-920z" />
    <glyph glyph-name="oe" unicode="&#x153;" horiz-adv-x="2030" 
d="M1456 -30c-107.333 0 -201.5 23.501 -282.5 70.501s-144 112.667 -189 197s-67.5 182.166 -67.5 293.499c0 118 22.167 220.333 66.5 307s106.166 153.667 185.499 201s171.666 71 276.999 71c110 0 203.667 -25.5 281 -76.5s135 -123.5 173 -217.5
s53.333 -205.667 46 -335h-805c8.66699 -100 38.834 -177.333 90.501 -232s123.167 -82 214.5 -82c132.667 0 226.334 57.333 281.001 172l205 -65c-42 -96.667 -105.667 -171.5 -191 -224.5s-180.333 -79.5 -285 -79.5zM1454 925.001c-178 0 -280.667 -93.667 -308 -281
h586c-21.333 187.333 -114 281 -278 281zM609 -29.999c-108 0 -201.667 24.332 -281 72.999s-140.5 115.834 -183.5 201.501s-64.5 184.5 -64.5 296.5c0 112.667 22 211.667 66 297s105.667 152 185 200s172 72 278 72c108 0 201.667 -24.167 281 -72.5
s140.666 -115.333 183.999 -201s65 -184.167 65 -295.5c0 -112.667 -21.833 -212 -65.5 -298s-105.167 -153 -184.5 -201s-172.666 -72 -279.999 -72zM609 167c103.333 0 180.5 34.666 231.5 103.999s76.5 159.333 76.5 270c0 112.667 -25.833 202.834 -77.5 270.501
s-128.5 101.5 -230.5 101.5c-105.333 0 -182.833 -34.5 -232.5 -103.5s-74.5 -158.5 -74.5 -268.5c0 -114 25.833 -204.833 77.5 -272.5s128.167 -101.5 229.5 -101.5z" />
    <glyph glyph-name="Racute" unicode="&#x154;" horiz-adv-x="1301" 
d="M695 1600h-164l143 350h164zM140 0l-0.000976562 1440h582c14 0 31.333 -0.5 52 -1.5s40.334 -3.16699 59.001 -6.5c120.667 -18.667 211 -69.667 271 -153s90 -183.333 90 -300c0 -96 -20.5 -181.333 -61.5 -256s-102.5 -129.667 -184.5 -165l273 -558h-239l-251 517
h-382v-517h-209zM348.999 715l365 -0.000976562c13.333 0 28.166 0.5 44.499 1.5s31.833 3.5 46.5 7.5c64 15.333 109.333 48.333 136 99s40 102.667 40 156c0 52.667 -13.333 104.334 -40 155.001s-72 83.667 -136 99c-14.667 4 -30.167 6.66699 -46.5 8
s-31.166 2 -44.499 2h-365v-528z" />
    <glyph glyph-name="racute" unicode="&#x155;" horiz-adv-x="773" 
d="M450 1240h-164l143 350h164zM140 0v1080h186v-172c26.667 47.333 60 84.333 100 111c40.667 30 88.167 50 142.5 60s105.833 10.333 154.5 1v-196c-35.333 9.33301 -74.5 12 -117.5 8s-82.5 -17.667 -118.5 -41c-50.667 -32.667 -86 -76 -106 -130s-30 -112.667 -30 -176
v-545h-211z" />
    <glyph glyph-name="uni0156" unicode="&#x156;" horiz-adv-x="1301" 
d="M140 0l-0.000976562 1440h582c14 0 31.333 -0.5 52 -1.5s40.334 -3.16699 59.001 -6.5c120.667 -18.667 211 -69.667 271 -153s90 -183.333 90 -300c0 -96 -20.5 -181.333 -61.5 -256s-102.5 -129.667 -184.5 -165l273 -558h-239l-251 517h-382v-517h-209zM348.999 715
l365 -0.000976562c13.333 0 28.166 0.5 44.499 1.5s31.833 3.5 46.5 7.5c64 15.333 109.333 48.333 136 99s40 102.667 40 156c0 52.667 -13.333 104.334 -40 155.001s-72 83.667 -136 99c-14.667 4 -30.167 6.66699 -46.5 8s-31.166 2 -44.499 2h-365v-528z
M537.999 -590.001l0.000976562 96.001c9.33301 0 23.333 2.33301 42 7s35.667 14 51 28s22.666 35.333 21.999 64h-115v211h211v-211c0 -60.667 -20.5 -108.334 -61.5 -143.001s-90.833 -52 -149.5 -52z" />
    <glyph glyph-name="uni0157" unicode="&#x157;" horiz-adv-x="773" 
d="M140 0v1080h186v-172c26.667 47.333 60 84.333 100 111c40.667 30 88.167 50 142.5 60s105.833 10.333 154.5 1v-196c-35.333 9.33301 -74.5 12 -117.5 8s-82.5 -17.667 -118.5 -41c-50.667 -32.667 -86 -76 -106 -130s-30 -112.667 -30 -176v-545h-211zM141 -590
l0.00195312 96.001c9.33301 0 23.333 2.33301 42 7s35.667 14 51 28s22.666 35.333 21.999 64h-115v211h210v-211c0 -60.667 -20.333 -108.334 -61 -143.001s-90.334 -52 -149.001 -52z" />
    <glyph glyph-name="Rcaron" unicode="&#x158;" horiz-adv-x="1301" 
d="M250 1900h200l149 -177l148 177h200l-258 -300h-181zM140 0l-0.000976562 1440h582c14 0 31.333 -0.5 52 -1.5s40.334 -3.16699 59.001 -6.5c120.667 -18.667 211 -69.667 271 -153s90 -183.333 90 -300c0 -96 -20.5 -181.333 -61.5 -256s-102.5 -129.667 -184.5 -165
l273 -558h-239l-251 517h-382v-517h-209zM348.999 715l365 -0.000976562c13.333 0 28.166 0.5 44.499 1.5s31.833 3.5 46.5 7.5c64 15.333 109.333 48.333 136 99s40 102.667 40 156c0 52.667 -13.333 104.334 -40 155.001s-72 83.667 -136 99
c-14.667 4 -30.167 6.66699 -46.5 8s-31.166 2 -44.499 2h-365v-528z" />
    <glyph glyph-name="rcaron" unicode="&#x159;" horiz-adv-x="773" 
d="M81 1540h200l148 -177l149 177h200l-258 -300h-181zM140 0v1080h186v-172c26.667 47.333 60 84.333 100 111c40.667 30 88.167 50 142.5 60s105.833 10.333 154.5 1v-196c-35.333 9.33301 -74.5 12 -117.5 8s-82.5 -17.667 -118.5 -41c-50.667 -32.667 -86 -76 -106 -130
s-30 -112.667 -30 -176v-545h-211z" />
    <glyph glyph-name="Sacute" unicode="&#x15a;" horiz-adv-x="1287" 
d="M737 1600h-164l142 350h164zM662 -30c-103.333 0 -196.499 17.8311 -279.499 53.498s-151.333 86.667 -205 153s-88.5 145.166 -104.5 236.499l218 33c22 -88.667 67.833 -157.334 137.5 -206.001s151.5 -73 245.5 -73c58 0 111.333 9.16699 160 27.5
s87.834 44.666 117.501 78.999s44.5 75.5 44.5 123.5c0 52 -16.833 92.5 -50.5 121.5s-77.167 51.5 -130.5 67.5l-369 109c-48 14 -96.333 34.333 -145 61s-89.5 63.834 -122.5 111.501s-49.5 110.5 -49.5 188.5c0 88.667 22.833 163.834 68.5 225.501
s107.5 108.334 185.5 140.001s165.333 47.5 262 47.5c146 -1.33301 268.333 -38.833 367 -112.5s162.667 -176.834 192 -309.501l-224 -38c-15.333 81.333 -54.833 145 -118.5 191s-136.834 69.667 -219.501 71c-53.333 1.33301 -102.166 -6.66699 -146.499 -24
s-79.666 -41.666 -105.999 -72.999s-39.5 -67.333 -39.5 -108c0 -40 11.667 -72.333 35 -97s52.166 -44.167 86.499 -58.5s68.5 -26.166 102.5 -35.499l266 -75c33.333 -9.33301 71.166 -21.833 113.499 -37.5s83.333 -37.5 123 -65.5s72.5 -65.167 98.5 -111.5
s39 -104.5 39 -174.5c0 -96.667 -25.333 -177.667 -76 -243s-117.834 -114.666 -201.501 -147.999s-175.167 -50 -274.5 -50z" />
    <glyph glyph-name="sacute" unicode="&#x15b;" horiz-adv-x="1072" 
d="M619 1240h-164l143 350h164zM553 -29c-131.333 0 -238.333 28.998 -321 86.998s-133.334 139.667 -152.001 245l214 33c13.333 -56.667 44.166 -101 92.499 -133s108.5 -48 180.5 -48c65.333 0 116.5 13.333 153.5 40s55.5 63.334 55.5 110.001
c0 27.333 -6.5 49.333 -19.5 66s-40.167 32.834 -81.5 48.501s-104.333 34.834 -189 57.501c-92.667 24 -166.167 49.833 -220.5 77.5s-93 60 -116 97s-34.5 81.833 -34.5 134.5c0 98 38.333 176.5 115 235.5s178.334 88.5 305.001 88.5c124 0 227 -28.833 309 -86.5
s129 -134.5 141 -230.5l-214 -39c-7.33301 52 -31.666 93 -72.999 123s-95 46.333 -161 49c-63.333 2 -114.666 -8.83301 -153.999 -32.5s-59 -55.834 -59 -96.501c0 -24 7.5 -44.167 22.5 -60.5s44.167 -32.333 87.5 -48s107.333 -34.167 192 -55.5
c90.667 -23.333 162.667 -49.166 216 -77.499s91.5 -62 114.5 -101s34.5 -86.167 34.5 -141.5c0 -106.667 -38.833 -190.334 -116.5 -251.001s-184.834 -91 -321.501 -91z" />
    <glyph glyph-name="Scircumflex" unicode="&#x15c;" horiz-adv-x="1287" 
d="M311 1600l258 300h181l258 -300h-200l-149 177l-148 -177h-200zM662 -30c-103.333 0 -196.499 17.8311 -279.499 53.498s-151.333 86.667 -205 153s-88.5 145.166 -104.5 236.499l218 33c22 -88.667 67.833 -157.334 137.5 -206.001s151.5 -73 245.5 -73
c58 0 111.333 9.16699 160 27.5s87.834 44.666 117.501 78.999s44.5 75.5 44.5 123.5c0 52 -16.833 92.5 -50.5 121.5s-77.167 51.5 -130.5 67.5l-369 109c-48 14 -96.333 34.333 -145 61s-89.5 63.834 -122.5 111.501s-49.5 110.5 -49.5 188.5
c0 88.667 22.833 163.834 68.5 225.501s107.5 108.334 185.5 140.001s165.333 47.5 262 47.5c146 -1.33301 268.333 -38.833 367 -112.5s162.667 -176.834 192 -309.501l-224 -38c-15.333 81.333 -54.833 145 -118.5 191s-136.834 69.667 -219.501 71
c-53.333 1.33301 -102.166 -6.66699 -146.499 -24s-79.666 -41.666 -105.999 -72.999s-39.5 -67.333 -39.5 -108c0 -40 11.667 -72.333 35 -97s52.166 -44.167 86.499 -58.5s68.5 -26.166 102.5 -35.499l266 -75c33.333 -9.33301 71.166 -21.833 113.499 -37.5
s83.333 -37.5 123 -65.5s72.5 -65.167 98.5 -111.5s39 -104.5 39 -174.5c0 -96.667 -25.333 -177.667 -76 -243s-117.834 -114.666 -201.501 -147.999s-175.167 -50 -274.5 -50z" />
    <glyph glyph-name="scircumflex" unicode="&#x15d;" horiz-adv-x="1072" 
d="M205 1240l258 300h181l258 -300h-200l-149 177l-148 -177h-200zM553 -29c-131.333 0 -238.333 28.998 -321 86.998s-133.334 139.667 -152.001 245l214 33c13.333 -56.667 44.166 -101 92.499 -133s108.5 -48 180.5 -48c65.333 0 116.5 13.333 153.5 40
s55.5 63.334 55.5 110.001c0 27.333 -6.5 49.333 -19.5 66s-40.167 32.834 -81.5 48.501s-104.333 34.834 -189 57.501c-92.667 24 -166.167 49.833 -220.5 77.5s-93 60 -116 97s-34.5 81.833 -34.5 134.5c0 98 38.333 176.5 115 235.5s178.334 88.5 305.001 88.5
c124 0 227 -28.833 309 -86.5s129 -134.5 141 -230.5l-214 -39c-7.33301 52 -31.666 93 -72.999 123s-95 46.333 -161 49c-63.333 2 -114.666 -8.83301 -153.999 -32.5s-59 -55.834 -59 -96.501c0 -24 7.5 -44.167 22.5 -60.5s44.167 -32.333 87.5 -48
s107.333 -34.167 192 -55.5c90.667 -23.333 162.667 -49.166 216 -77.499s91.5 -62 114.5 -101s34.5 -86.167 34.5 -141.5c0 -106.667 -38.833 -190.334 -116.5 -251.001s-184.834 -91 -321.501 -91z" />
    <glyph glyph-name="Scedilla" unicode="&#x15e;" horiz-adv-x="1287" 
d="M653 -482c-26 0 -50.167 3.33203 -72.5 9.99902s-43.166 15 -62.499 25l48 128c28.667 -9.33301 51.667 -14 69 -14c22 0 38.833 6.5 50.5 19.5s17.5 27.167 17.5 42.5c0 27.333 -13.167 47.166 -39.5 59.499s-56.833 23.833 -91.5 34.5l52 148
c-97.333 4 -184.666 24.5 -261.999 61.5s-141 87.667 -191 152s-82.667 140.5 -98 228.5l218 33c22 -88.667 67.833 -157.334 137.5 -206.001s151.5 -73 245.5 -73c58 0 111.333 9.16699 160 27.5s87.834 44.666 117.501 78.999s44.5 75.5 44.5 123.5
c0 52 -16.833 92.5 -50.5 121.5s-77.167 51.5 -130.5 67.5l-369 109c-48 14 -96.333 34.333 -145 61s-89.5 63.834 -122.5 111.501s-49.5 110.5 -49.5 188.5c0 88.667 22.833 163.834 68.5 225.501s107.5 108.334 185.5 140.001s165.333 47.5 262 47.5
c146 -1.33301 268.333 -38.833 367 -112.5s162.667 -176.834 192 -309.501l-224 -38c-15.333 81.333 -54.833 145 -118.5 191s-136.834 69.667 -219.501 71c-53.333 1.33301 -102.166 -6.66699 -146.499 -24s-79.666 -41.666 -105.999 -72.999s-39.5 -67.333 -39.5 -108
c0 -40 11.667 -72.333 35 -97s52.166 -44.167 86.499 -58.5s68.5 -26.166 102.5 -35.499l266 -75c33.333 -9.33301 71.166 -21.833 113.499 -37.5s83.333 -37.5 123 -65.5s72.5 -65.167 98.5 -111.5s39 -104.5 39 -174.5c0 -86 -20.333 -159.667 -61 -221
s-95.334 -110 -164.001 -146s-145.334 -58.667 -230.001 -68l-25 -71c37.333 -18 66.833 -42 88.5 -72s32.5 -66.667 32.5 -110c0 -60 -20 -109.167 -60 -147.5s-87.333 -57.5 -142 -57.5z" />
    <glyph glyph-name="scedilla" unicode="&#x15f;" horiz-adv-x="1072" 
d="M522 -482c-26 0 -50.1689 3.33203 -72.502 9.99902s-43.166 15 -62.499 25l48 128c28.667 -9.33301 51.667 -14 69 -14c22 0 39 6.5 51 19.5s18 27.167 18 42.5c0 27.333 -13.333 47.166 -40 59.499s-57.334 23.833 -92.001 34.5l53 150
c-114.667 8 -208.167 40.667 -280.5 98s-116.833 134.666 -133.5 231.999l214 33c13.333 -56.667 44.166 -101 92.499 -133s108.5 -48 180.5 -48c65.333 0 116.5 13.333 153.5 40s55.5 63.334 55.5 110.001c0 27.333 -6.5 49.333 -19.5 66s-40.167 32.834 -81.5 48.501
s-104.333 34.834 -189 57.501c-92.667 24 -166.167 49.833 -220.5 77.5s-93 60 -116 97s-34.5 81.833 -34.5 134.5c0 98 38.333 176.5 115 235.5s178.334 88.5 305.001 88.5c124 0 227 -28.833 309 -86.5s129 -134.5 141 -230.5l-214 -39
c-7.33301 52 -31.666 93 -72.999 123s-95 46.333 -161 49c-63.333 2 -114.666 -8.83301 -153.999 -32.5s-59 -55.834 -59 -96.501c0 -24 7.5 -44.167 22.5 -60.5s44.167 -32.333 87.5 -48s107.333 -34.167 192 -55.5c90.667 -23.333 162.667 -49.166 216 -77.499
s91.5 -62 114.5 -101s34.5 -86.167 34.5 -141.5c0 -96.667 -32 -174.667 -96 -234s-153 -94.333 -267 -105l-25 -69c37.333 -18 67 -42 89 -72s33 -66.667 33 -110c0 -60 -20.167 -109.167 -60.5 -147.5s-87.833 -57.5 -142.5 -57.5z" />
    <glyph glyph-name="Scaron" unicode="&#x160;" horiz-adv-x="1287" 
d="M319 1900h200l149 -177l149 177h200l-259 -300h-180zM662 -30c-103.333 0 -196.499 17.8311 -279.499 53.498s-151.333 86.667 -205 153s-88.5 145.166 -104.5 236.499l218 33c22 -88.667 67.833 -157.334 137.5 -206.001s151.5 -73 245.5 -73
c58 0 111.333 9.16699 160 27.5s87.834 44.666 117.501 78.999s44.5 75.5 44.5 123.5c0 52 -16.833 92.5 -50.5 121.5s-77.167 51.5 -130.5 67.5l-369 109c-48 14 -96.333 34.333 -145 61s-89.5 63.834 -122.5 111.501s-49.5 110.5 -49.5 188.5
c0 88.667 22.833 163.834 68.5 225.501s107.5 108.334 185.5 140.001s165.333 47.5 262 47.5c146 -1.33301 268.333 -38.833 367 -112.5s162.667 -176.834 192 -309.501l-224 -38c-15.333 81.333 -54.833 145 -118.5 191s-136.834 69.667 -219.501 71
c-53.333 1.33301 -102.166 -6.66699 -146.499 -24s-79.666 -41.666 -105.999 -72.999s-39.5 -67.333 -39.5 -108c0 -40 11.667 -72.333 35 -97s52.166 -44.167 86.499 -58.5s68.5 -26.166 102.5 -35.499l266 -75c33.333 -9.33301 71.166 -21.833 113.499 -37.5
s83.333 -37.5 123 -65.5s72.5 -65.167 98.5 -111.5s39 -104.5 39 -174.5c0 -96.667 -25.333 -177.667 -76 -243s-117.834 -114.666 -201.501 -147.999s-175.167 -50 -274.5 -50z" />
    <glyph glyph-name="scaron" unicode="&#x161;" horiz-adv-x="1072" 
d="M203 1540h200l149 -177l149 177h200l-259 -300h-180zM553 -29c-131.333 0 -238.333 28.998 -321 86.998s-133.334 139.667 -152.001 245l214 33c13.333 -56.667 44.166 -101 92.499 -133s108.5 -48 180.5 -48c65.333 0 116.5 13.333 153.5 40s55.5 63.334 55.5 110.001
c0 27.333 -6.5 49.333 -19.5 66s-40.167 32.834 -81.5 48.501s-104.333 34.834 -189 57.501c-92.667 24 -166.167 49.833 -220.5 77.5s-93 60 -116 97s-34.5 81.833 -34.5 134.5c0 98 38.333 176.5 115 235.5s178.334 88.5 305.001 88.5c124 0 227 -28.833 309 -86.5
s129 -134.5 141 -230.5l-214 -39c-7.33301 52 -31.666 93 -72.999 123s-95 46.333 -161 49c-63.333 2 -114.666 -8.83301 -153.999 -32.5s-59 -55.834 -59 -96.501c0 -24 7.5 -44.167 22.5 -60.5s44.167 -32.333 87.5 -48s107.333 -34.167 192 -55.5
c90.667 -23.333 162.667 -49.166 216 -77.499s91.5 -62 114.5 -101s34.5 -86.167 34.5 -141.5c0 -106.667 -38.833 -190.334 -116.5 -251.001s-184.834 -91 -321.501 -91z" />
    <glyph glyph-name="uni0162" unicode="&#x162;" horiz-adv-x="1207" 
d="M499 0v1243h-479v197h1167v-197h-479v-1243h-209zM550 -487c-26 0 -50.168 3.33398 -72.501 10.001s-43.166 15 -62.499 25l48 128c28.667 -9.33301 51.667 -14 69 -14c22 0 38.833 6.5 50.5 19.5s17.5 27.167 17.5 42.5c0 27.333 -13.167 47.166 -39.5 59.499
s-56.833 23.833 -91.5 34.5l72 204l133 2l-43 -124c37.333 -18 66.833 -42 88.5 -72s32.5 -66.667 32.5 -110c0 -60 -20 -109.167 -60 -147.5s-87.333 -57.5 -142 -57.5z" />
    <glyph glyph-name="uni0163" unicode="&#x163;" horiz-adv-x="845" 
d="M450 -482c-26 0 -50.168 3.33398 -72.501 10.001s-43.166 15 -62.499 25l48 128c28.667 -9.33301 51.667 -14 69 -14c22 0 39 6.5 51 19.5s18 27.167 18 42.5c0 27.333 -13.333 47.166 -40 59.499s-57.334 23.833 -92.001 34.5l64 180
c-36.667 10.667 -69.167 26.5 -97.5 47.5s-51.166 47.833 -68.499 80.5c-23.333 44.667 -35.833 90 -37.5 136s-2.5 98.667 -2.5 158v487h-207v168h207v300h210v-300h321v-168h-321v-477c0 -43.333 0.333008 -81 1 -113s7.66699 -59 21 -81c24 -41.333 62.167 -65 114.5 -71
s113.833 -3.66699 184.5 7v-177c-34 -6.66699 -67.833 -11.5 -101.5 -14.5s-66.167 -3.83301 -97.5 -2.5l-28 -78c37.333 -18 67 -42 89 -72s33 -66.667 33 -110c0 -60 -20.167 -109.167 -60.5 -147.5s-87.833 -57.5 -142.5 -57.5z" />
    <glyph glyph-name="Tcaron" unicode="&#x164;" horiz-adv-x="1207" 
d="M252 1900h200l149 -177l148 177h200l-258 -300h-181zM499 0v1243h-479v197h1167v-197h-479v-1243h-209z" />
    <glyph glyph-name="tcaron" unicode="&#x165;" horiz-adv-x="845" 
d="M758 0c-68 -13.333 -134.5 -19 -199.5 -17s-123.333 14.667 -175 38s-90.5 60 -116.5 110c-23.333 44.667 -35.833 90 -37.5 136s-2.5 98.667 -2.5 158v487h-207v168h207v300h210v-300h321v-168h-321v-477c0 -43.333 0.333008 -81 1 -113s7.66699 -59 21 -81
c24 -41.333 62.167 -65 114.5 -71s113.833 -3.66699 184.5 7v-177zM659 1214l13 93c43.333 -3.33301 72.333 9.5 87 38.5s19.667 64.833 15 107.5h-115v241h221v-261c0 -78.667 -18.833 -138 -56.5 -178s-92.5 -53.667 -164.5 -41z" />
    <glyph glyph-name="Tbar" unicode="&#x166;" horiz-adv-x="1207" 
d="M499 0v615h-356v210h356v418h-479v197h1167v-197h-479v-418h355v-210h-355v-615h-209z" />
    <glyph glyph-name="tbar" unicode="&#x167;" horiz-adv-x="885" 
d="M20 470v168h207v274h-207v168h207v300h210v-300h321v-168h-321v-274h348v-168h-348v-35c0 -43.333 0.333008 -81 1 -113s7.66699 -59 21 -81c24 -41.333 62.167 -65 114.5 -71s113.833 -3.66699 184.5 7v-177c-68 -13.333 -134.5 -19 -199.5 -17s-123.333 14.667 -175 38
s-90.5 60 -116.5 110c-23.333 44.667 -35.833 90 -37.5 136s-2.5 98.667 -2.5 158v45h-207z" />
    <glyph glyph-name="Utilde" unicode="&#x168;" horiz-adv-x="1428" 
d="M714 -30c-112.667 0 -212.166 23.167 -298.499 69.5s-153.833 111.333 -202.5 195s-73 182.167 -73 295.5v909l212 1v-899c0 -82 17.833 -150.667 53.5 -206s81.167 -97.166 136.5 -125.499s112.666 -42.5 171.999 -42.5c60.667 0 118.667 14.333 174 43
s100.5 70.667 135.5 126s52.5 123.666 52.5 204.999v899h212v-910c0 -112.667 -24.333 -211 -73 -295s-116.167 -149.167 -202.5 -195.5s-185.833 -69.5 -298.5 -69.5zM889.001 1604c-30 0 -59.165 6.50195 -87.498 19.502s-55.5 28.167 -81.5 45.5
s-50.333 32.666 -73 45.999s-44 20 -64 20c-22.667 0 -37.834 -10.833 -45.501 -32.5s-7.5 -46.834 0.5 -75.501h-136c-18 73.333 -13 135.666 15 186.999s77.667 77 149 77c30.667 0 60.167 -6.66699 88.5 -20s55.5 -28.666 81.5 -45.999s50.5 -32.5 73.5 -45.5
s44.167 -19.5 63.5 -19.5c22 0 37.167 10.5 45.5 31.5s8.16602 46.833 -0.500977 77.5h136c18 -73.333 13 -135.833 -15 -187.5s-78 -77.5 -150 -77.5z" />
    <glyph glyph-name="utilde" unicode="&#x169;" 
d="M547 -29c-74 0 -136.501 12 -187.501 36s-92.333 55.5 -124 94.5s-55.834 81.5 -72.501 127.5s-28 91 -34 135s-9 82.667 -9 116v600h212v-531c0 -42 3.5 -85.167 10.5 -129.5s20.167 -85.5 39.5 -123.5s47 -68.667 83 -92s82.667 -35 140 -35
c50 0 95.833 11.333 137.5 34s74.834 59.5 99.501 110.5s37 119.167 37 204.5v562h211v-1080h-186v129c-39.333 -50 -89.166 -88.833 -149.499 -116.5s-129.5 -41.5 -207.5 -41.5zM786.999 1244c-30 0 -59.165 6.50195 -87.498 19.502s-55.5 28.167 -81.5 45.5
s-50.333 32.666 -73 45.999s-44 20 -64 20c-22.667 0 -37.834 -10.833 -45.501 -32.5s-7.5 -46.834 0.5 -75.501h-136c-18 73.333 -13 135.666 15 186.999s77.667 77 149 77c30.667 0 60.167 -6.66699 88.5 -20s55.5 -28.666 81.5 -45.999s50.5 -32.5 73.5 -45.5
s44.167 -19.5 63.5 -19.5c22 0 37.167 10.5 45.5 31.5s8.16602 46.833 -0.500977 77.5h136c18 -73.333 13 -135.833 -15 -187.5s-78 -77.5 -150 -77.5z" />
    <glyph glyph-name="Umacron" unicode="&#x16a;" horiz-adv-x="1428" 
d="M453 1680v167h522v-167h-522zM714 -30c-112.667 0 -212.166 23.167 -298.499 69.5s-153.833 111.333 -202.5 195s-73 182.167 -73 295.5v909l212 1v-899c0 -82 17.833 -150.667 53.5 -206s81.167 -97.166 136.5 -125.499s112.666 -42.5 171.999 -42.5
c60.667 0 118.667 14.333 174 43s100.5 70.667 135.5 126s52.5 123.666 52.5 204.999v899h212v-910c0 -112.667 -24.333 -211 -73 -295s-116.167 -149.167 -202.5 -195.5s-185.833 -69.5 -298.5 -69.5z" />
    <glyph glyph-name="umacron" unicode="&#x16b;" 
d="M343 1320v167h523v-167h-523zM547 -29c-74 0 -136.501 12 -187.501 36s-92.333 55.5 -124 94.5s-55.834 81.5 -72.501 127.5s-28 91 -34 135s-9 82.667 -9 116v600h212v-531c0 -42 3.5 -85.167 10.5 -129.5s20.167 -85.5 39.5 -123.5s47 -68.667 83 -92
s82.667 -35 140 -35c50 0 95.833 11.333 137.5 34s74.834 59.5 99.501 110.5s37 119.167 37 204.5v562h211v-1080h-186v129c-39.333 -50 -89.166 -88.833 -149.499 -116.5s-129.5 -41.5 -207.5 -41.5z" />
    <glyph glyph-name="Ubreve" unicode="&#x16c;" horiz-adv-x="1428" 
d="M714 1564c-53.333 0 -101.668 13 -145.001 39s-78 60.667 -104 104s-39 91.666 -39 144.999h166c0 -33.333 11.833 -62 35.5 -86s52.5 -36 86.5 -36s62.833 12 86.5 36s35.5 52.667 35.5 86h166c0 -53.333 -13 -101.666 -39 -144.999s-60.667 -78 -104 -104
s-91.666 -39 -144.999 -39zM713.998 -30c-112.667 0 -212.166 23.167 -298.499 69.5s-153.833 111.333 -202.5 195s-73 182.167 -73 295.5v909l212 1v-899c0 -82 17.833 -150.667 53.5 -206s81.167 -97.166 136.5 -125.499s112.666 -42.5 171.999 -42.5
c60.667 0 118.667 14.333 174 43s100.5 70.667 135.5 126s52.5 123.666 52.5 204.999v899h212v-910c0 -112.667 -24.333 -211 -73 -295s-116.167 -149.167 -202.5 -195.5s-185.833 -69.5 -298.5 -69.5z" />
    <glyph glyph-name="ubreve" unicode="&#x16d;" 
d="M605 1204c-53.333 0 -101.668 13 -145.001 39s-78 60.667 -104 104s-39 91.666 -39 144.999h166c0 -33.333 11.833 -62 35.5 -86s52.5 -36 86.5 -36s62.833 12 86.5 36s35.5 52.667 35.5 86h166c0 -53.333 -13 -101.666 -39 -144.999s-60.667 -78 -104 -104
s-91.666 -39 -144.999 -39zM546.998 -29c-74 0 -136.501 12 -187.501 36s-92.333 55.5 -124 94.5s-55.834 81.5 -72.501 127.5s-28 91 -34 135s-9 82.667 -9 116v600h212v-531c0 -42 3.5 -85.167 10.5 -129.5s20.167 -85.5 39.5 -123.5s47 -68.667 83 -92
s82.667 -35 140 -35c50 0 95.833 11.333 137.5 34s74.834 59.5 99.501 110.5s37 119.167 37 204.5v562h211v-1080h-186v129c-39.333 -50 -89.166 -88.833 -149.499 -116.5s-129.5 -41.5 -207.5 -41.5z" />
    <glyph glyph-name="Uring" unicode="&#x16e;" horiz-adv-x="1428" 
d="M719 1553c-44.667 0 -85.5 11.167 -122.5 33.5s-66.5 52 -88.5 89s-33 77.833 -33 122.5s11 85.5 33 122.5s51.5 66.667 88.5 89s77.833 33.5 122.5 33.5c45.333 0 86.5 -11.167 123.5 -33.5s66.5 -52 88.5 -89s33 -77.833 33 -122.5s-11 -85.5 -33 -122.5
s-51.5 -66.667 -88.5 -89s-78.167 -33.5 -123.5 -33.5zM719 1688c30.667 0 56.667 10.833 78 32.5s32 47.5 32 77.5c0 30.667 -10.667 56.667 -32 78s-47.333 32 -78 32c-30 0 -55.833 -10.667 -77.5 -32s-32.5 -47.333 -32.5 -78c0 -30 10.833 -55.833 32.5 -77.5
s47.5 -32.5 77.5 -32.5zM714 -30c-112.667 0 -212.166 23.167 -298.499 69.5s-153.833 111.333 -202.5 195s-73 182.167 -73 295.5v909l212 1v-899c0 -82 17.833 -150.667 53.5 -206s81.167 -97.166 136.5 -125.499s112.666 -42.5 171.999 -42.5
c60.667 0 118.667 14.333 174 43s100.5 70.667 135.5 126s52.5 123.666 52.5 204.999v899h212v-910c0 -112.667 -24.333 -211 -73 -295s-116.167 -149.167 -202.5 -195.5s-185.833 -69.5 -298.5 -69.5z" />
    <glyph glyph-name="uring" unicode="&#x16f;" 
d="M605 1193c-44.667 0 -85.5 11.167 -122.5 33.5s-66.5 52 -88.5 89s-33 77.833 -33 122.5s11 85.5 33 122.5s51.5 66.667 88.5 89s77.833 33.5 122.5 33.5c45.333 0 86.5 -11.167 123.5 -33.5s66.5 -52 88.5 -89s33 -77.833 33 -122.5s-11 -85.5 -33 -122.5
s-51.5 -66.667 -88.5 -89s-78.167 -33.5 -123.5 -33.5zM605 1328c30.667 0 56.667 10.833 78 32.5s32 47.5 32 77.5c0 30.667 -10.667 56.667 -32 78s-47.333 32 -78 32c-30 0 -55.833 -10.667 -77.5 -32s-32.5 -47.333 -32.5 -78c0 -30 10.833 -55.833 32.5 -77.5
s47.5 -32.5 77.5 -32.5zM547 -29c-74 0 -136.501 12 -187.501 36s-92.333 55.5 -124 94.5s-55.834 81.5 -72.501 127.5s-28 91 -34 135s-9 82.667 -9 116v600h212v-531c0 -42 3.5 -85.167 10.5 -129.5s20.167 -85.5 39.5 -123.5s47 -68.667 83 -92s82.667 -35 140 -35
c50 0 95.833 11.333 137.5 34s74.834 59.5 99.501 110.5s37 119.167 37 204.5v562h211v-1080h-186v129c-39.333 -50 -89.166 -88.833 -149.499 -116.5s-129.5 -41.5 -207.5 -41.5z" />
    <glyph glyph-name="Uhungarumlaut" unicode="&#x170;" horiz-adv-x="1428" 
d="M975 1600h-164l143 350h164zM576 1600h-164l143 350h164zM714 -30c-112.667 0 -212.166 23.167 -298.499 69.5s-153.833 111.333 -202.5 195s-73 182.167 -73 295.5v909l212 1v-899c0 -82 17.833 -150.667 53.5 -206s81.167 -97.166 136.5 -125.499
s112.666 -42.5 171.999 -42.5c60.667 0 118.667 14.333 174 43s100.5 70.667 135.5 126s52.5 123.666 52.5 204.999v899h212v-910c0 -112.667 -24.333 -211 -73 -295s-116.167 -149.167 -202.5 -195.5s-185.833 -69.5 -298.5 -69.5z" />
    <glyph glyph-name="uhungarumlaut" unicode="&#x171;" 
d="M875 1240h-164l143 350h164zM476 1240h-164l142 350h164zM547 -29c-74 0 -136.501 12 -187.501 36s-92.333 55.5 -124 94.5s-55.834 81.5 -72.501 127.5s-28 91 -34 135s-9 82.667 -9 116v600h212v-531c0 -42 3.5 -85.167 10.5 -129.5s20.167 -85.5 39.5 -123.5
s47 -68.667 83 -92s82.667 -35 140 -35c50 0 95.833 11.333 137.5 34s74.834 59.5 99.501 110.5s37 119.167 37 204.5v562h211v-1080h-186v129c-39.333 -50 -89.166 -88.833 -149.499 -116.5s-129.5 -41.5 -207.5 -41.5z" />
    <glyph glyph-name="Uogonek" unicode="&#x172;" horiz-adv-x="1428" 
d="M714 -30c-112.667 0 -212.166 23.167 -298.499 69.5s-153.833 111.333 -202.5 195s-73 182.167 -73 295.5v909l212 1v-899c0 -82 17.833 -150.667 53.5 -206s81.167 -97.166 136.5 -125.499s112.666 -42.5 171.999 -42.5c60.667 0 118.667 14.333 174 43
s100.5 70.667 135.5 126s52.5 123.666 52.5 204.999v899h212v-910c0 -112.667 -24.333 -211 -73 -295s-116.167 -149.167 -202.5 -195.5s-185.833 -69.5 -298.5 -69.5zM868.001 -415c-59.333 0 -108.5 21.334 -147.5 64.001s-58.5 91.667 -58.5 147c0 46 13 92.667 39 140
s61.333 91.666 106 132.999s94.334 76.666 149.001 105.999l97 -110c-40.667 -22.667 -78 -49.167 -112 -79.5s-61 -61 -81 -92s-30 -58.833 -30 -83.5c0 -19.333 6.16699 -35.166 18.5 -47.499s27.5 -18.5 45.5 -18.5c25.333 0 52 13 80 39l79 -101
c-23.333 -31.333 -51.333 -55.333 -84 -72s-66.334 -25 -101.001 -25z" />
    <glyph glyph-name="uogonek" unicode="&#x173;" 
d="M547 -29c-74 0 -136.499 11.999 -187.499 35.999s-92.333 55.5 -124 94.5s-55.834 81.5 -72.501 127.5s-28 91 -34 135s-9 82.667 -9 116v600h212v-531c0 -42 3.5 -85.167 10.5 -129.5s20.167 -85.5 39.5 -123.5s47 -68.667 83 -92s82.667 -35 140 -35
c50 0 95.833 11.333 137.5 34s74.834 59.5 99.501 110.5s37 119.167 37 204.5v562h211v-1080c-40.667 -22.667 -77.834 -49.167 -111.501 -79.5s-60.667 -61 -81 -92s-30.5 -58.833 -30.5 -83.5c0 -19.333 6.16699 -35.166 18.5 -47.499s27.5 -18.5 45.5 -18.5
c25.333 0 52 13 80 39l79 -101c-23.333 -31.333 -51.333 -55.333 -84 -72s-66.334 -25 -101.001 -25c-59.333 0 -108.5 21.333 -147.5 64s-58.5 91.667 -58.5 147c0 56 19.167 112.667 57.5 170s87.5 108.333 147.5 153v75c-39.333 -50 -89.166 -88.833 -149.499 -116.5
s-129.5 -41.5 -207.5 -41.5z" />
    <glyph glyph-name="Wcircumflex" unicode="&#x174;" horiz-adv-x="1925" 
d="M612 1600l258 300h181l258 -300h-200l-148 177l-149 -177h-200zM445 0l-418 1440h219l303 -1089l303 1088l220 1l303 -1089l303 1089h220l-419 -1440h-208l-309 1077l-309 -1077h-208z" />
    <glyph glyph-name="wcircumflex" unicode="&#x175;" horiz-adv-x="1581" 
d="M439 1240l259 300h180l259 -300h-200l-149 177l-149 -177h-200zM370 0l-330 1081l207 -1l226 -741l228 741h180l228 -741l226 741h206l-330 -1080h-168l-252 782l-253 -782h-168z" />
    <glyph glyph-name="Ycircumflex" unicode="&#x176;" horiz-adv-x="1186" 
d="M242 1600l258 300h181l258 -300h-200l-148 177l-149 -177h-200zM487 0v595l-487 845h244l349 -605l349 605h244l-487 -845v-595h-212z" />
    <glyph glyph-name="ycircumflex" unicode="&#x177;" horiz-adv-x="1097" 
d="M213 1240l259 300h180l259 -300h-200l-149 177l-149 -177h-200zM286 -480l178 485l-437 1075h218l320 -811l304 811h212l-596 -1560h-199z" />
    <glyph glyph-name="Ydieresis" unicode="&#x178;" horiz-adv-x="1186" 
d="M695 1621v200h200v-200h-200zM292 1621v200h200v-200h-200zM487 0v595l-487 845h244l349 -605l349 605h244l-487 -845v-595h-212z" />
    <glyph glyph-name="Zacute" unicode="&#x179;" horiz-adv-x="1294" 
d="M732 1600h-164l142 350h164zM100 0v33l735 1210h-695v197h1054v-34l-731 -1208h718v-198h-1081z" />
    <glyph glyph-name="zacute" unicode="&#x17a;" horiz-adv-x="1065" 
d="M636 1240h-164l142 350h164zM40 0v33l613 860h-557v187h889v-34l-612 -859h582v-187h-915z" />
    <glyph glyph-name="Zdotaccent" unicode="&#x17b;" horiz-adv-x="1294" 
d="M574 1659v221h221v-221h-221zM100 0v33l735 1210h-695v197h1054v-34l-731 -1208h718v-198h-1081z" />
    <glyph glyph-name="zdotaccent" unicode="&#x17c;" horiz-adv-x="1065" 
d="M440 1299v221h221v-221h-221zM40 0v33l613 860h-557v187h889v-34l-612 -859h582v-187h-915z" />
    <glyph glyph-name="Zcaron" unicode="&#x17d;" horiz-adv-x="1294" 
d="M319 1900h200l149 -177l149 177h200l-259 -300h-180zM100 0v33l735 1210h-695v197h1054v-34l-731 -1208h718v-198h-1081z" />
    <glyph glyph-name="zcaron" unicode="&#x17e;" horiz-adv-x="1065" 
d="M202 1540h200l149 -177l148 177h200l-258 -300h-181zM40 0v33l613 860h-557v187h889v-34l-612 -859h582v-187h-915z" />
    <glyph glyph-name="florin" unicode="&#x192;" horiz-adv-x="1424" 
d="M337 -30c-51.333 0 -101.168 7.00195 -149.501 21.002s-86.5 27.333 -114.5 40l88 177c12.667 -6.66699 34.834 -14.834 66.501 -24.501s63.167 -14.5 94.5 -14.5c56.667 0 103.5 22.833 140.5 68.5s61.833 107.5 74.5 185.5l34 214h-310v168h337l39 241
c8 48 22.167 96.667 42.5 146s48.166 95.166 83.499 137.499s79.166 76.333 131.499 102s113.833 38.5 184.5 38.5c56.667 0 109.167 -6.83301 157.5 -20.5s86.5 -27.834 114.5 -42.501l-97 -173v0v0c-1.33301 1.33301 -17.333 7.83301 -48 19.5s-67 17.5 -109 17.5
c-29.333 0 -60.666 -5.33301 -93.999 -16s-63.166 -29.667 -89.499 -57s-43.5 -65.333 -51.5 -114l-46 -279h391v-168h-419l-40 -244c-24 -147.333 -74 -254.666 -150 -321.999s-163 -101 -261 -101z" />
    <glyph glyph-name="Ohorn" unicode="&#x1a0;" horiz-adv-x="1481" 
d="M741 -30c-144 0 -266.667 31.4971 -368 94.4971s-178.833 150.833 -232.5 263.5s-80.5 243.334 -80.5 392.001s26.833 279.334 80.5 392.001s131.167 200.5 232.5 263.5s224 94.5 368 94.5c71.333 0 138.666 -8.33301 201.999 -25c25.333 -6 47.5 -9.16699 66.5 -9.5
s36.833 3.16699 53.5 10.5c34.667 16.667 54.667 40.834 60 72.501s7.33301 65.167 6 100.5l163 1c8.66699 -66.667 5.83398 -123.167 -8.49902 -169.5s-42.5 -81.166 -84.5 -104.499c-10 -4.66699 -20.333 -9 -31 -13c82 -65.333 144.667 -150.5 188 -255.5
s65 -224.167 65 -357.5c0 -148.667 -26.667 -279.334 -80 -392.001s-130.833 -200.5 -232.5 -263.5s-224.167 -94.5 -367.5 -94.5zM741 168.997c102 -1.33301 187.001 21.1699 255.001 67.5029s118.833 111 152.5 194s50.5 179.5 50.5 289.5
c0 165.333 -38.167 298.166 -114.5 398.499s-190.833 151.166 -343.5 152.499c-102 1.33301 -187 -21.167 -255 -67.5s-118.833 -111 -152.5 -194s-50.834 -179.5 -51.501 -289.5c-0.666992 -164.667 37.333 -297.334 114 -398.001s191.667 -151.667 345 -153z" />
    <glyph glyph-name="ohorn" unicode="&#x1a1;" horiz-adv-x="1219" 
d="M609 -30c-108 0 -201.668 24.3291 -281.001 72.9961s-140.5 115.834 -183.5 201.501s-64.5 184.5 -64.5 296.5c0 112.667 22 211.667 66 297s105.667 152 185 200s172 72 278 72c58.667 0 113.667 -7.66699 165 -23c28.667 -6.66699 53.167 -10.5 73.5 -11.5
s39.166 2.5 56.499 10.5c34.667 16.667 54.834 40.834 60.501 72.501s7.5 65.167 5.5 100.5l163 1c9.33301 -66.667 6.83301 -123.167 -7.5 -169.5s-42.833 -81.166 -85.5 -104.499c-17.333 -8.66699 -37 -15.667 -59 -21c50.667 -50.667 89.667 -112.167 117 -184.5
s41 -152.166 41 -239.499c0 -112.667 -21.833 -212 -65.5 -298s-105.167 -153 -184.5 -201s-172.666 -72 -279.999 -72zM608.999 166.996c103.333 0 180.5 34.666 231.5 103.999s76.5 159.333 76.5 270c0 112.667 -25.833 202.834 -77.5 270.501s-128.5 101.5 -230.5 101.5
c-105.333 0 -182.833 -34.5 -232.5 -103.5s-74.5 -158.5 -74.5 -268.5c0 -114 25.833 -204.833 77.5 -272.5s128.167 -101.5 229.5 -101.5z" />
    <glyph glyph-name="Uhorn" unicode="&#x1af;" horiz-adv-x="1428" 
d="M714 -30c-112.667 0 -212.166 23.168 -298.499 69.501s-153.833 111.333 -202.5 195s-73 182.167 -73 295.5v909l212 1v-899c0 -82 17.833 -150.667 53.5 -206s81.167 -97.166 136.5 -125.499s112.666 -42.5 171.999 -42.5c60.667 0 118.667 14.333 174 43
s100.5 70.667 135.5 126s52.5 123.666 52.5 204.999v899h89c14.667 0 29.167 0.166992 43.5 0.5s28.5 1.83301 42.5 4.5c48.667 9.33301 78.167 31.166 88.5 65.499s14.5 70.5 12.5 108.5l163 1c18 -132 -12.667 -222.333 -92 -271c-20 -12 -41.5 -20.5 -64.5 -25.5
s-46.5 -8.16699 -70.5 -9.5v-784c0 -112.667 -24.333 -211 -73 -295s-116.167 -149.167 -202.5 -195.5s-185.833 -69.5 -298.5 -69.5z" />
    <glyph glyph-name="uhorn" unicode="&#x1b0;" 
d="M547 -29c-74 0 -136.501 12.001 -187.501 36.001s-92.333 55.5 -124 94.5s-55.834 81.5 -72.501 127.5s-28 91 -34 135s-9 82.667 -9 116v600h212v-531c0 -42 3.5 -85.167 10.5 -129.5s20.167 -85.5 39.5 -123.5s47 -68.667 83 -92s82.667 -35 140 -35
c50 0 95.833 11.333 137.5 34s74.834 59.5 99.501 110.5s37 119.167 37 204.5v562h48c14.667 0 29.167 0.166992 43.5 0.5s28.5 1.83301 42.5 4.5c48.667 9.33301 78.167 31.166 88.5 65.499s14.5 70.5 12.5 108.5l163 1c18 -132 -12.667 -222.333 -92 -271
c-14.667 -8.66699 -30 -15.5 -46 -20.5s-32.333 -8.5 -49 -10.5v-958h-186v129c-39.333 -50 -89.166 -88.833 -149.499 -116.5s-129.5 -41.5 -207.5 -41.5z" />
    <glyph glyph-name="uni0218" unicode="&#x218;" horiz-adv-x="1287" 
d="M662 -30c-103.333 0 -196.499 17.8311 -279.499 53.498s-151.333 86.667 -205 153s-88.5 145.166 -104.5 236.499l218 33c22 -88.667 67.833 -157.334 137.5 -206.001s151.5 -73 245.5 -73c58 0 111.333 9.16699 160 27.5s87.834 44.666 117.501 78.999
s44.5 75.5 44.5 123.5c0 52 -16.833 92.5 -50.5 121.5s-77.167 51.5 -130.5 67.5l-369 109c-48 14 -96.333 34.333 -145 61s-89.5 63.834 -122.5 111.501s-49.5 110.5 -49.5 188.5c0 88.667 22.833 163.834 68.5 225.501s107.5 108.334 185.5 140.001s165.333 47.5 262 47.5
c146 -1.33301 268.333 -38.833 367 -112.5s162.667 -176.834 192 -309.501l-224 -38c-15.333 81.333 -54.833 145 -118.5 191s-136.834 69.667 -219.501 71c-53.333 1.33301 -102.166 -6.66699 -146.499 -24s-79.666 -41.666 -105.999 -72.999s-39.5 -67.333 -39.5 -108
c0 -40 11.667 -72.333 35 -97s52.166 -44.167 86.499 -58.5s68.5 -26.166 102.5 -35.499l266 -75c33.333 -9.33301 71.166 -21.833 113.499 -37.5s83.333 -37.5 123 -65.5s72.5 -65.167 98.5 -111.5s39 -104.5 39 -174.5c0 -96.667 -25.333 -177.667 -76 -243
s-117.834 -114.666 -201.501 -147.999s-175.167 -50 -274.5 -50zM585.001 -590.002l0.00195312 96.001c9.33301 0 23.333 2.33301 42 7s35.667 14 51 28s22.666 35.333 21.999 64h-115v211h210v-211c0 -60.667 -20.333 -108.334 -61 -143.001s-90.334 -52 -149.001 -52z" />
    <glyph glyph-name="uni0219" unicode="&#x219;" horiz-adv-x="1072" 
d="M553 -29c-131.333 0 -238.333 28.998 -321 86.998s-133.334 139.667 -152.001 245l214 33c13.333 -56.667 44.166 -101 92.499 -133s108.5 -48 180.5 -48c65.333 0 116.5 13.333 153.5 40s55.5 63.334 55.5 110.001c0 27.333 -6.5 49.333 -19.5 66
s-40.167 32.834 -81.5 48.501s-104.333 34.834 -189 57.501c-92.667 24 -166.167 49.833 -220.5 77.5s-93 60 -116 97s-34.5 81.833 -34.5 134.5c0 98 38.333 176.5 115 235.5s178.334 88.5 305.001 88.5c124 0 227 -28.833 309 -86.5s129 -134.5 141 -230.5l-214 -39
c-7.33301 52 -31.666 93 -72.999 123s-95 46.333 -161 49c-63.333 2 -114.666 -8.83301 -153.999 -32.5s-59 -55.834 -59 -96.501c0 -24 7.5 -44.167 22.5 -60.5s44.167 -32.333 87.5 -48s107.333 -34.167 192 -55.5c90.667 -23.333 162.667 -49.166 216 -77.499
s91.5 -62 114.5 -101s34.5 -86.167 34.5 -141.5c0 -106.667 -38.833 -190.334 -116.5 -251.001s-184.834 -91 -321.501 -91zM443 -590.002l0.00195312 96.001c9.33301 0 23.333 2.33301 42 7s35.667 14 51 28s22.666 35.333 21.999 64h-115v211h210v-211
c0 -60.667 -20.333 -108.334 -61 -143.001s-90.334 -52 -149.001 -52z" />
    <glyph glyph-name="uni021A" unicode="&#x21a;" horiz-adv-x="1207" 
d="M499 0v1243h-479v197h1167v-197h-479v-1243h-209zM498 -590l0.000976562 96.001c9.33301 0 23.333 2.33301 42 7s35.667 14 51 28s22.666 35.333 21.999 64h-115v211h211v-211c0 -60.667 -20.5 -108.334 -61.5 -143.001s-90.833 -52 -149.5 -52z" />
    <glyph glyph-name="uni021B" unicode="&#x21b;" horiz-adv-x="845" 
d="M758 0c-68 -13.333 -134.5 -19 -199.5 -17s-123.333 14.667 -175 38s-90.5 60 -116.5 110c-23.333 44.667 -35.833 90 -37.5 136s-2.5 98.667 -2.5 158v487h-207v168h207v300h210v-300h321v-168h-321v-477c0 -43.333 0.333008 -81 1 -113s7.66699 -59 21 -81
c24 -41.333 62.167 -65 114.5 -71s113.833 -3.66699 184.5 7v-177zM353 -590l0.000976562 96.001c9.33301 0 23.5 2.33301 42.5 7s36.167 14 51.5 28s22.666 35.333 21.999 64h-116v211h211v-211c0 -60.667 -20.5 -108.334 -61.5 -143.001s-90.833 -52 -149.5 -52z" />
    <glyph glyph-name="uni0259" unicode="&#x259;" horiz-adv-x="1193" 
d="M573 1110c108 0 202.498 -23.501 283.498 -70.501s144 -112.667 189 -197s67.5 -182.166 67.5 -293.499c0 -118 -22.167 -220.333 -66.5 -307s-106.166 -153.667 -185.499 -201s-171.666 -71 -276.999 -71c-110 0 -203.667 25.5 -281 76.5s-135.166 123.5 -173.499 217.5
s-53.833 205.667 -46.5 335h805c-8 100 -38 177.333 -90 232s-123.333 82 -214 82c-132.667 0 -226.334 -57.333 -281.001 -172l-205 65c42 96.667 105.667 171.5 191 224.5s180 79.5 284 79.5zM575.998 154.999c178 0 280.667 93.667 308 281h-586
c21.333 -187.333 114 -281 278 -281z" />
    <glyph glyph-name="circumflex" unicode="&#x2c6;" horiz-adv-x="1124" 
d="M211 1600l258 300h181l258 -300h-200l-149 177l-148 -177h-200z" />
    <glyph glyph-name="caron" unicode="&#x2c7;" horiz-adv-x="1116" 
d="M211 1900h200l148 -177l149 177h200l-258 -300h-181z" />
    <glyph glyph-name="breve" unicode="&#x2d8;" horiz-adv-x="1056" 
d="M528 1564c-53.333 0 -101.668 13 -145.001 39s-78 60.667 -104 104s-39 91.666 -39 144.999h166c0 -33.333 12 -62 36 -86s52.667 -36 86 -36c34 0 62.833 12 86.5 36s35.5 52.667 35.5 86h166c0 -53.333 -13 -101.666 -39 -144.999s-60.667 -78 -104 -104
s-91.666 -39 -144.999 -39z" />
    <glyph glyph-name="dotaccent" unicode="&#x2d9;" horiz-adv-x="701" 
d="M240 1659v221h221v-221h-221z" />
    <glyph glyph-name="ring" unicode="&#x2da;" horiz-adv-x="1052" 
d="M526 1553c-44.667 0 -85.5 11.167 -122.5 33.5s-66.667 52 -89 89s-33.5 77.833 -33.5 122.5s11.167 85.5 33.5 122.5s52 66.667 89 89s77.833 33.5 122.5 33.5c45.333 0 86.5 -11.167 123.5 -33.5s66.5 -52 88.5 -89s33 -77.833 33 -122.5s-11 -85.5 -33 -122.5
s-51.5 -66.667 -88.5 -89s-78.167 -33.5 -123.5 -33.5zM526 1688c30.667 0 56.667 10.833 78 32.5s32 47.5 32 77.5c0 30.667 -10.667 56.667 -32 78s-47.333 32 -78 32c-30 0 -55.833 -10.667 -77.5 -32s-32.5 -47.333 -32.5 -78c0 -30 10.833 -55.833 32.5 -77.5
s47.5 -32.5 77.5 -32.5z" />
    <glyph glyph-name="ogonek" unicode="&#x2db;" horiz-adv-x="872" 
d="M445 -480c-59.333 0 -108.5 21.334 -147.5 64.001s-58.5 91.667 -58.5 147c0 46 13 92.667 39 140s61.333 91.666 106 132.999s94.334 76.666 149.001 105.999l97 -110c-40.667 -22.667 -78 -49.167 -112 -79.5s-61 -61 -81 -92s-30 -58.833 -30 -83.5
c0 -19.333 6.16699 -35.166 18.5 -47.499s27.5 -18.5 45.5 -18.5c25.333 0 52 13 80 39l79 -101c-23.333 -31.333 -51.333 -55.333 -84 -72s-66.334 -25 -101.001 -25z" />
    <glyph glyph-name="tilde" unicode="&#x2dc;" horiz-adv-x="1130" 
d="M726 1604c-30 0 -59.165 6.50195 -87.498 19.502s-55.5 28.167 -81.5 45.5s-50.333 32.666 -73 45.999s-44 20 -64 20c-22.667 0 -37.834 -10.833 -45.501 -32.5s-7.5 -46.834 0.5 -75.501h-136c-18 73.333 -13 135.666 15 186.999s77.667 77 149 77
c30.667 0 60.167 -6.66699 88.5 -20s55.5 -28.666 81.5 -45.999s50.5 -32.5 73.5 -45.5s44.167 -19.5 63.5 -19.5c22 0 37.167 10.5 45.5 31.5s8.16602 46.833 -0.500977 77.5h136c18 -73.333 13 -135.833 -15 -187.5s-78 -77.5 -150 -77.5z" />
    <glyph glyph-name="hungarumlaut" unicode="&#x2dd;" horiz-adv-x="1129" 
d="M771 1600h-164l143 350h164zM372 1600h-164l142 350h164z" />
    <glyph glyph-name="uni0374" unicode="&#x374;" horiz-adv-x="587" 
d="M284 1090h-164l143 350h164z" />
    <glyph glyph-name="uni0375" unicode="&#x375;" horiz-adv-x="587" 
d="M284 -472h-164l143 350h164z" />
    <glyph glyph-name="uni037E" unicode="&#x37e;" horiz-adv-x="661" 
d="M220 -239l13 93c43.333 -3.33301 72.333 9.5 87 38.5s19.667 64.833 15 107.5h-115v241h221v-261c0 -78.667 -18.833 -138 -56.5 -178s-92.5 -53.667 -164.5 -41zM220 859v221h221v-221h-221z" />
    <glyph glyph-name="tonos" unicode="&#x384;" horiz-adv-x="1200" 
d="M599 1090h-164l143 350h164z" />
    <glyph glyph-name="dieresistonos" unicode="&#x385;" horiz-adv-x="1200" 
d="M635 1240h-164l143 350h164zM808 1260v200h180v-200h-180zM213 1260v200h180v-200h-180z" />
    <glyph glyph-name="Alphatonos" unicode="&#x386;" horiz-adv-x="1339" 
d="M63 0l468 1440h301l468 -1440h-217l-107 325h-591l-105 -325h-217zM449 521h463l-233 709zM236 1090h-164l143 350h164z" />
    <glyph glyph-name="anoteleia" unicode="&#x387;" horiz-adv-x="1200" 
d="M257 497c-38.667 0 -71.167 12.667 -97.5 38s-39.5 57 -39.5 95s13.167 69.667 39.5 95s58.833 38 97.5 38c34.667 0 65 -12.667 91 -38s39 -57 39 -95s-13 -69.667 -39 -95s-56.333 -38 -91 -38z" />
    <glyph glyph-name="Epsilontonos" unicode="&#x388;" horiz-adv-x="1472" 
d="M452 0v1440h920v-197h-711v-404h591v-197h-591v-445h711v-197h-920zM198 1090h-164l143 350h164z" />
    <glyph glyph-name="Etatonos" unicode="&#x389;" horiz-adv-x="1713" 
d="M434 0v1440h209v-621h720v621h210v-1440h-210v622h-720v-622h-209zM184 1090h-164l143 350h164z" />
    <glyph glyph-name="Iotatonos" unicode="&#x38a;" horiz-adv-x="781" 
d="M432 0v1440h209v-1440h-209zM184 1090h-164l143 350h164z" />
    <glyph glyph-name="Omicrontonos" unicode="&#x38c;" horiz-adv-x="1693" 
d="M952 -30c-144 0 -266.667 31.5 -368 94.5s-178.833 150.833 -232.5 263.5s-80.5 243.334 -80.5 392.001s26.833 279.334 80.5 392.001s131.167 200.5 232.5 263.5s224 94.5 368 94.5c143.333 0 265.833 -31.5 367.5 -94.5s179.167 -150.833 232.5 -263.5
s80 -243.334 80 -392.001s-26.667 -279.334 -80 -392.001s-130.833 -200.5 -232.5 -263.5s-224.167 -94.5 -367.5 -94.5zM952 169c102 -1.33301 187.001 21.1699 255.001 67.5029s118.833 111 152.5 194s50.5 179.5 50.5 289.5c0 165.333 -38.167 298.166 -114.5 398.499
s-190.833 151.166 -343.5 152.499c-102 1.33301 -187 -21.167 -255 -67.5s-118.833 -111 -152.5 -194s-50.834 -179.5 -51.501 -289.5c-0.666992 -164.667 37.333 -297.334 114 -398.001s191.667 -151.667 345 -153zM196.001 1090h-164l143 350h164z" />
    <glyph glyph-name="Upsilontonos" unicode="&#x38e;" horiz-adv-x="1608" 
d="M909 0v595l-487 845h244l349 -605l349 605h244l-487 -845v-595h-212zM212 1090h-164l143 350h164z" />
    <glyph glyph-name="Omegatonos" unicode="&#x38f;" horiz-adv-x="1718" 
d="M296 0l0.000976562 196.999h229c-74.667 64 -133.667 144 -177 240s-65 203.333 -65 322c0 134 27.833 254.5 83.5 361.5s134.5 191.833 236.5 254.5s222.333 94 361 94c138 0 258 -31.333 360 -94s180.833 -147.5 236.5 -254.5s83.5 -227.5 83.5 -361.5
c0 -118.667 -21.5 -226 -64.5 -322s-102.167 -176 -177.5 -240h228v-197h-492l1 197c44.667 23.333 88.5 59 131.5 107s78.833 107.333 107.5 178s43.334 151.334 44.001 242.001c1.33301 100 -16.334 191.333 -53.001 274s-89.5 148.834 -158.5 198.501
s-151.167 74.5 -246.5 74.5s-177.333 -24.667 -246 -74s-121.334 -115 -158.001 -197s-55 -172.333 -55 -271c0 -94.667 15 -177.5 45 -248.5s67.167 -130.333 111.5 -178s88.5 -82.834 132.5 -105.501v-197h-498zM208.001 1090h-164l143 350h164z" />
    <glyph glyph-name="iotadieresistonos" unicode="&#x390;" horiz-adv-x="909" 
d="M549 -9c-40.667 6.66699 -79.832 19.6709 -117.499 39.0039s-69.834 51.666 -96.501 96.999c-25.333 43.333 -38.666 87.666 -39.999 132.999s-2 100.333 -2 165v655h209v-645c0 -44.667 0.333008 -82.334 1 -113.001s7.66699 -57.667 21 -81
c13.333 -24 30.833 -41.333 52.5 -52s44.834 -17.334 69.501 -20.001c56.667 -4.66699 115.667 -2 177 8v-177c-38.667 -10 -84.834 -15.5 -138.501 -16.5s-98.834 1.5 -135.501 7.5zM462.002 1240h-164l143 350h164zM635.002 1260v200h180v-200h-180zM40.002 1260v200h180
v-200h-180z" />
    <glyph glyph-name="Alpha" unicode="&#x391;" horiz-adv-x="1317" 
d="M40 0l468 1440h301l468 -1440h-217l-107 325h-591l-105 -325h-217zM426 521h463l-233 709z" />
    <glyph glyph-name="Beta" unicode="&#x392;" horiz-adv-x="1250" 
d="M140 0l-0.000976562 1440h566c91.333 0 168 -18.667 230 -56s108.667 -85.5 140 -144.5s47 -121.167 47 -186.5c0 -66 -13.667 -124.333 -41 -175s-64.666 -89.667 -111.999 -117c71.333 -30.667 126 -76 164 -136s57 -128.333 57 -205
c0 -126.667 -37.5 -228.334 -112.5 -305.001s-181.167 -115 -318.5 -115h-620zM351.999 852.001h351c58 0 106.833 17.5 146.5 52.5s59.5 83.833 59.5 146.5c0 56 -18.667 102 -56 138s-87.333 54 -150 54h-351v-391zM351.999 199.001l376.001 0.000976562
c71.333 0 130.666 20 177.999 60s71 95 71 165c0 65.333 -21.333 120.166 -64 164.499s-100 66.5 -172 66.5h-389v-456z" />
    <glyph glyph-name="Gamma" unicode="&#x393;" horiz-adv-x="1080" 
d="M140 0v1440h920v-197h-711v-1243h-209z" />
    <glyph glyph-name="uni0394" unicode="&#x394;" horiz-adv-x="1317" 
d="M508 1440h301l468 -1440h-1237zM656 1229l-335 -1032h674z" />
    <glyph glyph-name="Epsilon" unicode="&#x395;" horiz-adv-x="1160" 
d="M140 0v1440h920v-197h-711v-404h591v-197h-591v-445h711v-197h-920z" />
    <glyph glyph-name="Zeta" unicode="&#x396;" horiz-adv-x="1294" 
d="M100 0v33l735 1210h-695v197h1054v-34l-731 -1208h718v-198h-1081z" />
    <glyph glyph-name="Eta" unicode="&#x397;" horiz-adv-x="1419" 
d="M140 0v1440h209v-621h720v621h210v-1440h-210v622h-720v-622h-209z" />
    <glyph glyph-name="Theta" unicode="&#x398;" horiz-adv-x="1481" 
d="M741 -30c-144 0 -266.667 31.5 -368 94.5s-178.833 150.833 -232.5 263.5s-80.5 243.334 -80.5 392.001s26.833 279.334 80.5 392.001s131.167 200.5 232.5 263.5s224 94.5 368 94.5c143.333 0 265.833 -31.5 367.5 -94.5s179.167 -150.833 232.5 -263.5
s80 -243.334 80 -392.001s-26.667 -279.334 -80 -392.001s-130.833 -200.5 -232.5 -263.5s-224.167 -94.5 -367.5 -94.5zM741 169c102 -1.33301 187.001 21.1699 255.001 67.5029s118.833 111 152.5 194s50.5 179.5 50.5 289.5c0 165.333 -38.167 298.166 -114.5 398.499
s-190.833 151.166 -343.5 152.499c-102 1.33301 -187 -21.167 -255 -67.5s-118.833 -111 -152.5 -194s-50.834 -179.5 -51.501 -289.5c-0.666992 -164.667 37.333 -297.334 114 -398.001s191.667 -151.667 345 -153zM479.001 637.003v166h523v-166h-523z" />
    <glyph glyph-name="Iota" unicode="&#x399;" horiz-adv-x="529" 
d="M160 0v1440h209v-1440h-209z" />
    <glyph glyph-name="Kappa" unicode="&#x39a;" horiz-adv-x="1259" 
d="M140 0v1440h209v-672l603 672h260l-637 -703l684 -737h-268l-642 688v-688h-209z" />
    <glyph glyph-name="Lambda" unicode="&#x39b;" horiz-adv-x="1257" 
d="M478 1440h301l468 -1440h-217l-404 1229l-399 -1229h-217z" />
    <glyph glyph-name="Mu" unicode="&#x39c;" horiz-adv-x="1701" 
d="M140 0v1440h189l522 -1083l519 1083h191v-1439h-198v985l-465 -986h-95l-466 986v-986h-197z" />
    <glyph glyph-name="Nu" unicode="&#x39d;" horiz-adv-x="1413" 
d="M140 0v1440h212l709 -1070v1070h212v-1440h-212l-709 1071v-1071h-212z" />
    <glyph glyph-name="Xi" unicode="&#x39e;" horiz-adv-x="1425" 
d="M140 1243v197h1145v-197h-1145zM240 622v197h945v-197h-945zM140 0v197h1145v-197h-1145z" />
    <glyph glyph-name="Omicron" unicode="&#x39f;" horiz-adv-x="1481" 
d="M741 -30c-144 0 -266.667 31.5 -368 94.5s-178.833 150.833 -232.5 263.5s-80.5 243.334 -80.5 392.001s26.833 279.334 80.5 392.001s131.167 200.5 232.5 263.5s224 94.5 368 94.5c143.333 0 265.833 -31.5 367.5 -94.5s179.167 -150.833 232.5 -263.5
s80 -243.334 80 -392.001s-26.667 -279.334 -80 -392.001s-130.833 -200.5 -232.5 -263.5s-224.167 -94.5 -367.5 -94.5zM741 169c102 -1.33301 187.001 21.1699 255.001 67.5029s118.833 111 152.5 194s50.5 179.5 50.5 289.5c0 165.333 -38.167 298.166 -114.5 398.499
s-190.833 151.166 -343.5 152.499c-102 1.33301 -187 -21.167 -255 -67.5s-118.833 -111 -152.5 -194s-50.834 -179.5 -51.501 -289.5c-0.666992 -164.667 37.333 -297.334 114 -398.001s191.667 -151.667 345 -153z" />
    <glyph glyph-name="Pi" unicode="&#x3a0;" horiz-adv-x="1425" 
d="M140 0v1440h1145v-1440h-209v1243h-727v-1243h-209z" />
    <glyph glyph-name="Rho" unicode="&#x3a1;" horiz-adv-x="1254" 
d="M140 0l-0.000976562 1440h582c14 0 31.333 -0.5 52 -1.5s40.334 -3.16699 59.001 -6.5c120.667 -18.667 211 -69.667 271 -153s90 -183.333 90 -300s-30.167 -216.834 -90.5 -300.501s-150.5 -134.834 -270.5 -153.501c-18.667 -2.66699 -38.5 -4.66699 -59.5 -6
s-38.167 -2 -51.5 -2h-373v-517h-209zM348.999 715.002l365 -0.000976562c13.333 0 28.166 0.5 44.499 1.5s31.833 3.5 46.5 7.5c64 15.333 109.333 48.333 136 99s40 102.667 40 156c0 52.667 -13.333 104.334 -40 155.001s-72 83.667 -136 99
c-14.667 4 -30.167 6.66699 -46.5 8s-31.166 2 -44.499 2h-365v-528z" />
    <glyph glyph-name="Sigma" unicode="&#x3a3;" horiz-adv-x="1280" 
d="M140 0v189l522 531l-522 529v191h1000v-197h-729l498 -506v-34l-498 -506h716v-197h-987z" />
    <glyph glyph-name="Tau" unicode="&#x3a4;" horiz-adv-x="1207" 
d="M499 0v1243h-479v197h1167v-197h-479v-1243h-209z" />
    <glyph glyph-name="Upsilon" unicode="&#x3a5;" horiz-adv-x="1186" 
d="M487 0v595l-487 845h244l349 -605l349 605h244l-487 -845v-595h-212z" />
    <glyph glyph-name="Phi" unicode="&#x3a6;" horiz-adv-x="1459" 
d="M625 0v201c-98.667 -16.667 -191 -5.83398 -277 32.499s-155.5 102.166 -208.5 191.499s-79.5 201.666 -79.5 336.999s26.5 248.166 79.5 338.499s122.5 155.333 208.5 195s178.333 51.167 277 34.5v110h208v-110c98.667 16.667 191 5.16699 277 -34.5
s155.667 -104.667 209 -195s80 -203.166 80 -338.499s-26.667 -247.666 -80 -336.999s-123 -153.166 -209 -191.499s-178.333 -49.166 -277 -32.499v-201h-208zM625 395v744c-80.667 12 -146.834 1.33301 -198.501 -32s-90 -80.833 -115 -142.5s-37.5 -129.167 -37.5 -202.5
s12.5 -140 37.5 -200s63.333 -105.833 115 -137.5s117.834 -41.5 198.501 -29.5zM833 395c80 -12 146 -2.16602 198 29.501s90.667 77.167 116 136.5s38 124.666 38 195.999c0 70.667 -12.667 137.5 -38 200.5s-64 112 -116 147s-118 46.5 -198 34.5v-744z" />
    <glyph glyph-name="Chi" unicode="&#x3a7;" horiz-adv-x="1278" 
d="M20 0l491 729l-478 711h256l351 -534l349 534h257l-478 -711l490 -729h-256l-362 551l-363 -551h-257z" />
    <glyph glyph-name="Psi" unicode="&#x3a8;" horiz-adv-x="1481" 
d="M636 0l0.000976562 325.999c-115.333 4.66699 -215.833 33.834 -301.5 87.501s-143.167 136.834 -172.5 249.501c-10 31.333 -16.167 62.166 -18.5 92.499s-3.5 55.166 -3.5 74.499v610h197v-558c0 -14.667 0.666992 -35.167 2 -61.5s5.66602 -54.166 12.999 -83.499
c19.333 -75.333 54 -130 104 -164s110 -51.333 180 -52v919h209v-919c72 1.33301 133.667 20.5 185 57.5s85.333 93.167 102 168.5c6 27.333 9.5 53.5 10.5 78.5s1.5 43.833 1.5 56.5v558h197v-610c0 -22.667 -1.16699 -47.834 -3.5 -75.501s-8.5 -57.167 -18.5 -88.5
c-30.667 -113.333 -88.667 -197.166 -174 -251.499s-185.333 -83.833 -300 -88.5v-326h-209z" />
    <glyph glyph-name="uni03A9" unicode="&#x3a9;" horiz-adv-x="1481" 
d="M73 0l0.000976562 196.999h229c-74.667 64 -133.667 144 -177 240s-65 203.333 -65 322c0 134 27.833 254.5 83.5 361.5s134.5 191.833 236.5 254.5s222.333 94 361 94c138 0 258 -31.333 360 -94s180.833 -147.5 236.5 -254.5s83.5 -227.5 83.5 -361.5
c0 -118.667 -21.5 -226 -64.5 -322s-102.167 -176 -177.5 -240h228v-197h-492l1 197c44.667 23.333 88.5 59 131.5 107s78.833 107.333 107.5 178s43.334 151.334 44.001 242.001c1.33301 100 -16.334 191.333 -53.001 274s-89.5 148.834 -158.5 198.501
s-151.167 74.5 -246.5 74.5s-177.333 -24.667 -246 -74s-121.334 -115 -158.001 -197s-55 -172.333 -55 -271c0 -94.667 15 -177.5 45 -248.5s67.167 -130.333 111.5 -178s88.5 -82.834 132.5 -105.501v-197h-498z" />
    <glyph glyph-name="Iotadieresis" unicode="&#x3aa;" horiz-adv-x="529" 
d="M366 1621v200h200v-200h-200zM-37 1621v200h200v-200h-200zM160 0v1440h209v-1440h-209z" />
    <glyph glyph-name="Upsilondieresis" unicode="&#x3ab;" horiz-adv-x="1186" 
d="M695 1621v200h200v-200h-200zM292 1621v200h200v-200h-200zM487 0v595l-487 845h244l349 -605l349 605h244l-487 -845v-595h-212z" />
    <glyph glyph-name="alphatonos" unicode="&#x3ac;" horiz-adv-x="1244" 
d="M693 1240h-164l143 350h164zM573 -30c-102 0 -189.833 25 -263.5 75s-130.334 118 -170.001 204s-59.5 183 -59.5 291c0 108.667 20 206 60 292s97.333 153.833 172 203.5s163.667 74.5 267 74.5c74.667 0 140.834 -15 198.501 -45s104.5 -71.667 140.5 -125v140h186
v-1080h-186v143c-36.667 -54.667 -84.667 -97.167 -144 -127.5s-126.333 -45.5 -201 -45.5zM602 159c100 0 173.168 35.667 219.501 107s69.5 163 69.5 275s-23 203.333 -69 274s-118.333 106 -217 106c-98 0 -173 -35 -225 -105s-78 -162.333 -78 -277
c0 -70 10.667 -133.833 32 -191.5s54.166 -103.5 98.499 -137.5s100.833 -51 169.5 -51z" />
    <glyph glyph-name="epsilontonos" unicode="&#x3ad;" horiz-adv-x="1031" 
d="M563 1240h-164l143 350h164zM506 -30c-78 0 -149.333 13.501 -214 40.501s-116.167 66 -154.5 117s-57.5 112.833 -57.5 185.5c0 52 10.667 100.667 32 146s53 81 95 107c-63.333 63.333 -95 138.333 -95 225c0 69.333 17.833 127.666 53.5 174.999
s83 83.166 142 107.499s123.167 36.5 192.5 36.5c85.333 0 164.833 -15.5 238.5 -46.5s139.167 -74.167 196.5 -129.5l-122 -143c-39.333 34.667 -85.5 63.834 -138.5 87.501s-107.5 35.5 -163.5 35.5c-49.333 0 -92.333 -11.167 -129 -33.5s-55 -58.166 -55 -107.499
c0 -51.333 21.333 -86.166 64 -104.499s96.667 -27.5 162 -27.5h95v-168h-96c-49.333 0 -93.5 -3 -132.5 -9s-69.667 -18.833 -92 -38.5s-33.5 -49.834 -33.5 -90.501c0 -52 19.5 -93 58.5 -123s91.833 -45 158.5 -45c64 0 121.667 14.167 173 42.5s96.333 68.833 135 121.5
l166 -109c-48 -78.667 -113.5 -140.334 -196.5 -185.001s-177.167 -67 -282.5 -67z" />
    <glyph glyph-name="etatonos" unicode="&#x3ae;" 
d="M712 1240h-164l143 350h164zM139 0l0.000976562 1080h187v-129c39.333 50 89.166 88.833 149.499 116.5s129.5 41.5 207.5 41.5c74 0 136.5 -12 187.5 -36s92.333 -55.5 124 -94.5s55.834 -81.5 72.501 -127.5s28 -91 34 -135s9 -82.667 9 -116v-600h-212v531
c0 42 -3.5 85.167 -10.5 129.5s-20.167 85.5 -39.5 123.5s-47 68.667 -83 92s-82.667 35 -140 35c-50 0 -95.833 -11.333 -137.5 -34s-74.834 -59.5 -99.501 -110.5s-37 -119.167 -37 -204.5v-562h-212z" />
    <glyph glyph-name="iotatonos" unicode="&#x3af;" horiz-adv-x="778" 
d="M350 1240h-164l143 350h164zM417 -9c-40.667 6.66699 -79.832 19.6709 -117.499 39.0039s-69.834 51.666 -96.501 96.999c-25.333 43.333 -38.666 87.666 -39.999 132.999s-2 100.333 -2 165v655h209v-645c0 -44.667 0.333008 -82.334 1 -113.001s7.66699 -57.667 21 -81
c13.333 -24 30.833 -41.333 52.5 -52s44.834 -17.334 69.501 -20.001c56.667 -4.66699 115.667 -2 177 8v-177c-38.667 -10 -84.834 -15.5 -138.501 -16.5s-98.834 1.5 -135.501 7.5z" />
    <glyph glyph-name="upsilondieresistonos" unicode="&#x3b0;" horiz-adv-x="1209" 
d="M120 493v587h212v-531c0 -42 3.5 -85.167 10.5 -129.5s20.167 -85.5 39.5 -123.5s47 -68.667 83 -92s82.667 -35 140 -35s103.833 11.667 139.5 35s63.167 54 82.5 92s32.5 79.167 39.5 123.5s10.5 87.5 10.5 129.5v531h212v-587c0 -56 -5.5 -114.5 -16.5 -175.5
s-33 -117.667 -66 -170s-81.667 -94.833 -146 -127.5s-149.5 -49 -255.5 -49c-106.667 0 -192.167 16.333 -256.5 49s-113 75.167 -146 127.5s-55 109 -66 170s-16.5 119.5 -16.5 175.5zM639 1240h-164l143 350h164zM812 1260v200h180v-200h-180zM217 1260v200h180v-200
h-180z" />
    <glyph glyph-name="alpha" unicode="&#x3b1;" horiz-adv-x="1244" 
d="M573 -30c-102 0 -189.833 25 -263.5 75s-130.334 118 -170.001 204s-59.5 183 -59.5 291c0 108.667 20 206 60 292s97.333 153.833 172 203.5s163.667 74.5 267 74.5c74.667 0 140.834 -15 198.501 -45s104.5 -71.667 140.5 -125v140h186v-1080h-186v143
c-36.667 -54.667 -84.667 -97.167 -144 -127.5s-126.333 -45.5 -201 -45.5zM602 159c100 0 173.168 35.667 219.501 107s69.5 163 69.5 275s-23 203.333 -69 274s-118.333 106 -217 106c-98 0 -173 -35 -225 -105s-78 -162.333 -78 -277c0 -70 10.667 -133.833 32 -191.5
s54.166 -103.5 98.499 -137.5s100.833 -51 169.5 -51z" />
    <glyph glyph-name="beta" unicode="&#x3b2;" horiz-adv-x="1183" 
d="M139 -480l0.000976562 1560c0 44.667 6.66699 88.334 20 131.001c27.333 86.667 78.666 151.5 153.999 194.5s159.333 64.5 252 64.5c85.333 0 161 -16.833 227 -50.5s117.833 -80.5 155.5 -140.5s56.5 -130 56.5 -210c0 -58.667 -11.333 -112.167 -34 -160.5
s-57.667 -86.833 -105 -115.5c70 -21.333 130.667 -64.666 182 -129.999s77 -149.333 77 -252c0 -135.333 -45.333 -242.666 -136 -321.999s-213.667 -119 -369 -119c-54.667 0 -104.667 6.33301 -150 19s-85.333 30.334 -120 53.001v-522h-210zM629.001 166.996
c83.333 0 151.5 23.002 204.5 69.002s79.5 107.667 79.5 185c0 83.333 -31.333 145.666 -94 186.999s-145.334 62.666 -248.001 63.999v185c66 6 119.167 26.5 159.5 61.5s60.5 84.167 60.5 147.5c0 66 -21.333 117 -64 153s-95.334 54 -158.001 54
c-38.667 0 -76.167 -8.5 -112.5 -25.5s-63.5 -46.5 -81.5 -88.5c-11.333 -26 -18.166 -53.667 -20.499 -83s-3.5 -53 -3.5 -71v-569c0 -16.667 0.833008 -37 2.5 -61s5.83398 -45.333 12.501 -64c16 -48 49.667 -84 101 -108s105.333 -36 162 -36z" />
    <glyph glyph-name="gamma" unicode="&#x3b3;" horiz-adv-x="1076" 
d="M432 -360v360l-392 1080h211l287 -818l287 818h211l-392 -1080v-360h-212z" />
    <glyph glyph-name="delta" unicode="&#x3b4;" horiz-adv-x="1219" 
d="M605 -29c-106.667 0 -199.169 21.0029 -277.502 63.0029s-139.166 101 -182.499 177s-65 164.667 -65 266c0 119.333 30.333 222 91 308s146 138.667 256 158c-54 26.667 -99.167 60.834 -135.5 102.501s-54.5 95.167 -54.5 160.5c0 35.333 7 71.166 21 107.499
s37.667 68.166 71 95.499s79 45.333 137 54c18.667 3.33301 37.334 5.33301 56.001 6s41.667 1 69 1h341v-172h-294c-21.333 0 -40.666 -0.5 -57.999 -1.5s-33.333 -3.5 -48 -7.5c-24.667 -6.66699 -45.167 -17.5 -61.5 -32.5s-24.5 -34.833 -24.5 -59.5
c0 -34.667 16.667 -63.334 50 -86.001s77.166 -43.5 131.499 -62.5l176.5 -62.5c104.667 -34.667 186.667 -95.5 246 -182.5s89 -190.167 89 -309.5c0 -102.667 -21.833 -193.334 -65.5 -272.001s-105.5 -140.167 -185.5 -184.5s-174.333 -66.5 -283 -66.5zM609.998 168.003
c96 0 168.499 29.832 217.499 89.499s73.5 138.834 73.5 237.501c0 100 -24.667 179 -74 237s-121.666 87 -216.999 87c-96.667 0 -169.334 -29.333 -218.001 -88s-73 -137.667 -73 -237c0 -102.667 24.833 -182.667 74.5 -240s121.834 -86 216.501 -86z" />
    <glyph glyph-name="epsilon" unicode="&#x3b5;" horiz-adv-x="1031" 
d="M506 -30c-78 0 -149.167 13.499 -213.5 40.499s-115.833 66 -154.5 117s-58 112.833 -58 185.5c0 52 10.667 100.667 32 146s53 81 95 107c-63.333 63.333 -95 138.333 -95 225c0 69.333 17.833 127.666 53.5 174.999s83 83.166 142 107.499s123.167 36.5 192.5 36.5
c84.667 0 164 -15.5 238 -46.5s139.667 -74.167 197 -129.5l-122 -143c-39.333 34.667 -85.5 63.834 -138.5 87.501s-107.5 35.5 -163.5 35.5c-49.333 0 -92.333 -11.167 -129 -33.5s-55 -58.166 -55 -107.499c0 -51.333 21.333 -86.166 64 -104.499s96.667 -27.5 162 -27.5
h95v-168h-96c-49.333 0 -93.5 -3.16699 -132.5 -9.5s-69.667 -19.166 -92 -38.499s-33.5 -49.333 -33.5 -90c0 -52 19.5 -93 58.5 -123s91.833 -45 158.5 -45c64 0 121.667 14.167 173 42.5s96.333 68.833 135 121.5l166 -109c-48 -78.667 -113.667 -140.334 -197 -185.001
s-177.333 -67 -282 -67z" />
    <glyph glyph-name="zeta" unicode="&#x3b6;" horiz-adv-x="1037" 
d="M829 -240c2 79.333 -9.49707 135.667 -34.4971 169s-60.167 53.5 -105.5 60.5s-98 10.5 -158 10.5c-87.333 0 -164.833 11.5 -232.5 34.5s-121 62.5 -160 118.5s-58.5 133.667 -58.5 233c0 54.667 8 108.5 24 161.5s44.667 110 86 171s100.666 131.5 177.999 211.5
l335 322h-563v188h884v-159l-74.5 -72l-82 -80l-117.5 -112l-181 -170c-68 -65.333 -121.333 -123.333 -160 -174s-66.334 -97.5 -83.001 -140.5s-25 -85.5 -25 -127.5c0 -60.667 14.167 -106 42.5 -136s67.833 -49.667 118.5 -59s109.667 -14 177 -14
c26.667 0 58 -1.66699 94 -5s68.333 -9.33301 97 -18c69.333 -22 121.666 -67.333 156.999 -136s44 -161 26 -277h-184z" />
    <glyph glyph-name="eta" unicode="&#x3b7;" 
d="M139 0l0.000976562 1080h187v-129c39.333 50 89.166 88.833 149.499 116.5s129.5 41.5 207.5 41.5c74 0 136.5 -12 187.5 -36s92.333 -55.5 124 -94.5s55.834 -81.5 72.501 -127.5s28 -91 34 -135s9 -82.667 9 -116v-600h-212v531c0 42 -3.5 85.167 -10.5 129.5
s-20.167 85.5 -39.5 123.5s-47 68.667 -83 92s-82.667 35 -140 35c-50 0 -95.833 -11.333 -137.5 -34s-74.834 -59.5 -99.501 -110.5s-37 -119.167 -37 -204.5v-562h-212z" />
    <glyph glyph-name="theta" unicode="&#x3b8;" horiz-adv-x="1353" 
d="M677 -30c-128 0 -236.333 32.001 -325 96.001s-156.167 152.5 -202.5 265.5s-69.5 242.5 -69.5 388.5s23.167 275.333 69.5 388s113.833 201 202.5 265s197 96 325 96c127.333 0 235.333 -32 324 -96s156.167 -152.333 202.5 -265s69.5 -242 69.5 -388
c0 -148.667 -23.167 -279.334 -69.5 -392.001s-113.833 -200.5 -202.5 -263.5s-196.667 -94.5 -324 -94.5zM677 1271c-76.667 0 -141.331 -20.167 -193.998 -60.5s-93.667 -95.666 -123 -165.999s-47.666 -150.833 -54.999 -241.5h744
c-6.66699 90.667 -24.834 171.167 -54.501 241.5s-70.834 125.666 -123.501 165.999s-117.334 60.5 -194.001 60.5zM677.003 169.001c76.667 0 141.169 20.167 193.502 60.5s93.166 95.666 122.499 165.999s47.666 150.833 54.999 241.5h-743
c6 -90.667 23.833 -171.167 53.5 -241.5s71 -125.666 124 -165.999s117.833 -60.5 194.5 -60.5z" />
    <glyph glyph-name="iota" unicode="&#x3b9;" horiz-adv-x="778" 
d="M417 -9c-40.667 6.66699 -79.832 19.6709 -117.499 39.0039s-69.834 51.666 -96.501 96.999c-25.333 43.333 -38.666 87.666 -39.999 132.999s-2 100.333 -2 165v655h209v-645c0 -44.667 0.333008 -82.334 1 -113.001s7.66699 -57.667 21 -81
c13.333 -24 30.833 -41.333 52.5 -52s44.834 -17.334 69.501 -20.001c56.667 -4.66699 115.667 -2 177 8v-177c-38.667 -10 -84.834 -15.5 -138.501 -16.5s-98.834 1.5 -135.501 7.5z" />
    <glyph glyph-name="kappa" unicode="&#x3ba;" horiz-adv-x="1048" 
d="M139 0l1 1080h212v-520l424 520h266l-448 -540l494 -540h-284l-452 520v-520h-213z" />
    <glyph glyph-name="lambda" unicode="&#x3bb;" horiz-adv-x="1116" 
d="M80 0l392.002 1080c-18.667 48 -37.5 87.167 -56.5 117.5s-42.833 52.666 -71.5 66.999s-67 21.5 -115 21.5h-52v184h72c12 0 32.833 -0.666992 62.5 -2s58.167 -5 85.5 -11c55.333 -12.667 100.166 -37.667 134.499 -75s63.166 -82.333 86.499 -135
s45.333 -108.334 66 -167.001l392 -1080h-211l-287 818l-287 -818h-211z" />
    <glyph glyph-name="uni03BC" unicode="&#x3bc;" horiz-adv-x="1249" 
d="M139 -480v1560h212v-531c0 -42 3.5 -85.167 10.5 -129.5s20.167 -85.5 39.5 -123.5s46.833 -68.667 82.5 -92s82.167 -35 139.5 -35c50.667 0 96.667 11.333 138 34s74.5 59.5 99.5 110.5s37.5 119.167 37.5 204.5v562h211v-1080h-186v133
c-81.333 -108 -200.333 -162 -357 -162c-100.667 0 -181 28.333 -241 85v-536h-186z" />
    </font>
</defs>
</svg>
